%TF.GenerationSoftware,KiCad,Pcbnew,9.0.4*%
%TF.CreationDate,2026-02-11T17:36:45+01:00*%
%TF.ProjectId,RDE_board,5244455f-626f-4617-9264-2e6b69636164,1.0*%
%TF.SameCoordinates,Original*%
%TF.FileFunction,Soldermask,Bot*%
%TF.FilePolarity,Negative*%
%FSLAX46Y46*%
G04 Gerber Fmt 4.6, Leading zero omitted, Abs format (unit mm)*
G04 Created by KiCad (PCBNEW 9.0.4) date 2026-02-11 17:36:45*
%MOMM*%
%LPD*%
G01*
G04 APERTURE LIST*
G04 Aperture macros list*
%AMRoundRect*
0 Rectangle with rounded corners*
0 $1 Rounding radius*
0 $2 $3 $4 $5 $6 $7 $8 $9 X,Y pos of 4 corners*
0 Add a 4 corners polygon primitive as box body*
4,1,4,$2,$3,$4,$5,$6,$7,$8,$9,$2,$3,0*
0 Add four circle primitives for the rounded corners*
1,1,$1+$1,$2,$3*
1,1,$1+$1,$4,$5*
1,1,$1+$1,$6,$7*
1,1,$1+$1,$8,$9*
0 Add four rect primitives between the rounded corners*
20,1,$1+$1,$2,$3,$4,$5,0*
20,1,$1+$1,$4,$5,$6,$7,0*
20,1,$1+$1,$6,$7,$8,$9,0*
20,1,$1+$1,$8,$9,$2,$3,0*%
G04 Aperture macros list end*
%ADD10C,1.650000*%
%ADD11C,2.850000*%
%ADD12RoundRect,0.249999X-0.525001X0.525001X-0.525001X-0.525001X0.525001X-0.525001X0.525001X0.525001X0*%
%ADD13C,1.550000*%
%ADD14C,2.775000*%
%ADD15R,2.775000X2.775000*%
%ADD16C,2.700000*%
%ADD17R,0.850000X0.850000*%
%ADD18C,0.850000*%
%ADD19C,0.990600*%
%ADD20RoundRect,0.237500X0.250000X0.237500X-0.250000X0.237500X-0.250000X-0.237500X0.250000X-0.237500X0*%
%ADD21RoundRect,0.160000X-0.252791X0.026517X0.026517X-0.252791X0.252791X-0.026517X-0.026517X0.252791X0*%
%ADD22RoundRect,0.237500X-0.380070X0.044194X0.044194X-0.380070X0.380070X-0.044194X-0.044194X0.380070X0*%
%ADD23RoundRect,0.237500X-0.237500X0.250000X-0.237500X-0.250000X0.237500X-0.250000X0.237500X0.250000X0*%
%ADD24RoundRect,0.237500X0.237500X-0.250000X0.237500X0.250000X-0.237500X0.250000X-0.237500X-0.250000X0*%
%ADD25RoundRect,0.250000X0.650000X-0.412500X0.650000X0.412500X-0.650000X0.412500X-0.650000X-0.412500X0*%
%ADD26RoundRect,0.237500X-0.250000X-0.237500X0.250000X-0.237500X0.250000X0.237500X-0.250000X0.237500X0*%
%ADD27RoundRect,0.237500X0.044194X0.380070X-0.380070X-0.044194X-0.044194X-0.380070X0.380070X0.044194X0*%
%ADD28R,0.600000X1.250000*%
%ADD29RoundRect,0.250001X-0.462499X-0.624999X0.462499X-0.624999X0.462499X0.624999X-0.462499X0.624999X0*%
%ADD30RoundRect,0.237500X0.300000X0.237500X-0.300000X0.237500X-0.300000X-0.237500X0.300000X-0.237500X0*%
%ADD31RoundRect,0.237500X0.237500X-0.300000X0.237500X0.300000X-0.237500X0.300000X-0.237500X-0.300000X0*%
G04 APERTURE END LIST*
D10*
%TO.C,K17*%
X144891700Y-95266600D03*
X144891700Y-102886600D03*
X139811700Y-102886600D03*
X137271700Y-102886600D03*
X142351700Y-102886600D03*
X139811700Y-95266600D03*
X137271700Y-95266600D03*
X142351700Y-95266600D03*
X134731700Y-102886600D03*
X134731700Y-95266600D03*
%TD*%
D11*
%TO.C,J1*%
X227270000Y-55540000D03*
X227270000Y-144440000D03*
D12*
X224730000Y-60620000D03*
D13*
X224730000Y-63160000D03*
X224730000Y-65700000D03*
X224730000Y-68240000D03*
X224730000Y-70780000D03*
X224730000Y-73320000D03*
X224730000Y-75860000D03*
X224730000Y-78400000D03*
X224730000Y-80940000D03*
X224730000Y-83480000D03*
X224730000Y-86020000D03*
X224730000Y-88560000D03*
X224730000Y-91100000D03*
X224730000Y-93640000D03*
X224730000Y-96180000D03*
X224730000Y-98720000D03*
X224730000Y-101260000D03*
X224730000Y-103800000D03*
X224730000Y-106340000D03*
X224730000Y-108880000D03*
X224730000Y-111420000D03*
X224730000Y-113960000D03*
X224730000Y-116500000D03*
X224730000Y-119040000D03*
X224730000Y-121580000D03*
X224730000Y-124120000D03*
X224730000Y-126660000D03*
X224730000Y-129200000D03*
X224730000Y-131740000D03*
X224730000Y-134280000D03*
X224730000Y-136820000D03*
X224730000Y-139360000D03*
X219650000Y-60620000D03*
X219650000Y-63160000D03*
X219650000Y-65700000D03*
X219650000Y-68240000D03*
X219650000Y-70780000D03*
X219650000Y-73320000D03*
X219650000Y-75860000D03*
X219650000Y-78400000D03*
X219650000Y-80940000D03*
X219650000Y-83480000D03*
X219650000Y-86020000D03*
X219650000Y-88560000D03*
X219650000Y-91100000D03*
X219650000Y-93640000D03*
X219650000Y-96180000D03*
X219650000Y-98720000D03*
X219650000Y-101260000D03*
X219650000Y-103800000D03*
X219650000Y-106340000D03*
X219650000Y-108880000D03*
X219650000Y-111420000D03*
X219650000Y-113960000D03*
X219650000Y-116500000D03*
X219650000Y-119040000D03*
X219650000Y-121580000D03*
X219650000Y-124120000D03*
X219650000Y-126660000D03*
X219650000Y-129200000D03*
X219650000Y-131740000D03*
X219650000Y-134280000D03*
X219650000Y-136820000D03*
X219650000Y-139360000D03*
%TD*%
D10*
%TO.C,K36*%
X126091700Y-134269600D03*
X126091700Y-141889600D03*
X121011700Y-141889600D03*
X118471700Y-141889600D03*
X123551700Y-141889600D03*
X121011700Y-134269600D03*
X118471700Y-134269600D03*
X123551700Y-134269600D03*
X115931700Y-141889600D03*
X115931700Y-134269600D03*
%TD*%
%TO.C,K23*%
X144891700Y-108266600D03*
X144891700Y-115886600D03*
X139811700Y-115886600D03*
X137271700Y-115886600D03*
X142351700Y-115886600D03*
X139811700Y-108266600D03*
X137271700Y-108266600D03*
X142351700Y-108266600D03*
X134731700Y-115886600D03*
X134731700Y-108266600D03*
%TD*%
%TO.C,K38*%
X88510000Y-131750000D03*
X88510000Y-139370000D03*
X83430000Y-139370000D03*
X80890000Y-139370000D03*
X85970000Y-139370000D03*
X83430000Y-131750000D03*
X80890000Y-131750000D03*
X85970000Y-131750000D03*
X78350000Y-139370000D03*
X78350000Y-131750000D03*
%TD*%
%TO.C,K18*%
X126091700Y-95269600D03*
X126091700Y-102889600D03*
X121011700Y-102889600D03*
X118471700Y-102889600D03*
X123551700Y-102889600D03*
X121011700Y-95269600D03*
X118471700Y-95269600D03*
X123551700Y-95269600D03*
X115931700Y-102889600D03*
X115931700Y-95269600D03*
%TD*%
D14*
%TO.C,J7*%
X95350000Y-63140010D03*
D15*
X102360000Y-63140010D03*
D14*
X95350000Y-58140010D03*
X102360000Y-58140010D03*
%TD*%
D10*
%TO.C,K34*%
X163691700Y-134269600D03*
X163691700Y-141889600D03*
X158611700Y-141889600D03*
X156071700Y-141889600D03*
X161151700Y-141889600D03*
X158611700Y-134269600D03*
X156071700Y-134269600D03*
X161151700Y-134269600D03*
X153531700Y-141889600D03*
X153531700Y-134269600D03*
%TD*%
D16*
%TO.C,H2*%
X73610000Y-144440000D03*
%TD*%
D10*
%TO.C,K16*%
X163691700Y-95269600D03*
X163691700Y-102889600D03*
X158611700Y-102889600D03*
X156071700Y-102889600D03*
X161151700Y-102889600D03*
X158611700Y-95269600D03*
X156071700Y-95269600D03*
X161151700Y-95269600D03*
X153531700Y-102889600D03*
X153531700Y-95269600D03*
%TD*%
%TO.C,K1*%
X154740000Y-64480000D03*
X154740000Y-56860000D03*
X159820000Y-56860000D03*
X162360000Y-56860000D03*
X157280000Y-56860000D03*
X159820000Y-64480000D03*
X162360000Y-64480000D03*
X157280000Y-64480000D03*
X164900000Y-56860000D03*
X164900000Y-64480000D03*
%TD*%
%TO.C,K2*%
X121940000Y-56830000D03*
X121940000Y-64450000D03*
X116860000Y-64450000D03*
X114320000Y-64450000D03*
X119400000Y-64450000D03*
X116860000Y-56830000D03*
X114320000Y-56830000D03*
X119400000Y-56830000D03*
X111780000Y-64450000D03*
X111780000Y-56830000D03*
%TD*%
D14*
%TO.C,J5*%
X126744500Y-63160010D03*
D15*
X133754500Y-63160010D03*
D14*
X126744500Y-58160010D03*
X133754500Y-58160010D03*
%TD*%
D10*
%TO.C,K5*%
X144891700Y-69266600D03*
X144891700Y-76886600D03*
X139811700Y-76886600D03*
X137271700Y-76886600D03*
X142351700Y-76886600D03*
X139811700Y-69266600D03*
X137271700Y-69266600D03*
X142351700Y-69266600D03*
X134731700Y-76886600D03*
X134731700Y-69266600D03*
%TD*%
%TO.C,K21*%
X182491700Y-108266600D03*
X182491700Y-115886600D03*
X177411700Y-115886600D03*
X174871700Y-115886600D03*
X179951700Y-115886600D03*
X177411700Y-108266600D03*
X174871700Y-108266600D03*
X179951700Y-108266600D03*
X172331700Y-115886600D03*
X172331700Y-108266600D03*
%TD*%
%TO.C,K29*%
X144891700Y-121266600D03*
X144891700Y-128886600D03*
X139811700Y-128886600D03*
X137271700Y-128886600D03*
X142351700Y-128886600D03*
X139811700Y-121266600D03*
X137271700Y-121266600D03*
X142351700Y-121266600D03*
X134731700Y-128886600D03*
X134731700Y-121266600D03*
%TD*%
%TO.C,K12*%
X126091700Y-82269600D03*
X126091700Y-89889600D03*
X121011700Y-89889600D03*
X118471700Y-89889600D03*
X123551700Y-89889600D03*
X121011700Y-82269600D03*
X118471700Y-82269600D03*
X123551700Y-82269600D03*
X115931700Y-89889600D03*
X115931700Y-82269600D03*
%TD*%
%TO.C,K9*%
X182491700Y-82266600D03*
X182491700Y-89886600D03*
X177411700Y-89886600D03*
X174871700Y-89886600D03*
X179951700Y-89886600D03*
X177411700Y-82266600D03*
X174871700Y-82266600D03*
X179951700Y-82266600D03*
X172331700Y-89886600D03*
X172331700Y-82266600D03*
%TD*%
%TO.C,K30*%
X126091700Y-121269600D03*
X126091700Y-128889600D03*
X121011700Y-128889600D03*
X118471700Y-128889600D03*
X123551700Y-128889600D03*
X121011700Y-121269600D03*
X118471700Y-121269600D03*
X123551700Y-121269600D03*
X115931700Y-128889600D03*
X115931700Y-121269600D03*
%TD*%
%TO.C,K3*%
X182491700Y-69266600D03*
X182491700Y-76886600D03*
X177411700Y-76886600D03*
X174871700Y-76886600D03*
X179951700Y-76886600D03*
X177411700Y-69266600D03*
X174871700Y-69266600D03*
X179951700Y-69266600D03*
X172331700Y-76886600D03*
X172331700Y-69266600D03*
%TD*%
%TO.C,K20*%
X88491700Y-95269600D03*
X88491700Y-102889600D03*
X83411700Y-102889600D03*
X80871700Y-102889600D03*
X85951700Y-102889600D03*
X83411700Y-95269600D03*
X80871700Y-95269600D03*
X85951700Y-95269600D03*
X78331700Y-102889600D03*
X78331700Y-95269600D03*
%TD*%
%TO.C,K19*%
X107291700Y-95266600D03*
X107291700Y-102886600D03*
X102211700Y-102886600D03*
X99671700Y-102886600D03*
X104751700Y-102886600D03*
X102211700Y-95266600D03*
X99671700Y-95266600D03*
X104751700Y-95266600D03*
X97131700Y-102886600D03*
X97131700Y-95266600D03*
%TD*%
%TO.C,K6*%
X126091700Y-69269600D03*
X126091700Y-76889600D03*
X121011700Y-76889600D03*
X118471700Y-76889600D03*
X123551700Y-76889600D03*
X121011700Y-69269600D03*
X118471700Y-69269600D03*
X123551700Y-69269600D03*
X115931700Y-76889600D03*
X115931700Y-69269600D03*
%TD*%
%TO.C,K35*%
X144891700Y-134266600D03*
X144891700Y-141886600D03*
X139811700Y-141886600D03*
X137271700Y-141886600D03*
X142351700Y-141886600D03*
X139811700Y-134266600D03*
X137271700Y-134266600D03*
X142351700Y-134266600D03*
X134731700Y-141886600D03*
X134731700Y-134266600D03*
%TD*%
%TO.C,K33*%
X182491700Y-134266600D03*
X182491700Y-141886600D03*
X177411700Y-141886600D03*
X174871700Y-141886600D03*
X179951700Y-141886600D03*
X177411700Y-134266600D03*
X174871700Y-134266600D03*
X179951700Y-134266600D03*
X172331700Y-141886600D03*
X172331700Y-134266600D03*
%TD*%
%TO.C,K7*%
X107291700Y-69266600D03*
X107291700Y-76886600D03*
X102211700Y-76886600D03*
X99671700Y-76886600D03*
X104751700Y-76886600D03*
X102211700Y-69266600D03*
X99671700Y-69266600D03*
X104751700Y-69266600D03*
X97131700Y-76886600D03*
X97131700Y-69266600D03*
%TD*%
%TO.C,K37*%
X107291700Y-134266600D03*
X107291700Y-141886600D03*
X102211700Y-141886600D03*
X99671700Y-141886600D03*
X104751700Y-141886600D03*
X102211700Y-134266600D03*
X99671700Y-134266600D03*
X104751700Y-134266600D03*
X97131700Y-141886600D03*
X97131700Y-134266600D03*
%TD*%
%TO.C,K39*%
X179860000Y-64480000D03*
X179860000Y-56860000D03*
X184940000Y-56860000D03*
X187480000Y-56860000D03*
X182400000Y-56860000D03*
X184940000Y-64480000D03*
X187480000Y-64480000D03*
X182400000Y-64480000D03*
X190020000Y-56860000D03*
X190020000Y-64480000D03*
%TD*%
%TO.C,K24*%
X126091700Y-108269600D03*
X126091700Y-115889600D03*
X121011700Y-115889600D03*
X118471700Y-115889600D03*
X123551700Y-115889600D03*
X121011700Y-108269600D03*
X118471700Y-108269600D03*
X123551700Y-108269600D03*
X115931700Y-115889600D03*
X115931700Y-108269600D03*
%TD*%
%TO.C,K13*%
X107291700Y-82266600D03*
X107291700Y-89886600D03*
X102211700Y-89886600D03*
X99671700Y-89886600D03*
X104751700Y-89886600D03*
X102211700Y-82266600D03*
X99671700Y-82266600D03*
X104751700Y-82266600D03*
X97131700Y-89886600D03*
X97131700Y-82266600D03*
%TD*%
%TO.C,K31*%
X107291700Y-121266600D03*
X107291700Y-128886600D03*
X102211700Y-128886600D03*
X99671700Y-128886600D03*
X104751700Y-128886600D03*
X102211700Y-121266600D03*
X99671700Y-121266600D03*
X104751700Y-121266600D03*
X97131700Y-128886600D03*
X97131700Y-121266600D03*
%TD*%
%TO.C,K27*%
X182491700Y-121266600D03*
X182491700Y-128886600D03*
X177411700Y-128886600D03*
X174871700Y-128886600D03*
X179951700Y-128886600D03*
X177411700Y-121266600D03*
X174871700Y-121266600D03*
X179951700Y-121266600D03*
X172331700Y-128886600D03*
X172331700Y-121266600D03*
%TD*%
D16*
%TO.C,H1*%
X73610000Y-55540000D03*
%TD*%
D10*
%TO.C,K15*%
X182491700Y-95266600D03*
X182491700Y-102886600D03*
X177411700Y-102886600D03*
X174871700Y-102886600D03*
X179951700Y-102886600D03*
X177411700Y-95266600D03*
X174871700Y-95266600D03*
X179951700Y-95266600D03*
X172331700Y-102886600D03*
X172331700Y-95266600D03*
%TD*%
D17*
%TO.C,J3*%
X211861400Y-92667200D03*
D18*
X211861400Y-93667200D03*
%TD*%
D10*
%TO.C,K11*%
X144891700Y-82266600D03*
X144891700Y-89886600D03*
X139811700Y-89886600D03*
X137271700Y-89886600D03*
X142351700Y-89886600D03*
X139811700Y-82266600D03*
X137271700Y-82266600D03*
X142351700Y-82266600D03*
X134731700Y-89886600D03*
X134731700Y-82266600D03*
%TD*%
%TO.C,K8*%
X88491700Y-69269600D03*
X88491700Y-76889600D03*
X83411700Y-76889600D03*
X80871700Y-76889600D03*
X85951700Y-76889600D03*
X83411700Y-69269600D03*
X80871700Y-69269600D03*
X85951700Y-69269600D03*
X78331700Y-76889600D03*
X78331700Y-69269600D03*
%TD*%
D14*
%TO.C,J4*%
X138654500Y-63160010D03*
D15*
X145664500Y-63160010D03*
D14*
X138654500Y-58160010D03*
X145664500Y-58160010D03*
%TD*%
%TO.C,J6*%
X83415500Y-63140010D03*
D15*
X90425500Y-63140010D03*
D14*
X83415500Y-58140010D03*
X90425500Y-58140010D03*
%TD*%
D10*
%TO.C,K32*%
X88491700Y-119860000D03*
X88491700Y-127480000D03*
X83411700Y-127480000D03*
X80871700Y-127480000D03*
X85951700Y-127480000D03*
X83411700Y-119860000D03*
X80871700Y-119860000D03*
X85951700Y-119860000D03*
X78331700Y-127480000D03*
X78331700Y-119860000D03*
%TD*%
%TO.C,K28*%
X163691700Y-121269600D03*
X163691700Y-128889600D03*
X158611700Y-128889600D03*
X156071700Y-128889600D03*
X161151700Y-128889600D03*
X158611700Y-121269600D03*
X156071700Y-121269600D03*
X161151700Y-121269600D03*
X153531700Y-128889600D03*
X153531700Y-121269600D03*
%TD*%
%TO.C,K26*%
X88491700Y-108269600D03*
X88491700Y-115889600D03*
X83411700Y-115889600D03*
X80871700Y-115889600D03*
X85951700Y-115889600D03*
X83411700Y-108269600D03*
X80871700Y-108269600D03*
X85951700Y-108269600D03*
X78331700Y-115889600D03*
X78331700Y-108269600D03*
%TD*%
%TO.C,K25*%
X107291700Y-108266600D03*
X107291700Y-115886600D03*
X102211700Y-115886600D03*
X99671700Y-115886600D03*
X104751700Y-115886600D03*
X102211700Y-108266600D03*
X99671700Y-108266600D03*
X104751700Y-108266600D03*
X97131700Y-115886600D03*
X97131700Y-108266600D03*
%TD*%
%TO.C,K22*%
X163691700Y-108269600D03*
X163691700Y-115889600D03*
X158611700Y-115889600D03*
X156071700Y-115889600D03*
X161151700Y-115889600D03*
X158611700Y-108269600D03*
X156071700Y-108269600D03*
X161151700Y-108269600D03*
X153531700Y-115889600D03*
X153531700Y-108269600D03*
%TD*%
%TO.C,K10*%
X163691700Y-82269600D03*
X163691700Y-89889600D03*
X158611700Y-89889600D03*
X156071700Y-89889600D03*
X161151700Y-89889600D03*
X158611700Y-82269600D03*
X156071700Y-82269600D03*
X161151700Y-82269600D03*
X153531700Y-89889600D03*
X153531700Y-82269600D03*
%TD*%
%TO.C,K14*%
X88491700Y-82269600D03*
X88491700Y-89889600D03*
X83411700Y-89889600D03*
X80871700Y-89889600D03*
X85951700Y-89889600D03*
X83411700Y-82269600D03*
X80871700Y-82269600D03*
X85951700Y-82269600D03*
X78331700Y-89889600D03*
X78331700Y-82269600D03*
%TD*%
%TO.C,K4*%
X163691700Y-69269600D03*
X163691700Y-76889600D03*
X158611700Y-76889600D03*
X156071700Y-76889600D03*
X161151700Y-76889600D03*
X158611700Y-69269600D03*
X156071700Y-69269600D03*
X161151700Y-69269600D03*
X153531700Y-76889600D03*
X153531700Y-69269600D03*
%TD*%
D19*
%TO.C,J2*%
X213156800Y-102971600D03*
X212140800Y-97891600D03*
X214172800Y-97891600D03*
%TD*%
D20*
%TO.C,R48*%
X129660500Y-99829700D03*
X127835500Y-99829700D03*
%TD*%
%TO.C,R26*%
X94994200Y-73076600D03*
X93169200Y-73076600D03*
%TD*%
%TO.C,R29*%
X132987900Y-73829700D03*
X131162900Y-73829700D03*
%TD*%
%TO.C,R73*%
X160824200Y-138841600D03*
X158999200Y-138841600D03*
%TD*%
%TO.C,R75*%
X129660500Y-138829700D03*
X127835500Y-138829700D03*
%TD*%
%TO.C,R32*%
X132987900Y-85331100D03*
X131162900Y-85331100D03*
%TD*%
%TO.C,R46*%
X160824200Y-99841600D03*
X158999200Y-99841600D03*
%TD*%
%TO.C,R60*%
X129660500Y-124331100D03*
X127835500Y-124331100D03*
%TD*%
%TO.C,R64*%
X160824200Y-125841600D03*
X158999200Y-125841600D03*
%TD*%
%TO.C,R57*%
X129660500Y-112829700D03*
X127835500Y-112829700D03*
%TD*%
D21*
%TO.C,R80*%
X207815008Y-113465008D03*
X208660000Y-114310000D03*
%TD*%
D20*
%TO.C,R50*%
X132987900Y-111331100D03*
X131162900Y-111331100D03*
%TD*%
%TO.C,R40*%
X160824200Y-98325873D03*
X158999200Y-98325873D03*
%TD*%
%TO.C,R59*%
X132987900Y-124331100D03*
X131162900Y-124331100D03*
%TD*%
%TO.C,R72*%
X85602500Y-137180000D03*
X83777500Y-137180000D03*
%TD*%
%TO.C,R44*%
X94994200Y-99076600D03*
X93169200Y-99076600D03*
%TD*%
%TO.C,R34*%
X112524200Y-86089600D03*
X110699200Y-86089600D03*
%TD*%
%TO.C,R47*%
X132987900Y-99829700D03*
X131162900Y-99829700D03*
%TD*%
%TO.C,R56*%
X132987900Y-112829700D03*
X131162900Y-112829700D03*
%TD*%
%TO.C,R35*%
X94994200Y-86076600D03*
X93169200Y-86076600D03*
%TD*%
%TO.C,R24*%
X129660500Y-72331100D03*
X127835500Y-72331100D03*
%TD*%
%TO.C,R55*%
X160824200Y-112841600D03*
X158999200Y-112841600D03*
%TD*%
D22*
%TO.C,C13*%
X204060160Y-118414520D03*
X205279920Y-119634280D03*
%TD*%
D23*
%TO.C,R90*%
X197680000Y-86667500D03*
X197680000Y-88492500D03*
%TD*%
D24*
%TO.C,R91*%
X195780000Y-88492500D03*
X195780000Y-86667500D03*
%TD*%
D20*
%TO.C,R23*%
X132987900Y-72331100D03*
X131162900Y-72331100D03*
%TD*%
D25*
%TO.C,C3*%
X222150000Y-139945000D03*
X222150000Y-136820000D03*
%TD*%
D20*
%TO.C,R58*%
X160824200Y-124325873D03*
X158999200Y-124325873D03*
%TD*%
%TO.C,R70*%
X112524200Y-138089600D03*
X110699200Y-138089600D03*
%TD*%
%TO.C,R45*%
X85594200Y-99079600D03*
X83769200Y-99079600D03*
%TD*%
D26*
%TO.C,R84*%
X212117500Y-83500000D03*
X213942500Y-83500000D03*
%TD*%
D20*
%TO.C,R31*%
X160824200Y-85325873D03*
X158999200Y-85325873D03*
%TD*%
%TO.C,R71*%
X94995400Y-136828400D03*
X93170400Y-136828400D03*
%TD*%
D26*
%TO.C,R85*%
X214057500Y-85050000D03*
X215882500Y-85050000D03*
%TD*%
D20*
%TO.C,R38*%
X132987900Y-86829700D03*
X131162900Y-86829700D03*
%TD*%
D27*
%TO.C,C17*%
X202206520Y-119963920D03*
X200986760Y-121183680D03*
%TD*%
D20*
%TO.C,R66*%
X129660500Y-125829700D03*
X127835500Y-125829700D03*
%TD*%
%TO.C,R42*%
X129660500Y-98331100D03*
X127835500Y-98331100D03*
%TD*%
D27*
%TO.C,C16*%
X203552720Y-120751320D03*
X202332960Y-121971080D03*
%TD*%
D20*
%TO.C,R53*%
X94994200Y-112076600D03*
X93169200Y-112076600D03*
%TD*%
D28*
%TO.C,D15*%
X223140000Y-103800000D03*
X221240000Y-103800000D03*
X222190000Y-101800000D03*
%TD*%
D20*
%TO.C,R74*%
X132987900Y-138829700D03*
X131162900Y-138829700D03*
%TD*%
D27*
%TO.C,C12*%
X201140000Y-118922240D03*
X199920240Y-120142000D03*
%TD*%
D20*
%TO.C,R39*%
X129660500Y-86829700D03*
X127835500Y-86829700D03*
%TD*%
D29*
%TO.C,F1*%
X214392500Y-68240000D03*
X217367500Y-68240000D03*
%TD*%
D26*
%TO.C,R87*%
X193127500Y-95880000D03*
X194952500Y-95880000D03*
%TD*%
D20*
%TO.C,R69*%
X129660500Y-137331100D03*
X127835500Y-137331100D03*
%TD*%
D30*
%TO.C,C11*%
X208911840Y-118110000D03*
X207186838Y-118110000D03*
%TD*%
D31*
%TO.C,C39*%
X215900000Y-83472500D03*
X215900000Y-81747500D03*
%TD*%
D20*
%TO.C,R65*%
X132987900Y-125829700D03*
X131162900Y-125829700D03*
%TD*%
%TO.C,R30*%
X129660500Y-73829700D03*
X127835500Y-73829700D03*
%TD*%
%TO.C,R28*%
X160824200Y-73841600D03*
X158999200Y-73841600D03*
%TD*%
%TO.C,R36*%
X85594200Y-86079600D03*
X83769200Y-86079600D03*
%TD*%
%TO.C,R37*%
X160824200Y-86841600D03*
X158999200Y-86841600D03*
%TD*%
%TO.C,R62*%
X94994200Y-125076600D03*
X93169200Y-125076600D03*
%TD*%
%TO.C,R25*%
X112524200Y-73089600D03*
X110699200Y-73089600D03*
%TD*%
%TO.C,R63*%
X85594200Y-125079600D03*
X83769200Y-125079600D03*
%TD*%
%TO.C,R33*%
X129660500Y-85331100D03*
X127835500Y-85331100D03*
%TD*%
%TO.C,R61*%
X112524200Y-125089600D03*
X110699200Y-125089600D03*
%TD*%
%TO.C,R27*%
X85594200Y-73079600D03*
X83769200Y-73079600D03*
%TD*%
%TO.C,R52*%
X112524200Y-112089600D03*
X110699200Y-112089600D03*
%TD*%
D26*
%TO.C,R86*%
X193127500Y-97390000D03*
X194952500Y-97390000D03*
%TD*%
D20*
%TO.C,R67*%
X160824200Y-137325873D03*
X158999200Y-137325873D03*
%TD*%
%TO.C,R54*%
X85594200Y-112079600D03*
X83769200Y-112079600D03*
%TD*%
%TO.C,R43*%
X112524200Y-99089600D03*
X110699200Y-99089600D03*
%TD*%
%TO.C,R51*%
X129660500Y-111331100D03*
X127835500Y-111331100D03*
%TD*%
%TO.C,R68*%
X132987900Y-137331100D03*
X131162900Y-137331100D03*
%TD*%
%TO.C,R49*%
X160824200Y-111325873D03*
X158999200Y-111325873D03*
%TD*%
%TO.C,R22*%
X160824200Y-72325873D03*
X158999200Y-72325873D03*
%TD*%
D30*
%TO.C,C14*%
X208910740Y-119634000D03*
X207185740Y-119634000D03*
%TD*%
D20*
%TO.C,R41*%
X132987900Y-98331100D03*
X131162900Y-98331100D03*
%TD*%
G36*
X230028835Y-147201860D02*
G01*
X230030007Y-147204681D01*
X230035000Y-149975994D01*
X230033834Y-149978824D01*
X230031007Y-149980001D01*
X230031000Y-149980001D01*
X70044000Y-149989999D01*
X70041172Y-149988828D01*
X70040000Y-149985999D01*
X70040000Y-147204688D01*
X70041172Y-147201860D01*
X70044000Y-147200688D01*
X230026007Y-147200688D01*
X230028835Y-147201860D01*
G37*
G36*
X230028835Y-49991172D02*
G01*
X230030007Y-49993993D01*
X230035000Y-52765306D01*
X230033834Y-52768136D01*
X230031007Y-52769313D01*
X230031000Y-52769313D01*
X70044000Y-52779311D01*
X70041172Y-52778140D01*
X70040000Y-52775311D01*
X70040000Y-49994000D01*
X70041172Y-49991172D01*
X70044000Y-49990000D01*
X230026007Y-49990000D01*
X230028835Y-49991172D01*
G37*
M02*
