%TF.GenerationSoftware,KiCad,Pcbnew,9.0.4*%
%TF.CreationDate,2026-02-11T17:36:45+01:00*%
%TF.ProjectId,RDE_board,5244455f-626f-4617-9264-2e6b69636164,1.0*%
%TF.SameCoordinates,Original*%
%TF.FileFunction,Legend,Bot*%
%TF.FilePolarity,Positive*%
%FSLAX46Y46*%
G04 Gerber Fmt 4.6, Leading zero omitted, Abs format (unit mm)*
G04 Created by KiCad (PCBNEW 9.0.4) date 2026-02-11 17:36:45*
%MOMM*%
%LPD*%
G01*
G04 APERTURE LIST*
G04 Aperture macros list*
%AMRoundRect*
0 Rectangle with rounded corners*
0 $1 Rounding radius*
0 $2 $3 $4 $5 $6 $7 $8 $9 X,Y pos of 4 corners*
0 Add a 4 corners polygon primitive as box body*
4,1,4,$2,$3,$4,$5,$6,$7,$8,$9,$2,$3,0*
0 Add four circle primitives for the rounded corners*
1,1,$1+$1,$2,$3*
1,1,$1+$1,$4,$5*
1,1,$1+$1,$6,$7*
1,1,$1+$1,$8,$9*
0 Add four rect primitives between the rounded corners*
20,1,$1+$1,$2,$3,$4,$5,0*
20,1,$1+$1,$4,$5,$6,$7,0*
20,1,$1+$1,$6,$7,$8,$9,0*
20,1,$1+$1,$8,$9,$2,$3,0*%
G04 Aperture macros list end*
%ADD10C,0.300000*%
%ADD11C,0.150000*%
%ADD12C,0.254000*%
%ADD13C,0.120000*%
%ADD14C,0.200000*%
%ADD15C,1.650000*%
%ADD16C,2.850000*%
%ADD17RoundRect,0.249999X-0.525001X0.525001X-0.525001X-0.525001X0.525001X-0.525001X0.525001X0.525001X0*%
%ADD18C,1.550000*%
%ADD19C,2.775000*%
%ADD20R,2.775000X2.775000*%
%ADD21C,2.700000*%
%ADD22R,0.850000X0.850000*%
%ADD23C,0.850000*%
%ADD24C,0.990600*%
%ADD25RoundRect,0.237500X0.250000X0.237500X-0.250000X0.237500X-0.250000X-0.237500X0.250000X-0.237500X0*%
%ADD26RoundRect,0.160000X-0.252791X0.026517X0.026517X-0.252791X0.252791X-0.026517X-0.026517X0.252791X0*%
%ADD27RoundRect,0.237500X-0.380070X0.044194X0.044194X-0.380070X0.380070X-0.044194X-0.044194X0.380070X0*%
%ADD28RoundRect,0.237500X-0.237500X0.250000X-0.237500X-0.250000X0.237500X-0.250000X0.237500X0.250000X0*%
%ADD29RoundRect,0.237500X0.237500X-0.250000X0.237500X0.250000X-0.237500X0.250000X-0.237500X-0.250000X0*%
%ADD30RoundRect,0.250000X0.650000X-0.412500X0.650000X0.412500X-0.650000X0.412500X-0.650000X-0.412500X0*%
%ADD31RoundRect,0.237500X-0.250000X-0.237500X0.250000X-0.237500X0.250000X0.237500X-0.250000X0.237500X0*%
%ADD32RoundRect,0.237500X0.044194X0.380070X-0.380070X-0.044194X-0.044194X-0.380070X0.380070X0.044194X0*%
%ADD33R,0.600000X1.250000*%
%ADD34RoundRect,0.250001X-0.462499X-0.624999X0.462499X-0.624999X0.462499X0.624999X-0.462499X0.624999X0*%
%ADD35RoundRect,0.237500X0.300000X0.237500X-0.300000X0.237500X-0.300000X-0.237500X0.300000X-0.237500X0*%
%ADD36RoundRect,0.237500X0.237500X-0.300000X0.237500X0.300000X-0.237500X0.300000X-0.237500X-0.300000X0*%
G04 APERTURE END LIST*
D10*
X80583082Y-54200828D02*
X80583082Y-55272257D01*
X80583082Y-55272257D02*
X80511653Y-55486542D01*
X80511653Y-55486542D02*
X80368796Y-55629400D01*
X80368796Y-55629400D02*
X80154510Y-55700828D01*
X80154510Y-55700828D02*
X80011653Y-55700828D01*
X82011653Y-55700828D02*
X81297367Y-55700828D01*
X81297367Y-55700828D02*
X81297367Y-54200828D01*
X83368796Y-55557971D02*
X83297368Y-55629400D01*
X83297368Y-55629400D02*
X83083082Y-55700828D01*
X83083082Y-55700828D02*
X82940225Y-55700828D01*
X82940225Y-55700828D02*
X82725939Y-55629400D01*
X82725939Y-55629400D02*
X82583082Y-55486542D01*
X82583082Y-55486542D02*
X82511653Y-55343685D01*
X82511653Y-55343685D02*
X82440225Y-55057971D01*
X82440225Y-55057971D02*
X82440225Y-54843685D01*
X82440225Y-54843685D02*
X82511653Y-54557971D01*
X82511653Y-54557971D02*
X82583082Y-54415114D01*
X82583082Y-54415114D02*
X82725939Y-54272257D01*
X82725939Y-54272257D02*
X82940225Y-54200828D01*
X82940225Y-54200828D02*
X83083082Y-54200828D01*
X83083082Y-54200828D02*
X83297368Y-54272257D01*
X83297368Y-54272257D02*
X83368796Y-54343685D01*
X84440225Y-54200828D02*
X84440225Y-55272257D01*
X84440225Y-55272257D02*
X84368796Y-55486542D01*
X84368796Y-55486542D02*
X84225939Y-55629400D01*
X84225939Y-55629400D02*
X84011653Y-55700828D01*
X84011653Y-55700828D02*
X83868796Y-55700828D01*
X85868796Y-55700828D02*
X85154510Y-55700828D01*
X85154510Y-55700828D02*
X85154510Y-54200828D01*
X87225939Y-55557971D02*
X87154511Y-55629400D01*
X87154511Y-55629400D02*
X86940225Y-55700828D01*
X86940225Y-55700828D02*
X86797368Y-55700828D01*
X86797368Y-55700828D02*
X86583082Y-55629400D01*
X86583082Y-55629400D02*
X86440225Y-55486542D01*
X86440225Y-55486542D02*
X86368796Y-55343685D01*
X86368796Y-55343685D02*
X86297368Y-55057971D01*
X86297368Y-55057971D02*
X86297368Y-54843685D01*
X86297368Y-54843685D02*
X86368796Y-54557971D01*
X86368796Y-54557971D02*
X86440225Y-54415114D01*
X86440225Y-54415114D02*
X86583082Y-54272257D01*
X86583082Y-54272257D02*
X86797368Y-54200828D01*
X86797368Y-54200828D02*
X86940225Y-54200828D01*
X86940225Y-54200828D02*
X87154511Y-54272257D01*
X87154511Y-54272257D02*
X87225939Y-54343685D01*
X88297368Y-54200828D02*
X88297368Y-55272257D01*
X88297368Y-55272257D02*
X88225939Y-55486542D01*
X88225939Y-55486542D02*
X88083082Y-55629400D01*
X88083082Y-55629400D02*
X87868796Y-55700828D01*
X87868796Y-55700828D02*
X87725939Y-55700828D01*
X89725939Y-55700828D02*
X89011653Y-55700828D01*
X89011653Y-55700828D02*
X89011653Y-54200828D01*
X91083082Y-55557971D02*
X91011654Y-55629400D01*
X91011654Y-55629400D02*
X90797368Y-55700828D01*
X90797368Y-55700828D02*
X90654511Y-55700828D01*
X90654511Y-55700828D02*
X90440225Y-55629400D01*
X90440225Y-55629400D02*
X90297368Y-55486542D01*
X90297368Y-55486542D02*
X90225939Y-55343685D01*
X90225939Y-55343685D02*
X90154511Y-55057971D01*
X90154511Y-55057971D02*
X90154511Y-54843685D01*
X90154511Y-54843685D02*
X90225939Y-54557971D01*
X90225939Y-54557971D02*
X90297368Y-54415114D01*
X90297368Y-54415114D02*
X90440225Y-54272257D01*
X90440225Y-54272257D02*
X90654511Y-54200828D01*
X90654511Y-54200828D02*
X90797368Y-54200828D01*
X90797368Y-54200828D02*
X91011654Y-54272257D01*
X91011654Y-54272257D02*
X91083082Y-54343685D01*
X92154511Y-54200828D02*
X92154511Y-55272257D01*
X92154511Y-55272257D02*
X92083082Y-55486542D01*
X92083082Y-55486542D02*
X91940225Y-55629400D01*
X91940225Y-55629400D02*
X91725939Y-55700828D01*
X91725939Y-55700828D02*
X91583082Y-55700828D01*
X93583082Y-55700828D02*
X92868796Y-55700828D01*
X92868796Y-55700828D02*
X92868796Y-54200828D01*
X94940225Y-55557971D02*
X94868797Y-55629400D01*
X94868797Y-55629400D02*
X94654511Y-55700828D01*
X94654511Y-55700828D02*
X94511654Y-55700828D01*
X94511654Y-55700828D02*
X94297368Y-55629400D01*
X94297368Y-55629400D02*
X94154511Y-55486542D01*
X94154511Y-55486542D02*
X94083082Y-55343685D01*
X94083082Y-55343685D02*
X94011654Y-55057971D01*
X94011654Y-55057971D02*
X94011654Y-54843685D01*
X94011654Y-54843685D02*
X94083082Y-54557971D01*
X94083082Y-54557971D02*
X94154511Y-54415114D01*
X94154511Y-54415114D02*
X94297368Y-54272257D01*
X94297368Y-54272257D02*
X94511654Y-54200828D01*
X94511654Y-54200828D02*
X94654511Y-54200828D01*
X94654511Y-54200828D02*
X94868797Y-54272257D01*
X94868797Y-54272257D02*
X94940225Y-54343685D01*
D11*
X129390857Y-101681519D02*
X129724190Y-101205328D01*
X129962285Y-101681519D02*
X129962285Y-100681519D01*
X129962285Y-100681519D02*
X129581333Y-100681519D01*
X129581333Y-100681519D02*
X129486095Y-100729138D01*
X129486095Y-100729138D02*
X129438476Y-100776757D01*
X129438476Y-100776757D02*
X129390857Y-100871995D01*
X129390857Y-100871995D02*
X129390857Y-101014852D01*
X129390857Y-101014852D02*
X129438476Y-101110090D01*
X129438476Y-101110090D02*
X129486095Y-101157709D01*
X129486095Y-101157709D02*
X129581333Y-101205328D01*
X129581333Y-101205328D02*
X129962285Y-101205328D01*
X128533714Y-101014852D02*
X128533714Y-101681519D01*
X128771809Y-100633900D02*
X129009904Y-101348185D01*
X129009904Y-101348185D02*
X128390857Y-101348185D01*
X127867047Y-101110090D02*
X127962285Y-101062471D01*
X127962285Y-101062471D02*
X128009904Y-101014852D01*
X128009904Y-101014852D02*
X128057523Y-100919614D01*
X128057523Y-100919614D02*
X128057523Y-100871995D01*
X128057523Y-100871995D02*
X128009904Y-100776757D01*
X128009904Y-100776757D02*
X127962285Y-100729138D01*
X127962285Y-100729138D02*
X127867047Y-100681519D01*
X127867047Y-100681519D02*
X127676571Y-100681519D01*
X127676571Y-100681519D02*
X127581333Y-100729138D01*
X127581333Y-100729138D02*
X127533714Y-100776757D01*
X127533714Y-100776757D02*
X127486095Y-100871995D01*
X127486095Y-100871995D02*
X127486095Y-100919614D01*
X127486095Y-100919614D02*
X127533714Y-101014852D01*
X127533714Y-101014852D02*
X127581333Y-101062471D01*
X127581333Y-101062471D02*
X127676571Y-101110090D01*
X127676571Y-101110090D02*
X127867047Y-101110090D01*
X127867047Y-101110090D02*
X127962285Y-101157709D01*
X127962285Y-101157709D02*
X128009904Y-101205328D01*
X128009904Y-101205328D02*
X128057523Y-101300566D01*
X128057523Y-101300566D02*
X128057523Y-101491042D01*
X128057523Y-101491042D02*
X128009904Y-101586280D01*
X128009904Y-101586280D02*
X127962285Y-101633900D01*
X127962285Y-101633900D02*
X127867047Y-101681519D01*
X127867047Y-101681519D02*
X127676571Y-101681519D01*
X127676571Y-101681519D02*
X127581333Y-101633900D01*
X127581333Y-101633900D02*
X127533714Y-101586280D01*
X127533714Y-101586280D02*
X127486095Y-101491042D01*
X127486095Y-101491042D02*
X127486095Y-101300566D01*
X127486095Y-101300566D02*
X127533714Y-101205328D01*
X127533714Y-101205328D02*
X127581333Y-101157709D01*
X127581333Y-101157709D02*
X127676571Y-101110090D01*
X94724557Y-72101419D02*
X95057890Y-71625228D01*
X95295985Y-72101419D02*
X95295985Y-71101419D01*
X95295985Y-71101419D02*
X94915033Y-71101419D01*
X94915033Y-71101419D02*
X94819795Y-71149038D01*
X94819795Y-71149038D02*
X94772176Y-71196657D01*
X94772176Y-71196657D02*
X94724557Y-71291895D01*
X94724557Y-71291895D02*
X94724557Y-71434752D01*
X94724557Y-71434752D02*
X94772176Y-71529990D01*
X94772176Y-71529990D02*
X94819795Y-71577609D01*
X94819795Y-71577609D02*
X94915033Y-71625228D01*
X94915033Y-71625228D02*
X95295985Y-71625228D01*
X94343604Y-71196657D02*
X94295985Y-71149038D01*
X94295985Y-71149038D02*
X94200747Y-71101419D01*
X94200747Y-71101419D02*
X93962652Y-71101419D01*
X93962652Y-71101419D02*
X93867414Y-71149038D01*
X93867414Y-71149038D02*
X93819795Y-71196657D01*
X93819795Y-71196657D02*
X93772176Y-71291895D01*
X93772176Y-71291895D02*
X93772176Y-71387133D01*
X93772176Y-71387133D02*
X93819795Y-71529990D01*
X93819795Y-71529990D02*
X94391223Y-72101419D01*
X94391223Y-72101419D02*
X93772176Y-72101419D01*
X92915033Y-71101419D02*
X93105509Y-71101419D01*
X93105509Y-71101419D02*
X93200747Y-71149038D01*
X93200747Y-71149038D02*
X93248366Y-71196657D01*
X93248366Y-71196657D02*
X93343604Y-71339514D01*
X93343604Y-71339514D02*
X93391223Y-71529990D01*
X93391223Y-71529990D02*
X93391223Y-71910942D01*
X93391223Y-71910942D02*
X93343604Y-72006180D01*
X93343604Y-72006180D02*
X93295985Y-72053800D01*
X93295985Y-72053800D02*
X93200747Y-72101419D01*
X93200747Y-72101419D02*
X93010271Y-72101419D01*
X93010271Y-72101419D02*
X92915033Y-72053800D01*
X92915033Y-72053800D02*
X92867414Y-72006180D01*
X92867414Y-72006180D02*
X92819795Y-71910942D01*
X92819795Y-71910942D02*
X92819795Y-71672847D01*
X92819795Y-71672847D02*
X92867414Y-71577609D01*
X92867414Y-71577609D02*
X92915033Y-71529990D01*
X92915033Y-71529990D02*
X93010271Y-71482371D01*
X93010271Y-71482371D02*
X93200747Y-71482371D01*
X93200747Y-71482371D02*
X93295985Y-71529990D01*
X93295985Y-71529990D02*
X93343604Y-71577609D01*
X93343604Y-71577609D02*
X93391223Y-71672847D01*
X132718257Y-75706919D02*
X133051590Y-75230728D01*
X133289685Y-75706919D02*
X133289685Y-74706919D01*
X133289685Y-74706919D02*
X132908733Y-74706919D01*
X132908733Y-74706919D02*
X132813495Y-74754538D01*
X132813495Y-74754538D02*
X132765876Y-74802157D01*
X132765876Y-74802157D02*
X132718257Y-74897395D01*
X132718257Y-74897395D02*
X132718257Y-75040252D01*
X132718257Y-75040252D02*
X132765876Y-75135490D01*
X132765876Y-75135490D02*
X132813495Y-75183109D01*
X132813495Y-75183109D02*
X132908733Y-75230728D01*
X132908733Y-75230728D02*
X133289685Y-75230728D01*
X132337304Y-74802157D02*
X132289685Y-74754538D01*
X132289685Y-74754538D02*
X132194447Y-74706919D01*
X132194447Y-74706919D02*
X131956352Y-74706919D01*
X131956352Y-74706919D02*
X131861114Y-74754538D01*
X131861114Y-74754538D02*
X131813495Y-74802157D01*
X131813495Y-74802157D02*
X131765876Y-74897395D01*
X131765876Y-74897395D02*
X131765876Y-74992633D01*
X131765876Y-74992633D02*
X131813495Y-75135490D01*
X131813495Y-75135490D02*
X132384923Y-75706919D01*
X132384923Y-75706919D02*
X131765876Y-75706919D01*
X131289685Y-75706919D02*
X131099209Y-75706919D01*
X131099209Y-75706919D02*
X131003971Y-75659300D01*
X131003971Y-75659300D02*
X130956352Y-75611680D01*
X130956352Y-75611680D02*
X130861114Y-75468823D01*
X130861114Y-75468823D02*
X130813495Y-75278347D01*
X130813495Y-75278347D02*
X130813495Y-74897395D01*
X130813495Y-74897395D02*
X130861114Y-74802157D01*
X130861114Y-74802157D02*
X130908733Y-74754538D01*
X130908733Y-74754538D02*
X131003971Y-74706919D01*
X131003971Y-74706919D02*
X131194447Y-74706919D01*
X131194447Y-74706919D02*
X131289685Y-74754538D01*
X131289685Y-74754538D02*
X131337304Y-74802157D01*
X131337304Y-74802157D02*
X131384923Y-74897395D01*
X131384923Y-74897395D02*
X131384923Y-75135490D01*
X131384923Y-75135490D02*
X131337304Y-75230728D01*
X131337304Y-75230728D02*
X131289685Y-75278347D01*
X131289685Y-75278347D02*
X131194447Y-75325966D01*
X131194447Y-75325966D02*
X131003971Y-75325966D01*
X131003971Y-75325966D02*
X130908733Y-75278347D01*
X130908733Y-75278347D02*
X130861114Y-75230728D01*
X130861114Y-75230728D02*
X130813495Y-75135490D01*
X157023957Y-139296419D02*
X157357290Y-138820228D01*
X157595385Y-139296419D02*
X157595385Y-138296419D01*
X157595385Y-138296419D02*
X157214433Y-138296419D01*
X157214433Y-138296419D02*
X157119195Y-138344038D01*
X157119195Y-138344038D02*
X157071576Y-138391657D01*
X157071576Y-138391657D02*
X157023957Y-138486895D01*
X157023957Y-138486895D02*
X157023957Y-138629752D01*
X157023957Y-138629752D02*
X157071576Y-138724990D01*
X157071576Y-138724990D02*
X157119195Y-138772609D01*
X157119195Y-138772609D02*
X157214433Y-138820228D01*
X157214433Y-138820228D02*
X157595385Y-138820228D01*
X156690623Y-138296419D02*
X156023957Y-138296419D01*
X156023957Y-138296419D02*
X156452528Y-139296419D01*
X155738242Y-138296419D02*
X155119195Y-138296419D01*
X155119195Y-138296419D02*
X155452528Y-138677371D01*
X155452528Y-138677371D02*
X155309671Y-138677371D01*
X155309671Y-138677371D02*
X155214433Y-138724990D01*
X155214433Y-138724990D02*
X155166814Y-138772609D01*
X155166814Y-138772609D02*
X155119195Y-138867847D01*
X155119195Y-138867847D02*
X155119195Y-139105942D01*
X155119195Y-139105942D02*
X155166814Y-139201180D01*
X155166814Y-139201180D02*
X155214433Y-139248800D01*
X155214433Y-139248800D02*
X155309671Y-139296419D01*
X155309671Y-139296419D02*
X155595385Y-139296419D01*
X155595385Y-139296419D02*
X155690623Y-139248800D01*
X155690623Y-139248800D02*
X155738242Y-139201180D01*
X129390857Y-140681519D02*
X129724190Y-140205328D01*
X129962285Y-140681519D02*
X129962285Y-139681519D01*
X129962285Y-139681519D02*
X129581333Y-139681519D01*
X129581333Y-139681519D02*
X129486095Y-139729138D01*
X129486095Y-139729138D02*
X129438476Y-139776757D01*
X129438476Y-139776757D02*
X129390857Y-139871995D01*
X129390857Y-139871995D02*
X129390857Y-140014852D01*
X129390857Y-140014852D02*
X129438476Y-140110090D01*
X129438476Y-140110090D02*
X129486095Y-140157709D01*
X129486095Y-140157709D02*
X129581333Y-140205328D01*
X129581333Y-140205328D02*
X129962285Y-140205328D01*
X129057523Y-139681519D02*
X128390857Y-139681519D01*
X128390857Y-139681519D02*
X128819428Y-140681519D01*
X127533714Y-139681519D02*
X128009904Y-139681519D01*
X128009904Y-139681519D02*
X128057523Y-140157709D01*
X128057523Y-140157709D02*
X128009904Y-140110090D01*
X128009904Y-140110090D02*
X127914666Y-140062471D01*
X127914666Y-140062471D02*
X127676571Y-140062471D01*
X127676571Y-140062471D02*
X127581333Y-140110090D01*
X127581333Y-140110090D02*
X127533714Y-140157709D01*
X127533714Y-140157709D02*
X127486095Y-140252947D01*
X127486095Y-140252947D02*
X127486095Y-140491042D01*
X127486095Y-140491042D02*
X127533714Y-140586280D01*
X127533714Y-140586280D02*
X127581333Y-140633900D01*
X127581333Y-140633900D02*
X127676571Y-140681519D01*
X127676571Y-140681519D02*
X127914666Y-140681519D01*
X127914666Y-140681519D02*
X128009904Y-140633900D01*
X128009904Y-140633900D02*
X128057523Y-140586280D01*
X132718257Y-84355919D02*
X133051590Y-83879728D01*
X133289685Y-84355919D02*
X133289685Y-83355919D01*
X133289685Y-83355919D02*
X132908733Y-83355919D01*
X132908733Y-83355919D02*
X132813495Y-83403538D01*
X132813495Y-83403538D02*
X132765876Y-83451157D01*
X132765876Y-83451157D02*
X132718257Y-83546395D01*
X132718257Y-83546395D02*
X132718257Y-83689252D01*
X132718257Y-83689252D02*
X132765876Y-83784490D01*
X132765876Y-83784490D02*
X132813495Y-83832109D01*
X132813495Y-83832109D02*
X132908733Y-83879728D01*
X132908733Y-83879728D02*
X133289685Y-83879728D01*
X132384923Y-83355919D02*
X131765876Y-83355919D01*
X131765876Y-83355919D02*
X132099209Y-83736871D01*
X132099209Y-83736871D02*
X131956352Y-83736871D01*
X131956352Y-83736871D02*
X131861114Y-83784490D01*
X131861114Y-83784490D02*
X131813495Y-83832109D01*
X131813495Y-83832109D02*
X131765876Y-83927347D01*
X131765876Y-83927347D02*
X131765876Y-84165442D01*
X131765876Y-84165442D02*
X131813495Y-84260680D01*
X131813495Y-84260680D02*
X131861114Y-84308300D01*
X131861114Y-84308300D02*
X131956352Y-84355919D01*
X131956352Y-84355919D02*
X132242066Y-84355919D01*
X132242066Y-84355919D02*
X132337304Y-84308300D01*
X132337304Y-84308300D02*
X132384923Y-84260680D01*
X131384923Y-83451157D02*
X131337304Y-83403538D01*
X131337304Y-83403538D02*
X131242066Y-83355919D01*
X131242066Y-83355919D02*
X131003971Y-83355919D01*
X131003971Y-83355919D02*
X130908733Y-83403538D01*
X130908733Y-83403538D02*
X130861114Y-83451157D01*
X130861114Y-83451157D02*
X130813495Y-83546395D01*
X130813495Y-83546395D02*
X130813495Y-83641633D01*
X130813495Y-83641633D02*
X130861114Y-83784490D01*
X130861114Y-83784490D02*
X131432542Y-84355919D01*
X131432542Y-84355919D02*
X130813495Y-84355919D01*
X157023957Y-100296419D02*
X157357290Y-99820228D01*
X157595385Y-100296419D02*
X157595385Y-99296419D01*
X157595385Y-99296419D02*
X157214433Y-99296419D01*
X157214433Y-99296419D02*
X157119195Y-99344038D01*
X157119195Y-99344038D02*
X157071576Y-99391657D01*
X157071576Y-99391657D02*
X157023957Y-99486895D01*
X157023957Y-99486895D02*
X157023957Y-99629752D01*
X157023957Y-99629752D02*
X157071576Y-99724990D01*
X157071576Y-99724990D02*
X157119195Y-99772609D01*
X157119195Y-99772609D02*
X157214433Y-99820228D01*
X157214433Y-99820228D02*
X157595385Y-99820228D01*
X156166814Y-99629752D02*
X156166814Y-100296419D01*
X156404909Y-99248800D02*
X156643004Y-99963085D01*
X156643004Y-99963085D02*
X156023957Y-99963085D01*
X155214433Y-99296419D02*
X155404909Y-99296419D01*
X155404909Y-99296419D02*
X155500147Y-99344038D01*
X155500147Y-99344038D02*
X155547766Y-99391657D01*
X155547766Y-99391657D02*
X155643004Y-99534514D01*
X155643004Y-99534514D02*
X155690623Y-99724990D01*
X155690623Y-99724990D02*
X155690623Y-100105942D01*
X155690623Y-100105942D02*
X155643004Y-100201180D01*
X155643004Y-100201180D02*
X155595385Y-100248800D01*
X155595385Y-100248800D02*
X155500147Y-100296419D01*
X155500147Y-100296419D02*
X155309671Y-100296419D01*
X155309671Y-100296419D02*
X155214433Y-100248800D01*
X155214433Y-100248800D02*
X155166814Y-100201180D01*
X155166814Y-100201180D02*
X155119195Y-100105942D01*
X155119195Y-100105942D02*
X155119195Y-99867847D01*
X155119195Y-99867847D02*
X155166814Y-99772609D01*
X155166814Y-99772609D02*
X155214433Y-99724990D01*
X155214433Y-99724990D02*
X155309671Y-99677371D01*
X155309671Y-99677371D02*
X155500147Y-99677371D01*
X155500147Y-99677371D02*
X155595385Y-99724990D01*
X155595385Y-99724990D02*
X155643004Y-99772609D01*
X155643004Y-99772609D02*
X155690623Y-99867847D01*
X129390857Y-123355919D02*
X129724190Y-122879728D01*
X129962285Y-123355919D02*
X129962285Y-122355919D01*
X129962285Y-122355919D02*
X129581333Y-122355919D01*
X129581333Y-122355919D02*
X129486095Y-122403538D01*
X129486095Y-122403538D02*
X129438476Y-122451157D01*
X129438476Y-122451157D02*
X129390857Y-122546395D01*
X129390857Y-122546395D02*
X129390857Y-122689252D01*
X129390857Y-122689252D02*
X129438476Y-122784490D01*
X129438476Y-122784490D02*
X129486095Y-122832109D01*
X129486095Y-122832109D02*
X129581333Y-122879728D01*
X129581333Y-122879728D02*
X129962285Y-122879728D01*
X128533714Y-122355919D02*
X128724190Y-122355919D01*
X128724190Y-122355919D02*
X128819428Y-122403538D01*
X128819428Y-122403538D02*
X128867047Y-122451157D01*
X128867047Y-122451157D02*
X128962285Y-122594014D01*
X128962285Y-122594014D02*
X129009904Y-122784490D01*
X129009904Y-122784490D02*
X129009904Y-123165442D01*
X129009904Y-123165442D02*
X128962285Y-123260680D01*
X128962285Y-123260680D02*
X128914666Y-123308300D01*
X128914666Y-123308300D02*
X128819428Y-123355919D01*
X128819428Y-123355919D02*
X128628952Y-123355919D01*
X128628952Y-123355919D02*
X128533714Y-123308300D01*
X128533714Y-123308300D02*
X128486095Y-123260680D01*
X128486095Y-123260680D02*
X128438476Y-123165442D01*
X128438476Y-123165442D02*
X128438476Y-122927347D01*
X128438476Y-122927347D02*
X128486095Y-122832109D01*
X128486095Y-122832109D02*
X128533714Y-122784490D01*
X128533714Y-122784490D02*
X128628952Y-122736871D01*
X128628952Y-122736871D02*
X128819428Y-122736871D01*
X128819428Y-122736871D02*
X128914666Y-122784490D01*
X128914666Y-122784490D02*
X128962285Y-122832109D01*
X128962285Y-122832109D02*
X129009904Y-122927347D01*
X127819428Y-122355919D02*
X127724190Y-122355919D01*
X127724190Y-122355919D02*
X127628952Y-122403538D01*
X127628952Y-122403538D02*
X127581333Y-122451157D01*
X127581333Y-122451157D02*
X127533714Y-122546395D01*
X127533714Y-122546395D02*
X127486095Y-122736871D01*
X127486095Y-122736871D02*
X127486095Y-122974966D01*
X127486095Y-122974966D02*
X127533714Y-123165442D01*
X127533714Y-123165442D02*
X127581333Y-123260680D01*
X127581333Y-123260680D02*
X127628952Y-123308300D01*
X127628952Y-123308300D02*
X127724190Y-123355919D01*
X127724190Y-123355919D02*
X127819428Y-123355919D01*
X127819428Y-123355919D02*
X127914666Y-123308300D01*
X127914666Y-123308300D02*
X127962285Y-123260680D01*
X127962285Y-123260680D02*
X128009904Y-123165442D01*
X128009904Y-123165442D02*
X128057523Y-122974966D01*
X128057523Y-122974966D02*
X128057523Y-122736871D01*
X128057523Y-122736871D02*
X128009904Y-122546395D01*
X128009904Y-122546395D02*
X127962285Y-122451157D01*
X127962285Y-122451157D02*
X127914666Y-122403538D01*
X127914666Y-122403538D02*
X127819428Y-122355919D01*
X157023957Y-126296419D02*
X157357290Y-125820228D01*
X157595385Y-126296419D02*
X157595385Y-125296419D01*
X157595385Y-125296419D02*
X157214433Y-125296419D01*
X157214433Y-125296419D02*
X157119195Y-125344038D01*
X157119195Y-125344038D02*
X157071576Y-125391657D01*
X157071576Y-125391657D02*
X157023957Y-125486895D01*
X157023957Y-125486895D02*
X157023957Y-125629752D01*
X157023957Y-125629752D02*
X157071576Y-125724990D01*
X157071576Y-125724990D02*
X157119195Y-125772609D01*
X157119195Y-125772609D02*
X157214433Y-125820228D01*
X157214433Y-125820228D02*
X157595385Y-125820228D01*
X156166814Y-125296419D02*
X156357290Y-125296419D01*
X156357290Y-125296419D02*
X156452528Y-125344038D01*
X156452528Y-125344038D02*
X156500147Y-125391657D01*
X156500147Y-125391657D02*
X156595385Y-125534514D01*
X156595385Y-125534514D02*
X156643004Y-125724990D01*
X156643004Y-125724990D02*
X156643004Y-126105942D01*
X156643004Y-126105942D02*
X156595385Y-126201180D01*
X156595385Y-126201180D02*
X156547766Y-126248800D01*
X156547766Y-126248800D02*
X156452528Y-126296419D01*
X156452528Y-126296419D02*
X156262052Y-126296419D01*
X156262052Y-126296419D02*
X156166814Y-126248800D01*
X156166814Y-126248800D02*
X156119195Y-126201180D01*
X156119195Y-126201180D02*
X156071576Y-126105942D01*
X156071576Y-126105942D02*
X156071576Y-125867847D01*
X156071576Y-125867847D02*
X156119195Y-125772609D01*
X156119195Y-125772609D02*
X156166814Y-125724990D01*
X156166814Y-125724990D02*
X156262052Y-125677371D01*
X156262052Y-125677371D02*
X156452528Y-125677371D01*
X156452528Y-125677371D02*
X156547766Y-125724990D01*
X156547766Y-125724990D02*
X156595385Y-125772609D01*
X156595385Y-125772609D02*
X156643004Y-125867847D01*
X155214433Y-125629752D02*
X155214433Y-126296419D01*
X155452528Y-125248800D02*
X155690623Y-125963085D01*
X155690623Y-125963085D02*
X155071576Y-125963085D01*
X129390857Y-114681519D02*
X129724190Y-114205328D01*
X129962285Y-114681519D02*
X129962285Y-113681519D01*
X129962285Y-113681519D02*
X129581333Y-113681519D01*
X129581333Y-113681519D02*
X129486095Y-113729138D01*
X129486095Y-113729138D02*
X129438476Y-113776757D01*
X129438476Y-113776757D02*
X129390857Y-113871995D01*
X129390857Y-113871995D02*
X129390857Y-114014852D01*
X129390857Y-114014852D02*
X129438476Y-114110090D01*
X129438476Y-114110090D02*
X129486095Y-114157709D01*
X129486095Y-114157709D02*
X129581333Y-114205328D01*
X129581333Y-114205328D02*
X129962285Y-114205328D01*
X128486095Y-113681519D02*
X128962285Y-113681519D01*
X128962285Y-113681519D02*
X129009904Y-114157709D01*
X129009904Y-114157709D02*
X128962285Y-114110090D01*
X128962285Y-114110090D02*
X128867047Y-114062471D01*
X128867047Y-114062471D02*
X128628952Y-114062471D01*
X128628952Y-114062471D02*
X128533714Y-114110090D01*
X128533714Y-114110090D02*
X128486095Y-114157709D01*
X128486095Y-114157709D02*
X128438476Y-114252947D01*
X128438476Y-114252947D02*
X128438476Y-114491042D01*
X128438476Y-114491042D02*
X128486095Y-114586280D01*
X128486095Y-114586280D02*
X128533714Y-114633900D01*
X128533714Y-114633900D02*
X128628952Y-114681519D01*
X128628952Y-114681519D02*
X128867047Y-114681519D01*
X128867047Y-114681519D02*
X128962285Y-114633900D01*
X128962285Y-114633900D02*
X129009904Y-114586280D01*
X128105142Y-113681519D02*
X127438476Y-113681519D01*
X127438476Y-113681519D02*
X127867047Y-114681519D01*
X208968603Y-113704574D02*
X209541022Y-113603559D01*
X209372664Y-114108635D02*
X210079770Y-113401528D01*
X210079770Y-113401528D02*
X209810396Y-113132154D01*
X209810396Y-113132154D02*
X209709381Y-113098482D01*
X209709381Y-113098482D02*
X209642038Y-113098482D01*
X209642038Y-113098482D02*
X209541022Y-113132154D01*
X209541022Y-113132154D02*
X209440007Y-113233169D01*
X209440007Y-113233169D02*
X209406335Y-113334185D01*
X209406335Y-113334185D02*
X209406335Y-113401528D01*
X209406335Y-113401528D02*
X209440007Y-113502543D01*
X209440007Y-113502543D02*
X209709381Y-113771917D01*
X208968603Y-112896452D02*
X209069618Y-112930124D01*
X209069618Y-112930124D02*
X209136961Y-112930124D01*
X209136961Y-112930124D02*
X209237977Y-112896452D01*
X209237977Y-112896452D02*
X209271648Y-112862780D01*
X209271648Y-112862780D02*
X209305320Y-112761765D01*
X209305320Y-112761765D02*
X209305320Y-112694421D01*
X209305320Y-112694421D02*
X209271648Y-112593406D01*
X209271648Y-112593406D02*
X209136961Y-112458719D01*
X209136961Y-112458719D02*
X209035946Y-112425047D01*
X209035946Y-112425047D02*
X208968603Y-112425047D01*
X208968603Y-112425047D02*
X208867587Y-112458719D01*
X208867587Y-112458719D02*
X208833916Y-112492391D01*
X208833916Y-112492391D02*
X208800244Y-112593406D01*
X208800244Y-112593406D02*
X208800244Y-112660750D01*
X208800244Y-112660750D02*
X208833916Y-112761765D01*
X208833916Y-112761765D02*
X208968603Y-112896452D01*
X208968603Y-112896452D02*
X209002274Y-112997467D01*
X209002274Y-112997467D02*
X209002274Y-113064811D01*
X209002274Y-113064811D02*
X208968603Y-113165826D01*
X208968603Y-113165826D02*
X208833916Y-113300513D01*
X208833916Y-113300513D02*
X208732900Y-113334185D01*
X208732900Y-113334185D02*
X208665557Y-113334185D01*
X208665557Y-113334185D02*
X208564542Y-113300513D01*
X208564542Y-113300513D02*
X208429855Y-113165826D01*
X208429855Y-113165826D02*
X208396183Y-113064811D01*
X208396183Y-113064811D02*
X208396183Y-112997467D01*
X208396183Y-112997467D02*
X208429855Y-112896452D01*
X208429855Y-112896452D02*
X208564542Y-112761765D01*
X208564542Y-112761765D02*
X208665557Y-112728093D01*
X208665557Y-112728093D02*
X208732900Y-112728093D01*
X208732900Y-112728093D02*
X208833916Y-112761765D01*
X208564541Y-111886299D02*
X208497198Y-111818956D01*
X208497198Y-111818956D02*
X208396183Y-111785284D01*
X208396183Y-111785284D02*
X208328839Y-111785284D01*
X208328839Y-111785284D02*
X208227824Y-111818956D01*
X208227824Y-111818956D02*
X208059465Y-111919971D01*
X208059465Y-111919971D02*
X207891106Y-112088330D01*
X207891106Y-112088330D02*
X207790091Y-112256688D01*
X207790091Y-112256688D02*
X207756419Y-112357704D01*
X207756419Y-112357704D02*
X207756419Y-112425047D01*
X207756419Y-112425047D02*
X207790091Y-112526062D01*
X207790091Y-112526062D02*
X207857435Y-112593406D01*
X207857435Y-112593406D02*
X207958450Y-112627078D01*
X207958450Y-112627078D02*
X208025793Y-112627078D01*
X208025793Y-112627078D02*
X208126809Y-112593406D01*
X208126809Y-112593406D02*
X208295167Y-112492391D01*
X208295167Y-112492391D02*
X208463526Y-112324032D01*
X208463526Y-112324032D02*
X208564541Y-112155673D01*
X208564541Y-112155673D02*
X208598213Y-112054658D01*
X208598213Y-112054658D02*
X208598213Y-111987314D01*
X208598213Y-111987314D02*
X208564541Y-111886299D01*
X132718257Y-110355919D02*
X133051590Y-109879728D01*
X133289685Y-110355919D02*
X133289685Y-109355919D01*
X133289685Y-109355919D02*
X132908733Y-109355919D01*
X132908733Y-109355919D02*
X132813495Y-109403538D01*
X132813495Y-109403538D02*
X132765876Y-109451157D01*
X132765876Y-109451157D02*
X132718257Y-109546395D01*
X132718257Y-109546395D02*
X132718257Y-109689252D01*
X132718257Y-109689252D02*
X132765876Y-109784490D01*
X132765876Y-109784490D02*
X132813495Y-109832109D01*
X132813495Y-109832109D02*
X132908733Y-109879728D01*
X132908733Y-109879728D02*
X133289685Y-109879728D01*
X131813495Y-109355919D02*
X132289685Y-109355919D01*
X132289685Y-109355919D02*
X132337304Y-109832109D01*
X132337304Y-109832109D02*
X132289685Y-109784490D01*
X132289685Y-109784490D02*
X132194447Y-109736871D01*
X132194447Y-109736871D02*
X131956352Y-109736871D01*
X131956352Y-109736871D02*
X131861114Y-109784490D01*
X131861114Y-109784490D02*
X131813495Y-109832109D01*
X131813495Y-109832109D02*
X131765876Y-109927347D01*
X131765876Y-109927347D02*
X131765876Y-110165442D01*
X131765876Y-110165442D02*
X131813495Y-110260680D01*
X131813495Y-110260680D02*
X131861114Y-110308300D01*
X131861114Y-110308300D02*
X131956352Y-110355919D01*
X131956352Y-110355919D02*
X132194447Y-110355919D01*
X132194447Y-110355919D02*
X132289685Y-110308300D01*
X132289685Y-110308300D02*
X132337304Y-110260680D01*
X131146828Y-109355919D02*
X131051590Y-109355919D01*
X131051590Y-109355919D02*
X130956352Y-109403538D01*
X130956352Y-109403538D02*
X130908733Y-109451157D01*
X130908733Y-109451157D02*
X130861114Y-109546395D01*
X130861114Y-109546395D02*
X130813495Y-109736871D01*
X130813495Y-109736871D02*
X130813495Y-109974966D01*
X130813495Y-109974966D02*
X130861114Y-110165442D01*
X130861114Y-110165442D02*
X130908733Y-110260680D01*
X130908733Y-110260680D02*
X130956352Y-110308300D01*
X130956352Y-110308300D02*
X131051590Y-110355919D01*
X131051590Y-110355919D02*
X131146828Y-110355919D01*
X131146828Y-110355919D02*
X131242066Y-110308300D01*
X131242066Y-110308300D02*
X131289685Y-110260680D01*
X131289685Y-110260680D02*
X131337304Y-110165442D01*
X131337304Y-110165442D02*
X131384923Y-109974966D01*
X131384923Y-109974966D02*
X131384923Y-109736871D01*
X131384923Y-109736871D02*
X131337304Y-109546395D01*
X131337304Y-109546395D02*
X131289685Y-109451157D01*
X131289685Y-109451157D02*
X131242066Y-109403538D01*
X131242066Y-109403538D02*
X131146828Y-109355919D01*
X157023957Y-98772419D02*
X157357290Y-98296228D01*
X157595385Y-98772419D02*
X157595385Y-97772419D01*
X157595385Y-97772419D02*
X157214433Y-97772419D01*
X157214433Y-97772419D02*
X157119195Y-97820038D01*
X157119195Y-97820038D02*
X157071576Y-97867657D01*
X157071576Y-97867657D02*
X157023957Y-97962895D01*
X157023957Y-97962895D02*
X157023957Y-98105752D01*
X157023957Y-98105752D02*
X157071576Y-98200990D01*
X157071576Y-98200990D02*
X157119195Y-98248609D01*
X157119195Y-98248609D02*
X157214433Y-98296228D01*
X157214433Y-98296228D02*
X157595385Y-98296228D01*
X156166814Y-98105752D02*
X156166814Y-98772419D01*
X156404909Y-97724800D02*
X156643004Y-98439085D01*
X156643004Y-98439085D02*
X156023957Y-98439085D01*
X155452528Y-97772419D02*
X155357290Y-97772419D01*
X155357290Y-97772419D02*
X155262052Y-97820038D01*
X155262052Y-97820038D02*
X155214433Y-97867657D01*
X155214433Y-97867657D02*
X155166814Y-97962895D01*
X155166814Y-97962895D02*
X155119195Y-98153371D01*
X155119195Y-98153371D02*
X155119195Y-98391466D01*
X155119195Y-98391466D02*
X155166814Y-98581942D01*
X155166814Y-98581942D02*
X155214433Y-98677180D01*
X155214433Y-98677180D02*
X155262052Y-98724800D01*
X155262052Y-98724800D02*
X155357290Y-98772419D01*
X155357290Y-98772419D02*
X155452528Y-98772419D01*
X155452528Y-98772419D02*
X155547766Y-98724800D01*
X155547766Y-98724800D02*
X155595385Y-98677180D01*
X155595385Y-98677180D02*
X155643004Y-98581942D01*
X155643004Y-98581942D02*
X155690623Y-98391466D01*
X155690623Y-98391466D02*
X155690623Y-98153371D01*
X155690623Y-98153371D02*
X155643004Y-97962895D01*
X155643004Y-97962895D02*
X155595385Y-97867657D01*
X155595385Y-97867657D02*
X155547766Y-97820038D01*
X155547766Y-97820038D02*
X155452528Y-97772419D01*
X132718257Y-123355919D02*
X133051590Y-122879728D01*
X133289685Y-123355919D02*
X133289685Y-122355919D01*
X133289685Y-122355919D02*
X132908733Y-122355919D01*
X132908733Y-122355919D02*
X132813495Y-122403538D01*
X132813495Y-122403538D02*
X132765876Y-122451157D01*
X132765876Y-122451157D02*
X132718257Y-122546395D01*
X132718257Y-122546395D02*
X132718257Y-122689252D01*
X132718257Y-122689252D02*
X132765876Y-122784490D01*
X132765876Y-122784490D02*
X132813495Y-122832109D01*
X132813495Y-122832109D02*
X132908733Y-122879728D01*
X132908733Y-122879728D02*
X133289685Y-122879728D01*
X131813495Y-122355919D02*
X132289685Y-122355919D01*
X132289685Y-122355919D02*
X132337304Y-122832109D01*
X132337304Y-122832109D02*
X132289685Y-122784490D01*
X132289685Y-122784490D02*
X132194447Y-122736871D01*
X132194447Y-122736871D02*
X131956352Y-122736871D01*
X131956352Y-122736871D02*
X131861114Y-122784490D01*
X131861114Y-122784490D02*
X131813495Y-122832109D01*
X131813495Y-122832109D02*
X131765876Y-122927347D01*
X131765876Y-122927347D02*
X131765876Y-123165442D01*
X131765876Y-123165442D02*
X131813495Y-123260680D01*
X131813495Y-123260680D02*
X131861114Y-123308300D01*
X131861114Y-123308300D02*
X131956352Y-123355919D01*
X131956352Y-123355919D02*
X132194447Y-123355919D01*
X132194447Y-123355919D02*
X132289685Y-123308300D01*
X132289685Y-123308300D02*
X132337304Y-123260680D01*
X131289685Y-123355919D02*
X131099209Y-123355919D01*
X131099209Y-123355919D02*
X131003971Y-123308300D01*
X131003971Y-123308300D02*
X130956352Y-123260680D01*
X130956352Y-123260680D02*
X130861114Y-123117823D01*
X130861114Y-123117823D02*
X130813495Y-122927347D01*
X130813495Y-122927347D02*
X130813495Y-122546395D01*
X130813495Y-122546395D02*
X130861114Y-122451157D01*
X130861114Y-122451157D02*
X130908733Y-122403538D01*
X130908733Y-122403538D02*
X131003971Y-122355919D01*
X131003971Y-122355919D02*
X131194447Y-122355919D01*
X131194447Y-122355919D02*
X131289685Y-122403538D01*
X131289685Y-122403538D02*
X131337304Y-122451157D01*
X131337304Y-122451157D02*
X131384923Y-122546395D01*
X131384923Y-122546395D02*
X131384923Y-122784490D01*
X131384923Y-122784490D02*
X131337304Y-122879728D01*
X131337304Y-122879728D02*
X131289685Y-122927347D01*
X131289685Y-122927347D02*
X131194447Y-122974966D01*
X131194447Y-122974966D02*
X131003971Y-122974966D01*
X131003971Y-122974966D02*
X130908733Y-122927347D01*
X130908733Y-122927347D02*
X130861114Y-122879728D01*
X130861114Y-122879728D02*
X130813495Y-122784490D01*
X85332857Y-136204819D02*
X85666190Y-135728628D01*
X85904285Y-136204819D02*
X85904285Y-135204819D01*
X85904285Y-135204819D02*
X85523333Y-135204819D01*
X85523333Y-135204819D02*
X85428095Y-135252438D01*
X85428095Y-135252438D02*
X85380476Y-135300057D01*
X85380476Y-135300057D02*
X85332857Y-135395295D01*
X85332857Y-135395295D02*
X85332857Y-135538152D01*
X85332857Y-135538152D02*
X85380476Y-135633390D01*
X85380476Y-135633390D02*
X85428095Y-135681009D01*
X85428095Y-135681009D02*
X85523333Y-135728628D01*
X85523333Y-135728628D02*
X85904285Y-135728628D01*
X84999523Y-135204819D02*
X84332857Y-135204819D01*
X84332857Y-135204819D02*
X84761428Y-136204819D01*
X83999523Y-135300057D02*
X83951904Y-135252438D01*
X83951904Y-135252438D02*
X83856666Y-135204819D01*
X83856666Y-135204819D02*
X83618571Y-135204819D01*
X83618571Y-135204819D02*
X83523333Y-135252438D01*
X83523333Y-135252438D02*
X83475714Y-135300057D01*
X83475714Y-135300057D02*
X83428095Y-135395295D01*
X83428095Y-135395295D02*
X83428095Y-135490533D01*
X83428095Y-135490533D02*
X83475714Y-135633390D01*
X83475714Y-135633390D02*
X84047142Y-136204819D01*
X84047142Y-136204819D02*
X83428095Y-136204819D01*
X94724557Y-98101419D02*
X95057890Y-97625228D01*
X95295985Y-98101419D02*
X95295985Y-97101419D01*
X95295985Y-97101419D02*
X94915033Y-97101419D01*
X94915033Y-97101419D02*
X94819795Y-97149038D01*
X94819795Y-97149038D02*
X94772176Y-97196657D01*
X94772176Y-97196657D02*
X94724557Y-97291895D01*
X94724557Y-97291895D02*
X94724557Y-97434752D01*
X94724557Y-97434752D02*
X94772176Y-97529990D01*
X94772176Y-97529990D02*
X94819795Y-97577609D01*
X94819795Y-97577609D02*
X94915033Y-97625228D01*
X94915033Y-97625228D02*
X95295985Y-97625228D01*
X93867414Y-97434752D02*
X93867414Y-98101419D01*
X94105509Y-97053800D02*
X94343604Y-97768085D01*
X94343604Y-97768085D02*
X93724557Y-97768085D01*
X92915033Y-97434752D02*
X92915033Y-98101419D01*
X93153128Y-97053800D02*
X93391223Y-97768085D01*
X93391223Y-97768085D02*
X92772176Y-97768085D01*
X112254557Y-85114419D02*
X112587890Y-84638228D01*
X112825985Y-85114419D02*
X112825985Y-84114419D01*
X112825985Y-84114419D02*
X112445033Y-84114419D01*
X112445033Y-84114419D02*
X112349795Y-84162038D01*
X112349795Y-84162038D02*
X112302176Y-84209657D01*
X112302176Y-84209657D02*
X112254557Y-84304895D01*
X112254557Y-84304895D02*
X112254557Y-84447752D01*
X112254557Y-84447752D02*
X112302176Y-84542990D01*
X112302176Y-84542990D02*
X112349795Y-84590609D01*
X112349795Y-84590609D02*
X112445033Y-84638228D01*
X112445033Y-84638228D02*
X112825985Y-84638228D01*
X111921223Y-84114419D02*
X111302176Y-84114419D01*
X111302176Y-84114419D02*
X111635509Y-84495371D01*
X111635509Y-84495371D02*
X111492652Y-84495371D01*
X111492652Y-84495371D02*
X111397414Y-84542990D01*
X111397414Y-84542990D02*
X111349795Y-84590609D01*
X111349795Y-84590609D02*
X111302176Y-84685847D01*
X111302176Y-84685847D02*
X111302176Y-84923942D01*
X111302176Y-84923942D02*
X111349795Y-85019180D01*
X111349795Y-85019180D02*
X111397414Y-85066800D01*
X111397414Y-85066800D02*
X111492652Y-85114419D01*
X111492652Y-85114419D02*
X111778366Y-85114419D01*
X111778366Y-85114419D02*
X111873604Y-85066800D01*
X111873604Y-85066800D02*
X111921223Y-85019180D01*
X110445033Y-84447752D02*
X110445033Y-85114419D01*
X110683128Y-84066800D02*
X110921223Y-84781085D01*
X110921223Y-84781085D02*
X110302176Y-84781085D01*
X132718257Y-101706919D02*
X133051590Y-101230728D01*
X133289685Y-101706919D02*
X133289685Y-100706919D01*
X133289685Y-100706919D02*
X132908733Y-100706919D01*
X132908733Y-100706919D02*
X132813495Y-100754538D01*
X132813495Y-100754538D02*
X132765876Y-100802157D01*
X132765876Y-100802157D02*
X132718257Y-100897395D01*
X132718257Y-100897395D02*
X132718257Y-101040252D01*
X132718257Y-101040252D02*
X132765876Y-101135490D01*
X132765876Y-101135490D02*
X132813495Y-101183109D01*
X132813495Y-101183109D02*
X132908733Y-101230728D01*
X132908733Y-101230728D02*
X133289685Y-101230728D01*
X131861114Y-101040252D02*
X131861114Y-101706919D01*
X132099209Y-100659300D02*
X132337304Y-101373585D01*
X132337304Y-101373585D02*
X131718257Y-101373585D01*
X131432542Y-100706919D02*
X130765876Y-100706919D01*
X130765876Y-100706919D02*
X131194447Y-101706919D01*
X132718257Y-114706919D02*
X133051590Y-114230728D01*
X133289685Y-114706919D02*
X133289685Y-113706919D01*
X133289685Y-113706919D02*
X132908733Y-113706919D01*
X132908733Y-113706919D02*
X132813495Y-113754538D01*
X132813495Y-113754538D02*
X132765876Y-113802157D01*
X132765876Y-113802157D02*
X132718257Y-113897395D01*
X132718257Y-113897395D02*
X132718257Y-114040252D01*
X132718257Y-114040252D02*
X132765876Y-114135490D01*
X132765876Y-114135490D02*
X132813495Y-114183109D01*
X132813495Y-114183109D02*
X132908733Y-114230728D01*
X132908733Y-114230728D02*
X133289685Y-114230728D01*
X131813495Y-113706919D02*
X132289685Y-113706919D01*
X132289685Y-113706919D02*
X132337304Y-114183109D01*
X132337304Y-114183109D02*
X132289685Y-114135490D01*
X132289685Y-114135490D02*
X132194447Y-114087871D01*
X132194447Y-114087871D02*
X131956352Y-114087871D01*
X131956352Y-114087871D02*
X131861114Y-114135490D01*
X131861114Y-114135490D02*
X131813495Y-114183109D01*
X131813495Y-114183109D02*
X131765876Y-114278347D01*
X131765876Y-114278347D02*
X131765876Y-114516442D01*
X131765876Y-114516442D02*
X131813495Y-114611680D01*
X131813495Y-114611680D02*
X131861114Y-114659300D01*
X131861114Y-114659300D02*
X131956352Y-114706919D01*
X131956352Y-114706919D02*
X132194447Y-114706919D01*
X132194447Y-114706919D02*
X132289685Y-114659300D01*
X132289685Y-114659300D02*
X132337304Y-114611680D01*
X130908733Y-113706919D02*
X131099209Y-113706919D01*
X131099209Y-113706919D02*
X131194447Y-113754538D01*
X131194447Y-113754538D02*
X131242066Y-113802157D01*
X131242066Y-113802157D02*
X131337304Y-113945014D01*
X131337304Y-113945014D02*
X131384923Y-114135490D01*
X131384923Y-114135490D02*
X131384923Y-114516442D01*
X131384923Y-114516442D02*
X131337304Y-114611680D01*
X131337304Y-114611680D02*
X131289685Y-114659300D01*
X131289685Y-114659300D02*
X131194447Y-114706919D01*
X131194447Y-114706919D02*
X131003971Y-114706919D01*
X131003971Y-114706919D02*
X130908733Y-114659300D01*
X130908733Y-114659300D02*
X130861114Y-114611680D01*
X130861114Y-114611680D02*
X130813495Y-114516442D01*
X130813495Y-114516442D02*
X130813495Y-114278347D01*
X130813495Y-114278347D02*
X130861114Y-114183109D01*
X130861114Y-114183109D02*
X130908733Y-114135490D01*
X130908733Y-114135490D02*
X131003971Y-114087871D01*
X131003971Y-114087871D02*
X131194447Y-114087871D01*
X131194447Y-114087871D02*
X131289685Y-114135490D01*
X131289685Y-114135490D02*
X131337304Y-114183109D01*
X131337304Y-114183109D02*
X131384923Y-114278347D01*
X94724557Y-85101419D02*
X95057890Y-84625228D01*
X95295985Y-85101419D02*
X95295985Y-84101419D01*
X95295985Y-84101419D02*
X94915033Y-84101419D01*
X94915033Y-84101419D02*
X94819795Y-84149038D01*
X94819795Y-84149038D02*
X94772176Y-84196657D01*
X94772176Y-84196657D02*
X94724557Y-84291895D01*
X94724557Y-84291895D02*
X94724557Y-84434752D01*
X94724557Y-84434752D02*
X94772176Y-84529990D01*
X94772176Y-84529990D02*
X94819795Y-84577609D01*
X94819795Y-84577609D02*
X94915033Y-84625228D01*
X94915033Y-84625228D02*
X95295985Y-84625228D01*
X94391223Y-84101419D02*
X93772176Y-84101419D01*
X93772176Y-84101419D02*
X94105509Y-84482371D01*
X94105509Y-84482371D02*
X93962652Y-84482371D01*
X93962652Y-84482371D02*
X93867414Y-84529990D01*
X93867414Y-84529990D02*
X93819795Y-84577609D01*
X93819795Y-84577609D02*
X93772176Y-84672847D01*
X93772176Y-84672847D02*
X93772176Y-84910942D01*
X93772176Y-84910942D02*
X93819795Y-85006180D01*
X93819795Y-85006180D02*
X93867414Y-85053800D01*
X93867414Y-85053800D02*
X93962652Y-85101419D01*
X93962652Y-85101419D02*
X94248366Y-85101419D01*
X94248366Y-85101419D02*
X94343604Y-85053800D01*
X94343604Y-85053800D02*
X94391223Y-85006180D01*
X92867414Y-84101419D02*
X93343604Y-84101419D01*
X93343604Y-84101419D02*
X93391223Y-84577609D01*
X93391223Y-84577609D02*
X93343604Y-84529990D01*
X93343604Y-84529990D02*
X93248366Y-84482371D01*
X93248366Y-84482371D02*
X93010271Y-84482371D01*
X93010271Y-84482371D02*
X92915033Y-84529990D01*
X92915033Y-84529990D02*
X92867414Y-84577609D01*
X92867414Y-84577609D02*
X92819795Y-84672847D01*
X92819795Y-84672847D02*
X92819795Y-84910942D01*
X92819795Y-84910942D02*
X92867414Y-85006180D01*
X92867414Y-85006180D02*
X92915033Y-85053800D01*
X92915033Y-85053800D02*
X93010271Y-85101419D01*
X93010271Y-85101419D02*
X93248366Y-85101419D01*
X93248366Y-85101419D02*
X93343604Y-85053800D01*
X93343604Y-85053800D02*
X93391223Y-85006180D01*
X129390857Y-71355919D02*
X129724190Y-70879728D01*
X129962285Y-71355919D02*
X129962285Y-70355919D01*
X129962285Y-70355919D02*
X129581333Y-70355919D01*
X129581333Y-70355919D02*
X129486095Y-70403538D01*
X129486095Y-70403538D02*
X129438476Y-70451157D01*
X129438476Y-70451157D02*
X129390857Y-70546395D01*
X129390857Y-70546395D02*
X129390857Y-70689252D01*
X129390857Y-70689252D02*
X129438476Y-70784490D01*
X129438476Y-70784490D02*
X129486095Y-70832109D01*
X129486095Y-70832109D02*
X129581333Y-70879728D01*
X129581333Y-70879728D02*
X129962285Y-70879728D01*
X129009904Y-70451157D02*
X128962285Y-70403538D01*
X128962285Y-70403538D02*
X128867047Y-70355919D01*
X128867047Y-70355919D02*
X128628952Y-70355919D01*
X128628952Y-70355919D02*
X128533714Y-70403538D01*
X128533714Y-70403538D02*
X128486095Y-70451157D01*
X128486095Y-70451157D02*
X128438476Y-70546395D01*
X128438476Y-70546395D02*
X128438476Y-70641633D01*
X128438476Y-70641633D02*
X128486095Y-70784490D01*
X128486095Y-70784490D02*
X129057523Y-71355919D01*
X129057523Y-71355919D02*
X128438476Y-71355919D01*
X127581333Y-70689252D02*
X127581333Y-71355919D01*
X127819428Y-70308300D02*
X128057523Y-71022585D01*
X128057523Y-71022585D02*
X127438476Y-71022585D01*
X157023957Y-113296419D02*
X157357290Y-112820228D01*
X157595385Y-113296419D02*
X157595385Y-112296419D01*
X157595385Y-112296419D02*
X157214433Y-112296419D01*
X157214433Y-112296419D02*
X157119195Y-112344038D01*
X157119195Y-112344038D02*
X157071576Y-112391657D01*
X157071576Y-112391657D02*
X157023957Y-112486895D01*
X157023957Y-112486895D02*
X157023957Y-112629752D01*
X157023957Y-112629752D02*
X157071576Y-112724990D01*
X157071576Y-112724990D02*
X157119195Y-112772609D01*
X157119195Y-112772609D02*
X157214433Y-112820228D01*
X157214433Y-112820228D02*
X157595385Y-112820228D01*
X156119195Y-112296419D02*
X156595385Y-112296419D01*
X156595385Y-112296419D02*
X156643004Y-112772609D01*
X156643004Y-112772609D02*
X156595385Y-112724990D01*
X156595385Y-112724990D02*
X156500147Y-112677371D01*
X156500147Y-112677371D02*
X156262052Y-112677371D01*
X156262052Y-112677371D02*
X156166814Y-112724990D01*
X156166814Y-112724990D02*
X156119195Y-112772609D01*
X156119195Y-112772609D02*
X156071576Y-112867847D01*
X156071576Y-112867847D02*
X156071576Y-113105942D01*
X156071576Y-113105942D02*
X156119195Y-113201180D01*
X156119195Y-113201180D02*
X156166814Y-113248800D01*
X156166814Y-113248800D02*
X156262052Y-113296419D01*
X156262052Y-113296419D02*
X156500147Y-113296419D01*
X156500147Y-113296419D02*
X156595385Y-113248800D01*
X156595385Y-113248800D02*
X156643004Y-113201180D01*
X155166814Y-112296419D02*
X155643004Y-112296419D01*
X155643004Y-112296419D02*
X155690623Y-112772609D01*
X155690623Y-112772609D02*
X155643004Y-112724990D01*
X155643004Y-112724990D02*
X155547766Y-112677371D01*
X155547766Y-112677371D02*
X155309671Y-112677371D01*
X155309671Y-112677371D02*
X155214433Y-112724990D01*
X155214433Y-112724990D02*
X155166814Y-112772609D01*
X155166814Y-112772609D02*
X155119195Y-112867847D01*
X155119195Y-112867847D02*
X155119195Y-113105942D01*
X155119195Y-113105942D02*
X155166814Y-113201180D01*
X155166814Y-113201180D02*
X155214433Y-113248800D01*
X155214433Y-113248800D02*
X155309671Y-113296419D01*
X155309671Y-113296419D02*
X155547766Y-113296419D01*
X155547766Y-113296419D02*
X155643004Y-113248800D01*
X155643004Y-113248800D02*
X155690623Y-113201180D01*
X205160306Y-118078830D02*
X205160306Y-118146174D01*
X205160306Y-118146174D02*
X205227650Y-118280861D01*
X205227650Y-118280861D02*
X205294993Y-118348204D01*
X205294993Y-118348204D02*
X205429680Y-118415548D01*
X205429680Y-118415548D02*
X205564367Y-118415548D01*
X205564367Y-118415548D02*
X205665382Y-118381876D01*
X205665382Y-118381876D02*
X205833741Y-118280861D01*
X205833741Y-118280861D02*
X205934756Y-118179846D01*
X205934756Y-118179846D02*
X206035772Y-118011487D01*
X206035772Y-118011487D02*
X206069443Y-117910472D01*
X206069443Y-117910472D02*
X206069443Y-117775785D01*
X206069443Y-117775785D02*
X206002100Y-117641098D01*
X206002100Y-117641098D02*
X205934756Y-117573754D01*
X205934756Y-117573754D02*
X205800069Y-117506411D01*
X205800069Y-117506411D02*
X205732726Y-117506411D01*
X204419528Y-117472739D02*
X204823589Y-117876800D01*
X204621558Y-117674769D02*
X205328665Y-116967663D01*
X205328665Y-116967663D02*
X205294993Y-117136021D01*
X205294993Y-117136021D02*
X205294993Y-117270708D01*
X205294993Y-117270708D02*
X205328665Y-117371724D01*
X204890932Y-116529930D02*
X204453199Y-116092197D01*
X204453199Y-116092197D02*
X204419527Y-116597273D01*
X204419527Y-116597273D02*
X204318512Y-116496258D01*
X204318512Y-116496258D02*
X204217497Y-116462586D01*
X204217497Y-116462586D02*
X204150153Y-116462586D01*
X204150153Y-116462586D02*
X204049138Y-116496258D01*
X204049138Y-116496258D02*
X203880779Y-116664617D01*
X203880779Y-116664617D02*
X203847108Y-116765632D01*
X203847108Y-116765632D02*
X203847108Y-116832975D01*
X203847108Y-116832975D02*
X203880779Y-116933991D01*
X203880779Y-116933991D02*
X204082810Y-117136021D01*
X204082810Y-117136021D02*
X204183825Y-117169693D01*
X204183825Y-117169693D02*
X204251169Y-117169693D01*
X199604819Y-86937142D02*
X199128628Y-86603809D01*
X199604819Y-86365714D02*
X198604819Y-86365714D01*
X198604819Y-86365714D02*
X198604819Y-86746666D01*
X198604819Y-86746666D02*
X198652438Y-86841904D01*
X198652438Y-86841904D02*
X198700057Y-86889523D01*
X198700057Y-86889523D02*
X198795295Y-86937142D01*
X198795295Y-86937142D02*
X198938152Y-86937142D01*
X198938152Y-86937142D02*
X199033390Y-86889523D01*
X199033390Y-86889523D02*
X199081009Y-86841904D01*
X199081009Y-86841904D02*
X199128628Y-86746666D01*
X199128628Y-86746666D02*
X199128628Y-86365714D01*
X199604819Y-87413333D02*
X199604819Y-87603809D01*
X199604819Y-87603809D02*
X199557200Y-87699047D01*
X199557200Y-87699047D02*
X199509580Y-87746666D01*
X199509580Y-87746666D02*
X199366723Y-87841904D01*
X199366723Y-87841904D02*
X199176247Y-87889523D01*
X199176247Y-87889523D02*
X198795295Y-87889523D01*
X198795295Y-87889523D02*
X198700057Y-87841904D01*
X198700057Y-87841904D02*
X198652438Y-87794285D01*
X198652438Y-87794285D02*
X198604819Y-87699047D01*
X198604819Y-87699047D02*
X198604819Y-87508571D01*
X198604819Y-87508571D02*
X198652438Y-87413333D01*
X198652438Y-87413333D02*
X198700057Y-87365714D01*
X198700057Y-87365714D02*
X198795295Y-87318095D01*
X198795295Y-87318095D02*
X199033390Y-87318095D01*
X199033390Y-87318095D02*
X199128628Y-87365714D01*
X199128628Y-87365714D02*
X199176247Y-87413333D01*
X199176247Y-87413333D02*
X199223866Y-87508571D01*
X199223866Y-87508571D02*
X199223866Y-87699047D01*
X199223866Y-87699047D02*
X199176247Y-87794285D01*
X199176247Y-87794285D02*
X199128628Y-87841904D01*
X199128628Y-87841904D02*
X199033390Y-87889523D01*
X198604819Y-88508571D02*
X198604819Y-88603809D01*
X198604819Y-88603809D02*
X198652438Y-88699047D01*
X198652438Y-88699047D02*
X198700057Y-88746666D01*
X198700057Y-88746666D02*
X198795295Y-88794285D01*
X198795295Y-88794285D02*
X198985771Y-88841904D01*
X198985771Y-88841904D02*
X199223866Y-88841904D01*
X199223866Y-88841904D02*
X199414342Y-88794285D01*
X199414342Y-88794285D02*
X199509580Y-88746666D01*
X199509580Y-88746666D02*
X199557200Y-88699047D01*
X199557200Y-88699047D02*
X199604819Y-88603809D01*
X199604819Y-88603809D02*
X199604819Y-88508571D01*
X199604819Y-88508571D02*
X199557200Y-88413333D01*
X199557200Y-88413333D02*
X199509580Y-88365714D01*
X199509580Y-88365714D02*
X199414342Y-88318095D01*
X199414342Y-88318095D02*
X199223866Y-88270476D01*
X199223866Y-88270476D02*
X198985771Y-88270476D01*
X198985771Y-88270476D02*
X198795295Y-88318095D01*
X198795295Y-88318095D02*
X198700057Y-88365714D01*
X198700057Y-88365714D02*
X198652438Y-88413333D01*
X198652438Y-88413333D02*
X198604819Y-88508571D01*
X194784819Y-86937142D02*
X194308628Y-86603809D01*
X194784819Y-86365714D02*
X193784819Y-86365714D01*
X193784819Y-86365714D02*
X193784819Y-86746666D01*
X193784819Y-86746666D02*
X193832438Y-86841904D01*
X193832438Y-86841904D02*
X193880057Y-86889523D01*
X193880057Y-86889523D02*
X193975295Y-86937142D01*
X193975295Y-86937142D02*
X194118152Y-86937142D01*
X194118152Y-86937142D02*
X194213390Y-86889523D01*
X194213390Y-86889523D02*
X194261009Y-86841904D01*
X194261009Y-86841904D02*
X194308628Y-86746666D01*
X194308628Y-86746666D02*
X194308628Y-86365714D01*
X194784819Y-87413333D02*
X194784819Y-87603809D01*
X194784819Y-87603809D02*
X194737200Y-87699047D01*
X194737200Y-87699047D02*
X194689580Y-87746666D01*
X194689580Y-87746666D02*
X194546723Y-87841904D01*
X194546723Y-87841904D02*
X194356247Y-87889523D01*
X194356247Y-87889523D02*
X193975295Y-87889523D01*
X193975295Y-87889523D02*
X193880057Y-87841904D01*
X193880057Y-87841904D02*
X193832438Y-87794285D01*
X193832438Y-87794285D02*
X193784819Y-87699047D01*
X193784819Y-87699047D02*
X193784819Y-87508571D01*
X193784819Y-87508571D02*
X193832438Y-87413333D01*
X193832438Y-87413333D02*
X193880057Y-87365714D01*
X193880057Y-87365714D02*
X193975295Y-87318095D01*
X193975295Y-87318095D02*
X194213390Y-87318095D01*
X194213390Y-87318095D02*
X194308628Y-87365714D01*
X194308628Y-87365714D02*
X194356247Y-87413333D01*
X194356247Y-87413333D02*
X194403866Y-87508571D01*
X194403866Y-87508571D02*
X194403866Y-87699047D01*
X194403866Y-87699047D02*
X194356247Y-87794285D01*
X194356247Y-87794285D02*
X194308628Y-87841904D01*
X194308628Y-87841904D02*
X194213390Y-87889523D01*
X194784819Y-88841904D02*
X194784819Y-88270476D01*
X194784819Y-88556190D02*
X193784819Y-88556190D01*
X193784819Y-88556190D02*
X193927676Y-88460952D01*
X193927676Y-88460952D02*
X194022914Y-88365714D01*
X194022914Y-88365714D02*
X194070533Y-88270476D01*
X132718257Y-71355919D02*
X133051590Y-70879728D01*
X133289685Y-71355919D02*
X133289685Y-70355919D01*
X133289685Y-70355919D02*
X132908733Y-70355919D01*
X132908733Y-70355919D02*
X132813495Y-70403538D01*
X132813495Y-70403538D02*
X132765876Y-70451157D01*
X132765876Y-70451157D02*
X132718257Y-70546395D01*
X132718257Y-70546395D02*
X132718257Y-70689252D01*
X132718257Y-70689252D02*
X132765876Y-70784490D01*
X132765876Y-70784490D02*
X132813495Y-70832109D01*
X132813495Y-70832109D02*
X132908733Y-70879728D01*
X132908733Y-70879728D02*
X133289685Y-70879728D01*
X132337304Y-70451157D02*
X132289685Y-70403538D01*
X132289685Y-70403538D02*
X132194447Y-70355919D01*
X132194447Y-70355919D02*
X131956352Y-70355919D01*
X131956352Y-70355919D02*
X131861114Y-70403538D01*
X131861114Y-70403538D02*
X131813495Y-70451157D01*
X131813495Y-70451157D02*
X131765876Y-70546395D01*
X131765876Y-70546395D02*
X131765876Y-70641633D01*
X131765876Y-70641633D02*
X131813495Y-70784490D01*
X131813495Y-70784490D02*
X132384923Y-71355919D01*
X132384923Y-71355919D02*
X131765876Y-71355919D01*
X131432542Y-70355919D02*
X130813495Y-70355919D01*
X130813495Y-70355919D02*
X131146828Y-70736871D01*
X131146828Y-70736871D02*
X131003971Y-70736871D01*
X131003971Y-70736871D02*
X130908733Y-70784490D01*
X130908733Y-70784490D02*
X130861114Y-70832109D01*
X130861114Y-70832109D02*
X130813495Y-70927347D01*
X130813495Y-70927347D02*
X130813495Y-71165442D01*
X130813495Y-71165442D02*
X130861114Y-71260680D01*
X130861114Y-71260680D02*
X130908733Y-71308300D01*
X130908733Y-71308300D02*
X131003971Y-71355919D01*
X131003971Y-71355919D02*
X131289685Y-71355919D01*
X131289685Y-71355919D02*
X131384923Y-71308300D01*
X131384923Y-71308300D02*
X131432542Y-71260680D01*
X222539580Y-141923333D02*
X222587200Y-141875714D01*
X222587200Y-141875714D02*
X222634819Y-141732857D01*
X222634819Y-141732857D02*
X222634819Y-141637619D01*
X222634819Y-141637619D02*
X222587200Y-141494762D01*
X222587200Y-141494762D02*
X222491961Y-141399524D01*
X222491961Y-141399524D02*
X222396723Y-141351905D01*
X222396723Y-141351905D02*
X222206247Y-141304286D01*
X222206247Y-141304286D02*
X222063390Y-141304286D01*
X222063390Y-141304286D02*
X221872914Y-141351905D01*
X221872914Y-141351905D02*
X221777676Y-141399524D01*
X221777676Y-141399524D02*
X221682438Y-141494762D01*
X221682438Y-141494762D02*
X221634819Y-141637619D01*
X221634819Y-141637619D02*
X221634819Y-141732857D01*
X221634819Y-141732857D02*
X221682438Y-141875714D01*
X221682438Y-141875714D02*
X221730057Y-141923333D01*
X221634819Y-142256667D02*
X221634819Y-142875714D01*
X221634819Y-142875714D02*
X222015771Y-142542381D01*
X222015771Y-142542381D02*
X222015771Y-142685238D01*
X222015771Y-142685238D02*
X222063390Y-142780476D01*
X222063390Y-142780476D02*
X222111009Y-142828095D01*
X222111009Y-142828095D02*
X222206247Y-142875714D01*
X222206247Y-142875714D02*
X222444342Y-142875714D01*
X222444342Y-142875714D02*
X222539580Y-142828095D01*
X222539580Y-142828095D02*
X222587200Y-142780476D01*
X222587200Y-142780476D02*
X222634819Y-142685238D01*
X222634819Y-142685238D02*
X222634819Y-142399524D01*
X222634819Y-142399524D02*
X222587200Y-142304286D01*
X222587200Y-142304286D02*
X222539580Y-142256667D01*
X157023957Y-124772419D02*
X157357290Y-124296228D01*
X157595385Y-124772419D02*
X157595385Y-123772419D01*
X157595385Y-123772419D02*
X157214433Y-123772419D01*
X157214433Y-123772419D02*
X157119195Y-123820038D01*
X157119195Y-123820038D02*
X157071576Y-123867657D01*
X157071576Y-123867657D02*
X157023957Y-123962895D01*
X157023957Y-123962895D02*
X157023957Y-124105752D01*
X157023957Y-124105752D02*
X157071576Y-124200990D01*
X157071576Y-124200990D02*
X157119195Y-124248609D01*
X157119195Y-124248609D02*
X157214433Y-124296228D01*
X157214433Y-124296228D02*
X157595385Y-124296228D01*
X156119195Y-123772419D02*
X156595385Y-123772419D01*
X156595385Y-123772419D02*
X156643004Y-124248609D01*
X156643004Y-124248609D02*
X156595385Y-124200990D01*
X156595385Y-124200990D02*
X156500147Y-124153371D01*
X156500147Y-124153371D02*
X156262052Y-124153371D01*
X156262052Y-124153371D02*
X156166814Y-124200990D01*
X156166814Y-124200990D02*
X156119195Y-124248609D01*
X156119195Y-124248609D02*
X156071576Y-124343847D01*
X156071576Y-124343847D02*
X156071576Y-124581942D01*
X156071576Y-124581942D02*
X156119195Y-124677180D01*
X156119195Y-124677180D02*
X156166814Y-124724800D01*
X156166814Y-124724800D02*
X156262052Y-124772419D01*
X156262052Y-124772419D02*
X156500147Y-124772419D01*
X156500147Y-124772419D02*
X156595385Y-124724800D01*
X156595385Y-124724800D02*
X156643004Y-124677180D01*
X155500147Y-124200990D02*
X155595385Y-124153371D01*
X155595385Y-124153371D02*
X155643004Y-124105752D01*
X155643004Y-124105752D02*
X155690623Y-124010514D01*
X155690623Y-124010514D02*
X155690623Y-123962895D01*
X155690623Y-123962895D02*
X155643004Y-123867657D01*
X155643004Y-123867657D02*
X155595385Y-123820038D01*
X155595385Y-123820038D02*
X155500147Y-123772419D01*
X155500147Y-123772419D02*
X155309671Y-123772419D01*
X155309671Y-123772419D02*
X155214433Y-123820038D01*
X155214433Y-123820038D02*
X155166814Y-123867657D01*
X155166814Y-123867657D02*
X155119195Y-123962895D01*
X155119195Y-123962895D02*
X155119195Y-124010514D01*
X155119195Y-124010514D02*
X155166814Y-124105752D01*
X155166814Y-124105752D02*
X155214433Y-124153371D01*
X155214433Y-124153371D02*
X155309671Y-124200990D01*
X155309671Y-124200990D02*
X155500147Y-124200990D01*
X155500147Y-124200990D02*
X155595385Y-124248609D01*
X155595385Y-124248609D02*
X155643004Y-124296228D01*
X155643004Y-124296228D02*
X155690623Y-124391466D01*
X155690623Y-124391466D02*
X155690623Y-124581942D01*
X155690623Y-124581942D02*
X155643004Y-124677180D01*
X155643004Y-124677180D02*
X155595385Y-124724800D01*
X155595385Y-124724800D02*
X155500147Y-124772419D01*
X155500147Y-124772419D02*
X155309671Y-124772419D01*
X155309671Y-124772419D02*
X155214433Y-124724800D01*
X155214433Y-124724800D02*
X155166814Y-124677180D01*
X155166814Y-124677180D02*
X155119195Y-124581942D01*
X155119195Y-124581942D02*
X155119195Y-124391466D01*
X155119195Y-124391466D02*
X155166814Y-124296228D01*
X155166814Y-124296228D02*
X155214433Y-124248609D01*
X155214433Y-124248609D02*
X155309671Y-124200990D01*
X112254557Y-137114419D02*
X112587890Y-136638228D01*
X112825985Y-137114419D02*
X112825985Y-136114419D01*
X112825985Y-136114419D02*
X112445033Y-136114419D01*
X112445033Y-136114419D02*
X112349795Y-136162038D01*
X112349795Y-136162038D02*
X112302176Y-136209657D01*
X112302176Y-136209657D02*
X112254557Y-136304895D01*
X112254557Y-136304895D02*
X112254557Y-136447752D01*
X112254557Y-136447752D02*
X112302176Y-136542990D01*
X112302176Y-136542990D02*
X112349795Y-136590609D01*
X112349795Y-136590609D02*
X112445033Y-136638228D01*
X112445033Y-136638228D02*
X112825985Y-136638228D01*
X111921223Y-136114419D02*
X111254557Y-136114419D01*
X111254557Y-136114419D02*
X111683128Y-137114419D01*
X110683128Y-136114419D02*
X110587890Y-136114419D01*
X110587890Y-136114419D02*
X110492652Y-136162038D01*
X110492652Y-136162038D02*
X110445033Y-136209657D01*
X110445033Y-136209657D02*
X110397414Y-136304895D01*
X110397414Y-136304895D02*
X110349795Y-136495371D01*
X110349795Y-136495371D02*
X110349795Y-136733466D01*
X110349795Y-136733466D02*
X110397414Y-136923942D01*
X110397414Y-136923942D02*
X110445033Y-137019180D01*
X110445033Y-137019180D02*
X110492652Y-137066800D01*
X110492652Y-137066800D02*
X110587890Y-137114419D01*
X110587890Y-137114419D02*
X110683128Y-137114419D01*
X110683128Y-137114419D02*
X110778366Y-137066800D01*
X110778366Y-137066800D02*
X110825985Y-137019180D01*
X110825985Y-137019180D02*
X110873604Y-136923942D01*
X110873604Y-136923942D02*
X110921223Y-136733466D01*
X110921223Y-136733466D02*
X110921223Y-136495371D01*
X110921223Y-136495371D02*
X110873604Y-136304895D01*
X110873604Y-136304895D02*
X110825985Y-136209657D01*
X110825985Y-136209657D02*
X110778366Y-136162038D01*
X110778366Y-136162038D02*
X110683128Y-136114419D01*
X85324557Y-98104419D02*
X85657890Y-97628228D01*
X85895985Y-98104419D02*
X85895985Y-97104419D01*
X85895985Y-97104419D02*
X85515033Y-97104419D01*
X85515033Y-97104419D02*
X85419795Y-97152038D01*
X85419795Y-97152038D02*
X85372176Y-97199657D01*
X85372176Y-97199657D02*
X85324557Y-97294895D01*
X85324557Y-97294895D02*
X85324557Y-97437752D01*
X85324557Y-97437752D02*
X85372176Y-97532990D01*
X85372176Y-97532990D02*
X85419795Y-97580609D01*
X85419795Y-97580609D02*
X85515033Y-97628228D01*
X85515033Y-97628228D02*
X85895985Y-97628228D01*
X84467414Y-97437752D02*
X84467414Y-98104419D01*
X84705509Y-97056800D02*
X84943604Y-97771085D01*
X84943604Y-97771085D02*
X84324557Y-97771085D01*
X83467414Y-97104419D02*
X83943604Y-97104419D01*
X83943604Y-97104419D02*
X83991223Y-97580609D01*
X83991223Y-97580609D02*
X83943604Y-97532990D01*
X83943604Y-97532990D02*
X83848366Y-97485371D01*
X83848366Y-97485371D02*
X83610271Y-97485371D01*
X83610271Y-97485371D02*
X83515033Y-97532990D01*
X83515033Y-97532990D02*
X83467414Y-97580609D01*
X83467414Y-97580609D02*
X83419795Y-97675847D01*
X83419795Y-97675847D02*
X83419795Y-97913942D01*
X83419795Y-97913942D02*
X83467414Y-98009180D01*
X83467414Y-98009180D02*
X83515033Y-98056800D01*
X83515033Y-98056800D02*
X83610271Y-98104419D01*
X83610271Y-98104419D02*
X83848366Y-98104419D01*
X83848366Y-98104419D02*
X83943604Y-98056800D01*
X83943604Y-98056800D02*
X83991223Y-98009180D01*
X213672857Y-85384819D02*
X214006190Y-84908628D01*
X214244285Y-85384819D02*
X214244285Y-84384819D01*
X214244285Y-84384819D02*
X213863333Y-84384819D01*
X213863333Y-84384819D02*
X213768095Y-84432438D01*
X213768095Y-84432438D02*
X213720476Y-84480057D01*
X213720476Y-84480057D02*
X213672857Y-84575295D01*
X213672857Y-84575295D02*
X213672857Y-84718152D01*
X213672857Y-84718152D02*
X213720476Y-84813390D01*
X213720476Y-84813390D02*
X213768095Y-84861009D01*
X213768095Y-84861009D02*
X213863333Y-84908628D01*
X213863333Y-84908628D02*
X214244285Y-84908628D01*
X213101428Y-84813390D02*
X213196666Y-84765771D01*
X213196666Y-84765771D02*
X213244285Y-84718152D01*
X213244285Y-84718152D02*
X213291904Y-84622914D01*
X213291904Y-84622914D02*
X213291904Y-84575295D01*
X213291904Y-84575295D02*
X213244285Y-84480057D01*
X213244285Y-84480057D02*
X213196666Y-84432438D01*
X213196666Y-84432438D02*
X213101428Y-84384819D01*
X213101428Y-84384819D02*
X212910952Y-84384819D01*
X212910952Y-84384819D02*
X212815714Y-84432438D01*
X212815714Y-84432438D02*
X212768095Y-84480057D01*
X212768095Y-84480057D02*
X212720476Y-84575295D01*
X212720476Y-84575295D02*
X212720476Y-84622914D01*
X212720476Y-84622914D02*
X212768095Y-84718152D01*
X212768095Y-84718152D02*
X212815714Y-84765771D01*
X212815714Y-84765771D02*
X212910952Y-84813390D01*
X212910952Y-84813390D02*
X213101428Y-84813390D01*
X213101428Y-84813390D02*
X213196666Y-84861009D01*
X213196666Y-84861009D02*
X213244285Y-84908628D01*
X213244285Y-84908628D02*
X213291904Y-85003866D01*
X213291904Y-85003866D02*
X213291904Y-85194342D01*
X213291904Y-85194342D02*
X213244285Y-85289580D01*
X213244285Y-85289580D02*
X213196666Y-85337200D01*
X213196666Y-85337200D02*
X213101428Y-85384819D01*
X213101428Y-85384819D02*
X212910952Y-85384819D01*
X212910952Y-85384819D02*
X212815714Y-85337200D01*
X212815714Y-85337200D02*
X212768095Y-85289580D01*
X212768095Y-85289580D02*
X212720476Y-85194342D01*
X212720476Y-85194342D02*
X212720476Y-85003866D01*
X212720476Y-85003866D02*
X212768095Y-84908628D01*
X212768095Y-84908628D02*
X212815714Y-84861009D01*
X212815714Y-84861009D02*
X212910952Y-84813390D01*
X211863333Y-84718152D02*
X211863333Y-85384819D01*
X212101428Y-84337200D02*
X212339523Y-85051485D01*
X212339523Y-85051485D02*
X211720476Y-85051485D01*
X157023957Y-85772419D02*
X157357290Y-85296228D01*
X157595385Y-85772419D02*
X157595385Y-84772419D01*
X157595385Y-84772419D02*
X157214433Y-84772419D01*
X157214433Y-84772419D02*
X157119195Y-84820038D01*
X157119195Y-84820038D02*
X157071576Y-84867657D01*
X157071576Y-84867657D02*
X157023957Y-84962895D01*
X157023957Y-84962895D02*
X157023957Y-85105752D01*
X157023957Y-85105752D02*
X157071576Y-85200990D01*
X157071576Y-85200990D02*
X157119195Y-85248609D01*
X157119195Y-85248609D02*
X157214433Y-85296228D01*
X157214433Y-85296228D02*
X157595385Y-85296228D01*
X156690623Y-84772419D02*
X156071576Y-84772419D01*
X156071576Y-84772419D02*
X156404909Y-85153371D01*
X156404909Y-85153371D02*
X156262052Y-85153371D01*
X156262052Y-85153371D02*
X156166814Y-85200990D01*
X156166814Y-85200990D02*
X156119195Y-85248609D01*
X156119195Y-85248609D02*
X156071576Y-85343847D01*
X156071576Y-85343847D02*
X156071576Y-85581942D01*
X156071576Y-85581942D02*
X156119195Y-85677180D01*
X156119195Y-85677180D02*
X156166814Y-85724800D01*
X156166814Y-85724800D02*
X156262052Y-85772419D01*
X156262052Y-85772419D02*
X156547766Y-85772419D01*
X156547766Y-85772419D02*
X156643004Y-85724800D01*
X156643004Y-85724800D02*
X156690623Y-85677180D01*
X155119195Y-85772419D02*
X155690623Y-85772419D01*
X155404909Y-85772419D02*
X155404909Y-84772419D01*
X155404909Y-84772419D02*
X155500147Y-84915276D01*
X155500147Y-84915276D02*
X155595385Y-85010514D01*
X155595385Y-85010514D02*
X155690623Y-85058133D01*
X94725757Y-135853219D02*
X95059090Y-135377028D01*
X95297185Y-135853219D02*
X95297185Y-134853219D01*
X95297185Y-134853219D02*
X94916233Y-134853219D01*
X94916233Y-134853219D02*
X94820995Y-134900838D01*
X94820995Y-134900838D02*
X94773376Y-134948457D01*
X94773376Y-134948457D02*
X94725757Y-135043695D01*
X94725757Y-135043695D02*
X94725757Y-135186552D01*
X94725757Y-135186552D02*
X94773376Y-135281790D01*
X94773376Y-135281790D02*
X94820995Y-135329409D01*
X94820995Y-135329409D02*
X94916233Y-135377028D01*
X94916233Y-135377028D02*
X95297185Y-135377028D01*
X94392423Y-134853219D02*
X93725757Y-134853219D01*
X93725757Y-134853219D02*
X94154328Y-135853219D01*
X92820995Y-135853219D02*
X93392423Y-135853219D01*
X93106709Y-135853219D02*
X93106709Y-134853219D01*
X93106709Y-134853219D02*
X93201947Y-134996076D01*
X93201947Y-134996076D02*
X93297185Y-135091314D01*
X93297185Y-135091314D02*
X93392423Y-135138933D01*
X215612857Y-86934819D02*
X215946190Y-86458628D01*
X216184285Y-86934819D02*
X216184285Y-85934819D01*
X216184285Y-85934819D02*
X215803333Y-85934819D01*
X215803333Y-85934819D02*
X215708095Y-85982438D01*
X215708095Y-85982438D02*
X215660476Y-86030057D01*
X215660476Y-86030057D02*
X215612857Y-86125295D01*
X215612857Y-86125295D02*
X215612857Y-86268152D01*
X215612857Y-86268152D02*
X215660476Y-86363390D01*
X215660476Y-86363390D02*
X215708095Y-86411009D01*
X215708095Y-86411009D02*
X215803333Y-86458628D01*
X215803333Y-86458628D02*
X216184285Y-86458628D01*
X215041428Y-86363390D02*
X215136666Y-86315771D01*
X215136666Y-86315771D02*
X215184285Y-86268152D01*
X215184285Y-86268152D02*
X215231904Y-86172914D01*
X215231904Y-86172914D02*
X215231904Y-86125295D01*
X215231904Y-86125295D02*
X215184285Y-86030057D01*
X215184285Y-86030057D02*
X215136666Y-85982438D01*
X215136666Y-85982438D02*
X215041428Y-85934819D01*
X215041428Y-85934819D02*
X214850952Y-85934819D01*
X214850952Y-85934819D02*
X214755714Y-85982438D01*
X214755714Y-85982438D02*
X214708095Y-86030057D01*
X214708095Y-86030057D02*
X214660476Y-86125295D01*
X214660476Y-86125295D02*
X214660476Y-86172914D01*
X214660476Y-86172914D02*
X214708095Y-86268152D01*
X214708095Y-86268152D02*
X214755714Y-86315771D01*
X214755714Y-86315771D02*
X214850952Y-86363390D01*
X214850952Y-86363390D02*
X215041428Y-86363390D01*
X215041428Y-86363390D02*
X215136666Y-86411009D01*
X215136666Y-86411009D02*
X215184285Y-86458628D01*
X215184285Y-86458628D02*
X215231904Y-86553866D01*
X215231904Y-86553866D02*
X215231904Y-86744342D01*
X215231904Y-86744342D02*
X215184285Y-86839580D01*
X215184285Y-86839580D02*
X215136666Y-86887200D01*
X215136666Y-86887200D02*
X215041428Y-86934819D01*
X215041428Y-86934819D02*
X214850952Y-86934819D01*
X214850952Y-86934819D02*
X214755714Y-86887200D01*
X214755714Y-86887200D02*
X214708095Y-86839580D01*
X214708095Y-86839580D02*
X214660476Y-86744342D01*
X214660476Y-86744342D02*
X214660476Y-86553866D01*
X214660476Y-86553866D02*
X214708095Y-86458628D01*
X214708095Y-86458628D02*
X214755714Y-86411009D01*
X214755714Y-86411009D02*
X214850952Y-86363390D01*
X213755714Y-85934819D02*
X214231904Y-85934819D01*
X214231904Y-85934819D02*
X214279523Y-86411009D01*
X214279523Y-86411009D02*
X214231904Y-86363390D01*
X214231904Y-86363390D02*
X214136666Y-86315771D01*
X214136666Y-86315771D02*
X213898571Y-86315771D01*
X213898571Y-86315771D02*
X213803333Y-86363390D01*
X213803333Y-86363390D02*
X213755714Y-86411009D01*
X213755714Y-86411009D02*
X213708095Y-86506247D01*
X213708095Y-86506247D02*
X213708095Y-86744342D01*
X213708095Y-86744342D02*
X213755714Y-86839580D01*
X213755714Y-86839580D02*
X213803333Y-86887200D01*
X213803333Y-86887200D02*
X213898571Y-86934819D01*
X213898571Y-86934819D02*
X214136666Y-86934819D01*
X214136666Y-86934819D02*
X214231904Y-86887200D01*
X214231904Y-86887200D02*
X214279523Y-86839580D01*
X132718257Y-88706919D02*
X133051590Y-88230728D01*
X133289685Y-88706919D02*
X133289685Y-87706919D01*
X133289685Y-87706919D02*
X132908733Y-87706919D01*
X132908733Y-87706919D02*
X132813495Y-87754538D01*
X132813495Y-87754538D02*
X132765876Y-87802157D01*
X132765876Y-87802157D02*
X132718257Y-87897395D01*
X132718257Y-87897395D02*
X132718257Y-88040252D01*
X132718257Y-88040252D02*
X132765876Y-88135490D01*
X132765876Y-88135490D02*
X132813495Y-88183109D01*
X132813495Y-88183109D02*
X132908733Y-88230728D01*
X132908733Y-88230728D02*
X133289685Y-88230728D01*
X132384923Y-87706919D02*
X131765876Y-87706919D01*
X131765876Y-87706919D02*
X132099209Y-88087871D01*
X132099209Y-88087871D02*
X131956352Y-88087871D01*
X131956352Y-88087871D02*
X131861114Y-88135490D01*
X131861114Y-88135490D02*
X131813495Y-88183109D01*
X131813495Y-88183109D02*
X131765876Y-88278347D01*
X131765876Y-88278347D02*
X131765876Y-88516442D01*
X131765876Y-88516442D02*
X131813495Y-88611680D01*
X131813495Y-88611680D02*
X131861114Y-88659300D01*
X131861114Y-88659300D02*
X131956352Y-88706919D01*
X131956352Y-88706919D02*
X132242066Y-88706919D01*
X132242066Y-88706919D02*
X132337304Y-88659300D01*
X132337304Y-88659300D02*
X132384923Y-88611680D01*
X131194447Y-88135490D02*
X131289685Y-88087871D01*
X131289685Y-88087871D02*
X131337304Y-88040252D01*
X131337304Y-88040252D02*
X131384923Y-87945014D01*
X131384923Y-87945014D02*
X131384923Y-87897395D01*
X131384923Y-87897395D02*
X131337304Y-87802157D01*
X131337304Y-87802157D02*
X131289685Y-87754538D01*
X131289685Y-87754538D02*
X131194447Y-87706919D01*
X131194447Y-87706919D02*
X131003971Y-87706919D01*
X131003971Y-87706919D02*
X130908733Y-87754538D01*
X130908733Y-87754538D02*
X130861114Y-87802157D01*
X130861114Y-87802157D02*
X130813495Y-87897395D01*
X130813495Y-87897395D02*
X130813495Y-87945014D01*
X130813495Y-87945014D02*
X130861114Y-88040252D01*
X130861114Y-88040252D02*
X130908733Y-88087871D01*
X130908733Y-88087871D02*
X131003971Y-88135490D01*
X131003971Y-88135490D02*
X131194447Y-88135490D01*
X131194447Y-88135490D02*
X131289685Y-88183109D01*
X131289685Y-88183109D02*
X131337304Y-88230728D01*
X131337304Y-88230728D02*
X131384923Y-88325966D01*
X131384923Y-88325966D02*
X131384923Y-88516442D01*
X131384923Y-88516442D02*
X131337304Y-88611680D01*
X131337304Y-88611680D02*
X131289685Y-88659300D01*
X131289685Y-88659300D02*
X131194447Y-88706919D01*
X131194447Y-88706919D02*
X131003971Y-88706919D01*
X131003971Y-88706919D02*
X130908733Y-88659300D01*
X130908733Y-88659300D02*
X130861114Y-88611680D01*
X130861114Y-88611680D02*
X130813495Y-88516442D01*
X130813495Y-88516442D02*
X130813495Y-88325966D01*
X130813495Y-88325966D02*
X130861114Y-88230728D01*
X130861114Y-88230728D02*
X130908733Y-88183109D01*
X130908733Y-88183109D02*
X131003971Y-88135490D01*
X200298870Y-122481693D02*
X200366214Y-122481693D01*
X200366214Y-122481693D02*
X200500901Y-122414349D01*
X200500901Y-122414349D02*
X200568244Y-122347006D01*
X200568244Y-122347006D02*
X200635588Y-122212319D01*
X200635588Y-122212319D02*
X200635588Y-122077632D01*
X200635588Y-122077632D02*
X200601916Y-121976617D01*
X200601916Y-121976617D02*
X200500901Y-121808258D01*
X200500901Y-121808258D02*
X200399886Y-121707243D01*
X200399886Y-121707243D02*
X200231527Y-121606227D01*
X200231527Y-121606227D02*
X200130512Y-121572556D01*
X200130512Y-121572556D02*
X199995825Y-121572556D01*
X199995825Y-121572556D02*
X199861138Y-121639899D01*
X199861138Y-121639899D02*
X199793794Y-121707243D01*
X199793794Y-121707243D02*
X199726451Y-121841930D01*
X199726451Y-121841930D02*
X199726451Y-121909273D01*
X199692779Y-123222471D02*
X200096840Y-122818410D01*
X199894809Y-123020441D02*
X199187703Y-122313334D01*
X199187703Y-122313334D02*
X199356061Y-122347006D01*
X199356061Y-122347006D02*
X199490748Y-122347006D01*
X199490748Y-122347006D02*
X199591764Y-122313334D01*
X198749970Y-122751067D02*
X198278565Y-123222472D01*
X198278565Y-123222472D02*
X199288718Y-123626533D01*
X129390857Y-127681519D02*
X129724190Y-127205328D01*
X129962285Y-127681519D02*
X129962285Y-126681519D01*
X129962285Y-126681519D02*
X129581333Y-126681519D01*
X129581333Y-126681519D02*
X129486095Y-126729138D01*
X129486095Y-126729138D02*
X129438476Y-126776757D01*
X129438476Y-126776757D02*
X129390857Y-126871995D01*
X129390857Y-126871995D02*
X129390857Y-127014852D01*
X129390857Y-127014852D02*
X129438476Y-127110090D01*
X129438476Y-127110090D02*
X129486095Y-127157709D01*
X129486095Y-127157709D02*
X129581333Y-127205328D01*
X129581333Y-127205328D02*
X129962285Y-127205328D01*
X128533714Y-126681519D02*
X128724190Y-126681519D01*
X128724190Y-126681519D02*
X128819428Y-126729138D01*
X128819428Y-126729138D02*
X128867047Y-126776757D01*
X128867047Y-126776757D02*
X128962285Y-126919614D01*
X128962285Y-126919614D02*
X129009904Y-127110090D01*
X129009904Y-127110090D02*
X129009904Y-127491042D01*
X129009904Y-127491042D02*
X128962285Y-127586280D01*
X128962285Y-127586280D02*
X128914666Y-127633900D01*
X128914666Y-127633900D02*
X128819428Y-127681519D01*
X128819428Y-127681519D02*
X128628952Y-127681519D01*
X128628952Y-127681519D02*
X128533714Y-127633900D01*
X128533714Y-127633900D02*
X128486095Y-127586280D01*
X128486095Y-127586280D02*
X128438476Y-127491042D01*
X128438476Y-127491042D02*
X128438476Y-127252947D01*
X128438476Y-127252947D02*
X128486095Y-127157709D01*
X128486095Y-127157709D02*
X128533714Y-127110090D01*
X128533714Y-127110090D02*
X128628952Y-127062471D01*
X128628952Y-127062471D02*
X128819428Y-127062471D01*
X128819428Y-127062471D02*
X128914666Y-127110090D01*
X128914666Y-127110090D02*
X128962285Y-127157709D01*
X128962285Y-127157709D02*
X129009904Y-127252947D01*
X127581333Y-126681519D02*
X127771809Y-126681519D01*
X127771809Y-126681519D02*
X127867047Y-126729138D01*
X127867047Y-126729138D02*
X127914666Y-126776757D01*
X127914666Y-126776757D02*
X128009904Y-126919614D01*
X128009904Y-126919614D02*
X128057523Y-127110090D01*
X128057523Y-127110090D02*
X128057523Y-127491042D01*
X128057523Y-127491042D02*
X128009904Y-127586280D01*
X128009904Y-127586280D02*
X127962285Y-127633900D01*
X127962285Y-127633900D02*
X127867047Y-127681519D01*
X127867047Y-127681519D02*
X127676571Y-127681519D01*
X127676571Y-127681519D02*
X127581333Y-127633900D01*
X127581333Y-127633900D02*
X127533714Y-127586280D01*
X127533714Y-127586280D02*
X127486095Y-127491042D01*
X127486095Y-127491042D02*
X127486095Y-127252947D01*
X127486095Y-127252947D02*
X127533714Y-127157709D01*
X127533714Y-127157709D02*
X127581333Y-127110090D01*
X127581333Y-127110090D02*
X127676571Y-127062471D01*
X127676571Y-127062471D02*
X127867047Y-127062471D01*
X127867047Y-127062471D02*
X127962285Y-127110090D01*
X127962285Y-127110090D02*
X128009904Y-127157709D01*
X128009904Y-127157709D02*
X128057523Y-127252947D01*
X129390857Y-97355919D02*
X129724190Y-96879728D01*
X129962285Y-97355919D02*
X129962285Y-96355919D01*
X129962285Y-96355919D02*
X129581333Y-96355919D01*
X129581333Y-96355919D02*
X129486095Y-96403538D01*
X129486095Y-96403538D02*
X129438476Y-96451157D01*
X129438476Y-96451157D02*
X129390857Y-96546395D01*
X129390857Y-96546395D02*
X129390857Y-96689252D01*
X129390857Y-96689252D02*
X129438476Y-96784490D01*
X129438476Y-96784490D02*
X129486095Y-96832109D01*
X129486095Y-96832109D02*
X129581333Y-96879728D01*
X129581333Y-96879728D02*
X129962285Y-96879728D01*
X128533714Y-96689252D02*
X128533714Y-97355919D01*
X128771809Y-96308300D02*
X129009904Y-97022585D01*
X129009904Y-97022585D02*
X128390857Y-97022585D01*
X128057523Y-96451157D02*
X128009904Y-96403538D01*
X128009904Y-96403538D02*
X127914666Y-96355919D01*
X127914666Y-96355919D02*
X127676571Y-96355919D01*
X127676571Y-96355919D02*
X127581333Y-96403538D01*
X127581333Y-96403538D02*
X127533714Y-96451157D01*
X127533714Y-96451157D02*
X127486095Y-96546395D01*
X127486095Y-96546395D02*
X127486095Y-96641633D01*
X127486095Y-96641633D02*
X127533714Y-96784490D01*
X127533714Y-96784490D02*
X128105142Y-97355919D01*
X128105142Y-97355919D02*
X127486095Y-97355919D01*
X204616870Y-122227693D02*
X204684214Y-122227693D01*
X204684214Y-122227693D02*
X204818901Y-122160349D01*
X204818901Y-122160349D02*
X204886244Y-122093006D01*
X204886244Y-122093006D02*
X204953588Y-121958319D01*
X204953588Y-121958319D02*
X204953588Y-121823632D01*
X204953588Y-121823632D02*
X204919916Y-121722617D01*
X204919916Y-121722617D02*
X204818901Y-121554258D01*
X204818901Y-121554258D02*
X204717886Y-121453243D01*
X204717886Y-121453243D02*
X204549527Y-121352227D01*
X204549527Y-121352227D02*
X204448512Y-121318556D01*
X204448512Y-121318556D02*
X204313825Y-121318556D01*
X204313825Y-121318556D02*
X204179138Y-121385899D01*
X204179138Y-121385899D02*
X204111794Y-121453243D01*
X204111794Y-121453243D02*
X204044451Y-121587930D01*
X204044451Y-121587930D02*
X204044451Y-121655273D01*
X204010779Y-122968471D02*
X204414840Y-122564410D01*
X204212809Y-122766441D02*
X203505703Y-122059334D01*
X203505703Y-122059334D02*
X203674061Y-122093006D01*
X203674061Y-122093006D02*
X203808748Y-122093006D01*
X203808748Y-122093006D02*
X203909764Y-122059334D01*
X202697580Y-122867456D02*
X202832267Y-122732769D01*
X202832267Y-122732769D02*
X202933283Y-122699098D01*
X202933283Y-122699098D02*
X203000626Y-122699098D01*
X203000626Y-122699098D02*
X203168985Y-122732769D01*
X203168985Y-122732769D02*
X203337344Y-122833785D01*
X203337344Y-122833785D02*
X203606718Y-123103159D01*
X203606718Y-123103159D02*
X203640389Y-123204174D01*
X203640389Y-123204174D02*
X203640389Y-123271517D01*
X203640389Y-123271517D02*
X203606718Y-123372533D01*
X203606718Y-123372533D02*
X203472031Y-123507220D01*
X203472031Y-123507220D02*
X203371015Y-123540891D01*
X203371015Y-123540891D02*
X203303672Y-123540891D01*
X203303672Y-123540891D02*
X203202657Y-123507220D01*
X203202657Y-123507220D02*
X203034298Y-123338861D01*
X203034298Y-123338861D02*
X203000626Y-123237846D01*
X203000626Y-123237846D02*
X203000626Y-123170502D01*
X203000626Y-123170502D02*
X203034298Y-123069487D01*
X203034298Y-123069487D02*
X203168985Y-122934800D01*
X203168985Y-122934800D02*
X203270000Y-122901128D01*
X203270000Y-122901128D02*
X203337344Y-122901128D01*
X203337344Y-122901128D02*
X203438359Y-122934800D01*
X94724557Y-111101419D02*
X95057890Y-110625228D01*
X95295985Y-111101419D02*
X95295985Y-110101419D01*
X95295985Y-110101419D02*
X94915033Y-110101419D01*
X94915033Y-110101419D02*
X94819795Y-110149038D01*
X94819795Y-110149038D02*
X94772176Y-110196657D01*
X94772176Y-110196657D02*
X94724557Y-110291895D01*
X94724557Y-110291895D02*
X94724557Y-110434752D01*
X94724557Y-110434752D02*
X94772176Y-110529990D01*
X94772176Y-110529990D02*
X94819795Y-110577609D01*
X94819795Y-110577609D02*
X94915033Y-110625228D01*
X94915033Y-110625228D02*
X95295985Y-110625228D01*
X93819795Y-110101419D02*
X94295985Y-110101419D01*
X94295985Y-110101419D02*
X94343604Y-110577609D01*
X94343604Y-110577609D02*
X94295985Y-110529990D01*
X94295985Y-110529990D02*
X94200747Y-110482371D01*
X94200747Y-110482371D02*
X93962652Y-110482371D01*
X93962652Y-110482371D02*
X93867414Y-110529990D01*
X93867414Y-110529990D02*
X93819795Y-110577609D01*
X93819795Y-110577609D02*
X93772176Y-110672847D01*
X93772176Y-110672847D02*
X93772176Y-110910942D01*
X93772176Y-110910942D02*
X93819795Y-111006180D01*
X93819795Y-111006180D02*
X93867414Y-111053800D01*
X93867414Y-111053800D02*
X93962652Y-111101419D01*
X93962652Y-111101419D02*
X94200747Y-111101419D01*
X94200747Y-111101419D02*
X94295985Y-111053800D01*
X94295985Y-111053800D02*
X94343604Y-111006180D01*
X93438842Y-110101419D02*
X92819795Y-110101419D01*
X92819795Y-110101419D02*
X93153128Y-110482371D01*
X93153128Y-110482371D02*
X93010271Y-110482371D01*
X93010271Y-110482371D02*
X92915033Y-110529990D01*
X92915033Y-110529990D02*
X92867414Y-110577609D01*
X92867414Y-110577609D02*
X92819795Y-110672847D01*
X92819795Y-110672847D02*
X92819795Y-110910942D01*
X92819795Y-110910942D02*
X92867414Y-111006180D01*
X92867414Y-111006180D02*
X92915033Y-111053800D01*
X92915033Y-111053800D02*
X93010271Y-111101419D01*
X93010271Y-111101419D02*
X93295985Y-111101419D01*
X93295985Y-111101419D02*
X93391223Y-111053800D01*
X93391223Y-111053800D02*
X93438842Y-111006180D01*
D12*
X222764318Y-104917856D02*
X221494318Y-104917856D01*
X221494318Y-104917856D02*
X221494318Y-105220237D01*
X221494318Y-105220237D02*
X221554794Y-105401666D01*
X221554794Y-105401666D02*
X221675746Y-105522618D01*
X221675746Y-105522618D02*
X221796699Y-105583095D01*
X221796699Y-105583095D02*
X222038603Y-105643571D01*
X222038603Y-105643571D02*
X222220032Y-105643571D01*
X222220032Y-105643571D02*
X222461937Y-105583095D01*
X222461937Y-105583095D02*
X222582889Y-105522618D01*
X222582889Y-105522618D02*
X222703842Y-105401666D01*
X222703842Y-105401666D02*
X222764318Y-105220237D01*
X222764318Y-105220237D02*
X222764318Y-104917856D01*
X222764318Y-106853095D02*
X222764318Y-106127380D01*
X222764318Y-106490237D02*
X221494318Y-106490237D01*
X221494318Y-106490237D02*
X221675746Y-106369285D01*
X221675746Y-106369285D02*
X221796699Y-106248333D01*
X221796699Y-106248333D02*
X221857175Y-106127380D01*
X221494318Y-108002142D02*
X221494318Y-107397380D01*
X221494318Y-107397380D02*
X222099080Y-107336904D01*
X222099080Y-107336904D02*
X222038603Y-107397380D01*
X222038603Y-107397380D02*
X221978127Y-107518333D01*
X221978127Y-107518333D02*
X221978127Y-107820714D01*
X221978127Y-107820714D02*
X222038603Y-107941666D01*
X222038603Y-107941666D02*
X222099080Y-108002142D01*
X222099080Y-108002142D02*
X222220032Y-108062619D01*
X222220032Y-108062619D02*
X222522413Y-108062619D01*
X222522413Y-108062619D02*
X222643365Y-108002142D01*
X222643365Y-108002142D02*
X222703842Y-107941666D01*
X222703842Y-107941666D02*
X222764318Y-107820714D01*
X222764318Y-107820714D02*
X222764318Y-107518333D01*
X222764318Y-107518333D02*
X222703842Y-107397380D01*
X222703842Y-107397380D02*
X222643365Y-107336904D01*
D11*
X132718257Y-140706919D02*
X133051590Y-140230728D01*
X133289685Y-140706919D02*
X133289685Y-139706919D01*
X133289685Y-139706919D02*
X132908733Y-139706919D01*
X132908733Y-139706919D02*
X132813495Y-139754538D01*
X132813495Y-139754538D02*
X132765876Y-139802157D01*
X132765876Y-139802157D02*
X132718257Y-139897395D01*
X132718257Y-139897395D02*
X132718257Y-140040252D01*
X132718257Y-140040252D02*
X132765876Y-140135490D01*
X132765876Y-140135490D02*
X132813495Y-140183109D01*
X132813495Y-140183109D02*
X132908733Y-140230728D01*
X132908733Y-140230728D02*
X133289685Y-140230728D01*
X132384923Y-139706919D02*
X131718257Y-139706919D01*
X131718257Y-139706919D02*
X132146828Y-140706919D01*
X130908733Y-140040252D02*
X130908733Y-140706919D01*
X131146828Y-139659300D02*
X131384923Y-140373585D01*
X131384923Y-140373585D02*
X130765876Y-140373585D01*
X200227787Y-118320650D02*
X200295131Y-118320650D01*
X200295131Y-118320650D02*
X200429818Y-118253306D01*
X200429818Y-118253306D02*
X200497161Y-118185963D01*
X200497161Y-118185963D02*
X200564505Y-118051276D01*
X200564505Y-118051276D02*
X200564505Y-117916589D01*
X200564505Y-117916589D02*
X200530833Y-117815574D01*
X200530833Y-117815574D02*
X200429818Y-117647215D01*
X200429818Y-117647215D02*
X200328803Y-117546200D01*
X200328803Y-117546200D02*
X200160444Y-117445184D01*
X200160444Y-117445184D02*
X200059429Y-117411513D01*
X200059429Y-117411513D02*
X199924742Y-117411513D01*
X199924742Y-117411513D02*
X199790055Y-117478856D01*
X199790055Y-117478856D02*
X199722711Y-117546200D01*
X199722711Y-117546200D02*
X199655368Y-117680887D01*
X199655368Y-117680887D02*
X199655368Y-117748230D01*
X199621696Y-119061428D02*
X200025757Y-118657367D01*
X199823726Y-118859398D02*
X199116620Y-118152291D01*
X199116620Y-118152291D02*
X199284978Y-118185963D01*
X199284978Y-118185963D02*
X199419665Y-118185963D01*
X199419665Y-118185963D02*
X199520681Y-118152291D01*
X198712558Y-118691039D02*
X198645215Y-118691039D01*
X198645215Y-118691039D02*
X198544200Y-118724711D01*
X198544200Y-118724711D02*
X198375841Y-118893070D01*
X198375841Y-118893070D02*
X198342169Y-118994085D01*
X198342169Y-118994085D02*
X198342169Y-119061429D01*
X198342169Y-119061429D02*
X198375841Y-119162444D01*
X198375841Y-119162444D02*
X198443184Y-119229787D01*
X198443184Y-119229787D02*
X198577871Y-119297131D01*
X198577871Y-119297131D02*
X199385993Y-119297131D01*
X199385993Y-119297131D02*
X198948261Y-119734864D01*
X129390857Y-88681519D02*
X129724190Y-88205328D01*
X129962285Y-88681519D02*
X129962285Y-87681519D01*
X129962285Y-87681519D02*
X129581333Y-87681519D01*
X129581333Y-87681519D02*
X129486095Y-87729138D01*
X129486095Y-87729138D02*
X129438476Y-87776757D01*
X129438476Y-87776757D02*
X129390857Y-87871995D01*
X129390857Y-87871995D02*
X129390857Y-88014852D01*
X129390857Y-88014852D02*
X129438476Y-88110090D01*
X129438476Y-88110090D02*
X129486095Y-88157709D01*
X129486095Y-88157709D02*
X129581333Y-88205328D01*
X129581333Y-88205328D02*
X129962285Y-88205328D01*
X129057523Y-87681519D02*
X128438476Y-87681519D01*
X128438476Y-87681519D02*
X128771809Y-88062471D01*
X128771809Y-88062471D02*
X128628952Y-88062471D01*
X128628952Y-88062471D02*
X128533714Y-88110090D01*
X128533714Y-88110090D02*
X128486095Y-88157709D01*
X128486095Y-88157709D02*
X128438476Y-88252947D01*
X128438476Y-88252947D02*
X128438476Y-88491042D01*
X128438476Y-88491042D02*
X128486095Y-88586280D01*
X128486095Y-88586280D02*
X128533714Y-88633900D01*
X128533714Y-88633900D02*
X128628952Y-88681519D01*
X128628952Y-88681519D02*
X128914666Y-88681519D01*
X128914666Y-88681519D02*
X129009904Y-88633900D01*
X129009904Y-88633900D02*
X129057523Y-88586280D01*
X127962285Y-88681519D02*
X127771809Y-88681519D01*
X127771809Y-88681519D02*
X127676571Y-88633900D01*
X127676571Y-88633900D02*
X127628952Y-88586280D01*
X127628952Y-88586280D02*
X127533714Y-88443423D01*
X127533714Y-88443423D02*
X127486095Y-88252947D01*
X127486095Y-88252947D02*
X127486095Y-87871995D01*
X127486095Y-87871995D02*
X127533714Y-87776757D01*
X127533714Y-87776757D02*
X127581333Y-87729138D01*
X127581333Y-87729138D02*
X127676571Y-87681519D01*
X127676571Y-87681519D02*
X127867047Y-87681519D01*
X127867047Y-87681519D02*
X127962285Y-87729138D01*
X127962285Y-87729138D02*
X128009904Y-87776757D01*
X128009904Y-87776757D02*
X128057523Y-87871995D01*
X128057523Y-87871995D02*
X128057523Y-88110090D01*
X128057523Y-88110090D02*
X128009904Y-88205328D01*
X128009904Y-88205328D02*
X127962285Y-88252947D01*
X127962285Y-88252947D02*
X127867047Y-88300566D01*
X127867047Y-88300566D02*
X127676571Y-88300566D01*
X127676571Y-88300566D02*
X127581333Y-88252947D01*
X127581333Y-88252947D02*
X127533714Y-88205328D01*
X127533714Y-88205328D02*
X127486095Y-88110090D01*
X216213333Y-70001009D02*
X216546666Y-70001009D01*
X216546666Y-70524819D02*
X216546666Y-69524819D01*
X216546666Y-69524819D02*
X216070476Y-69524819D01*
X215165714Y-70524819D02*
X215737142Y-70524819D01*
X215451428Y-70524819D02*
X215451428Y-69524819D01*
X215451428Y-69524819D02*
X215546666Y-69667676D01*
X215546666Y-69667676D02*
X215641904Y-69762914D01*
X215641904Y-69762914D02*
X215737142Y-69810533D01*
X194682857Y-94954819D02*
X195016190Y-94478628D01*
X195254285Y-94954819D02*
X195254285Y-93954819D01*
X195254285Y-93954819D02*
X194873333Y-93954819D01*
X194873333Y-93954819D02*
X194778095Y-94002438D01*
X194778095Y-94002438D02*
X194730476Y-94050057D01*
X194730476Y-94050057D02*
X194682857Y-94145295D01*
X194682857Y-94145295D02*
X194682857Y-94288152D01*
X194682857Y-94288152D02*
X194730476Y-94383390D01*
X194730476Y-94383390D02*
X194778095Y-94431009D01*
X194778095Y-94431009D02*
X194873333Y-94478628D01*
X194873333Y-94478628D02*
X195254285Y-94478628D01*
X194111428Y-94383390D02*
X194206666Y-94335771D01*
X194206666Y-94335771D02*
X194254285Y-94288152D01*
X194254285Y-94288152D02*
X194301904Y-94192914D01*
X194301904Y-94192914D02*
X194301904Y-94145295D01*
X194301904Y-94145295D02*
X194254285Y-94050057D01*
X194254285Y-94050057D02*
X194206666Y-94002438D01*
X194206666Y-94002438D02*
X194111428Y-93954819D01*
X194111428Y-93954819D02*
X193920952Y-93954819D01*
X193920952Y-93954819D02*
X193825714Y-94002438D01*
X193825714Y-94002438D02*
X193778095Y-94050057D01*
X193778095Y-94050057D02*
X193730476Y-94145295D01*
X193730476Y-94145295D02*
X193730476Y-94192914D01*
X193730476Y-94192914D02*
X193778095Y-94288152D01*
X193778095Y-94288152D02*
X193825714Y-94335771D01*
X193825714Y-94335771D02*
X193920952Y-94383390D01*
X193920952Y-94383390D02*
X194111428Y-94383390D01*
X194111428Y-94383390D02*
X194206666Y-94431009D01*
X194206666Y-94431009D02*
X194254285Y-94478628D01*
X194254285Y-94478628D02*
X194301904Y-94573866D01*
X194301904Y-94573866D02*
X194301904Y-94764342D01*
X194301904Y-94764342D02*
X194254285Y-94859580D01*
X194254285Y-94859580D02*
X194206666Y-94907200D01*
X194206666Y-94907200D02*
X194111428Y-94954819D01*
X194111428Y-94954819D02*
X193920952Y-94954819D01*
X193920952Y-94954819D02*
X193825714Y-94907200D01*
X193825714Y-94907200D02*
X193778095Y-94859580D01*
X193778095Y-94859580D02*
X193730476Y-94764342D01*
X193730476Y-94764342D02*
X193730476Y-94573866D01*
X193730476Y-94573866D02*
X193778095Y-94478628D01*
X193778095Y-94478628D02*
X193825714Y-94431009D01*
X193825714Y-94431009D02*
X193920952Y-94383390D01*
X193397142Y-93954819D02*
X192730476Y-93954819D01*
X192730476Y-93954819D02*
X193159047Y-94954819D01*
X129390857Y-136355919D02*
X129724190Y-135879728D01*
X129962285Y-136355919D02*
X129962285Y-135355919D01*
X129962285Y-135355919D02*
X129581333Y-135355919D01*
X129581333Y-135355919D02*
X129486095Y-135403538D01*
X129486095Y-135403538D02*
X129438476Y-135451157D01*
X129438476Y-135451157D02*
X129390857Y-135546395D01*
X129390857Y-135546395D02*
X129390857Y-135689252D01*
X129390857Y-135689252D02*
X129438476Y-135784490D01*
X129438476Y-135784490D02*
X129486095Y-135832109D01*
X129486095Y-135832109D02*
X129581333Y-135879728D01*
X129581333Y-135879728D02*
X129962285Y-135879728D01*
X128533714Y-135355919D02*
X128724190Y-135355919D01*
X128724190Y-135355919D02*
X128819428Y-135403538D01*
X128819428Y-135403538D02*
X128867047Y-135451157D01*
X128867047Y-135451157D02*
X128962285Y-135594014D01*
X128962285Y-135594014D02*
X129009904Y-135784490D01*
X129009904Y-135784490D02*
X129009904Y-136165442D01*
X129009904Y-136165442D02*
X128962285Y-136260680D01*
X128962285Y-136260680D02*
X128914666Y-136308300D01*
X128914666Y-136308300D02*
X128819428Y-136355919D01*
X128819428Y-136355919D02*
X128628952Y-136355919D01*
X128628952Y-136355919D02*
X128533714Y-136308300D01*
X128533714Y-136308300D02*
X128486095Y-136260680D01*
X128486095Y-136260680D02*
X128438476Y-136165442D01*
X128438476Y-136165442D02*
X128438476Y-135927347D01*
X128438476Y-135927347D02*
X128486095Y-135832109D01*
X128486095Y-135832109D02*
X128533714Y-135784490D01*
X128533714Y-135784490D02*
X128628952Y-135736871D01*
X128628952Y-135736871D02*
X128819428Y-135736871D01*
X128819428Y-135736871D02*
X128914666Y-135784490D01*
X128914666Y-135784490D02*
X128962285Y-135832109D01*
X128962285Y-135832109D02*
X129009904Y-135927347D01*
X127962285Y-136355919D02*
X127771809Y-136355919D01*
X127771809Y-136355919D02*
X127676571Y-136308300D01*
X127676571Y-136308300D02*
X127628952Y-136260680D01*
X127628952Y-136260680D02*
X127533714Y-136117823D01*
X127533714Y-136117823D02*
X127486095Y-135927347D01*
X127486095Y-135927347D02*
X127486095Y-135546395D01*
X127486095Y-135546395D02*
X127533714Y-135451157D01*
X127533714Y-135451157D02*
X127581333Y-135403538D01*
X127581333Y-135403538D02*
X127676571Y-135355919D01*
X127676571Y-135355919D02*
X127867047Y-135355919D01*
X127867047Y-135355919D02*
X127962285Y-135403538D01*
X127962285Y-135403538D02*
X128009904Y-135451157D01*
X128009904Y-135451157D02*
X128057523Y-135546395D01*
X128057523Y-135546395D02*
X128057523Y-135784490D01*
X128057523Y-135784490D02*
X128009904Y-135879728D01*
X128009904Y-135879728D02*
X127962285Y-135927347D01*
X127962285Y-135927347D02*
X127867047Y-135974966D01*
X127867047Y-135974966D02*
X127676571Y-135974966D01*
X127676571Y-135974966D02*
X127581333Y-135927347D01*
X127581333Y-135927347D02*
X127533714Y-135879728D01*
X127533714Y-135879728D02*
X127486095Y-135784490D01*
X208692196Y-117039580D02*
X208739815Y-117087200D01*
X208739815Y-117087200D02*
X208882672Y-117134819D01*
X208882672Y-117134819D02*
X208977910Y-117134819D01*
X208977910Y-117134819D02*
X209120767Y-117087200D01*
X209120767Y-117087200D02*
X209216005Y-116991961D01*
X209216005Y-116991961D02*
X209263624Y-116896723D01*
X209263624Y-116896723D02*
X209311243Y-116706247D01*
X209311243Y-116706247D02*
X209311243Y-116563390D01*
X209311243Y-116563390D02*
X209263624Y-116372914D01*
X209263624Y-116372914D02*
X209216005Y-116277676D01*
X209216005Y-116277676D02*
X209120767Y-116182438D01*
X209120767Y-116182438D02*
X208977910Y-116134819D01*
X208977910Y-116134819D02*
X208882672Y-116134819D01*
X208882672Y-116134819D02*
X208739815Y-116182438D01*
X208739815Y-116182438D02*
X208692196Y-116230057D01*
X207739815Y-117134819D02*
X208311243Y-117134819D01*
X208025529Y-117134819D02*
X208025529Y-116134819D01*
X208025529Y-116134819D02*
X208120767Y-116277676D01*
X208120767Y-116277676D02*
X208216005Y-116372914D01*
X208216005Y-116372914D02*
X208311243Y-116420533D01*
X206787434Y-117134819D02*
X207358862Y-117134819D01*
X207073148Y-117134819D02*
X207073148Y-116134819D01*
X207073148Y-116134819D02*
X207168386Y-116277676D01*
X207168386Y-116277676D02*
X207263624Y-116372914D01*
X207263624Y-116372914D02*
X207358862Y-116420533D01*
X217689580Y-81967142D02*
X217737200Y-81919523D01*
X217737200Y-81919523D02*
X217784819Y-81776666D01*
X217784819Y-81776666D02*
X217784819Y-81681428D01*
X217784819Y-81681428D02*
X217737200Y-81538571D01*
X217737200Y-81538571D02*
X217641961Y-81443333D01*
X217641961Y-81443333D02*
X217546723Y-81395714D01*
X217546723Y-81395714D02*
X217356247Y-81348095D01*
X217356247Y-81348095D02*
X217213390Y-81348095D01*
X217213390Y-81348095D02*
X217022914Y-81395714D01*
X217022914Y-81395714D02*
X216927676Y-81443333D01*
X216927676Y-81443333D02*
X216832438Y-81538571D01*
X216832438Y-81538571D02*
X216784819Y-81681428D01*
X216784819Y-81681428D02*
X216784819Y-81776666D01*
X216784819Y-81776666D02*
X216832438Y-81919523D01*
X216832438Y-81919523D02*
X216880057Y-81967142D01*
X216784819Y-82300476D02*
X216784819Y-82919523D01*
X216784819Y-82919523D02*
X217165771Y-82586190D01*
X217165771Y-82586190D02*
X217165771Y-82729047D01*
X217165771Y-82729047D02*
X217213390Y-82824285D01*
X217213390Y-82824285D02*
X217261009Y-82871904D01*
X217261009Y-82871904D02*
X217356247Y-82919523D01*
X217356247Y-82919523D02*
X217594342Y-82919523D01*
X217594342Y-82919523D02*
X217689580Y-82871904D01*
X217689580Y-82871904D02*
X217737200Y-82824285D01*
X217737200Y-82824285D02*
X217784819Y-82729047D01*
X217784819Y-82729047D02*
X217784819Y-82443333D01*
X217784819Y-82443333D02*
X217737200Y-82348095D01*
X217737200Y-82348095D02*
X217689580Y-82300476D01*
X217784819Y-83395714D02*
X217784819Y-83586190D01*
X217784819Y-83586190D02*
X217737200Y-83681428D01*
X217737200Y-83681428D02*
X217689580Y-83729047D01*
X217689580Y-83729047D02*
X217546723Y-83824285D01*
X217546723Y-83824285D02*
X217356247Y-83871904D01*
X217356247Y-83871904D02*
X216975295Y-83871904D01*
X216975295Y-83871904D02*
X216880057Y-83824285D01*
X216880057Y-83824285D02*
X216832438Y-83776666D01*
X216832438Y-83776666D02*
X216784819Y-83681428D01*
X216784819Y-83681428D02*
X216784819Y-83490952D01*
X216784819Y-83490952D02*
X216832438Y-83395714D01*
X216832438Y-83395714D02*
X216880057Y-83348095D01*
X216880057Y-83348095D02*
X216975295Y-83300476D01*
X216975295Y-83300476D02*
X217213390Y-83300476D01*
X217213390Y-83300476D02*
X217308628Y-83348095D01*
X217308628Y-83348095D02*
X217356247Y-83395714D01*
X217356247Y-83395714D02*
X217403866Y-83490952D01*
X217403866Y-83490952D02*
X217403866Y-83681428D01*
X217403866Y-83681428D02*
X217356247Y-83776666D01*
X217356247Y-83776666D02*
X217308628Y-83824285D01*
X217308628Y-83824285D02*
X217213390Y-83871904D01*
X132718257Y-127706919D02*
X133051590Y-127230728D01*
X133289685Y-127706919D02*
X133289685Y-126706919D01*
X133289685Y-126706919D02*
X132908733Y-126706919D01*
X132908733Y-126706919D02*
X132813495Y-126754538D01*
X132813495Y-126754538D02*
X132765876Y-126802157D01*
X132765876Y-126802157D02*
X132718257Y-126897395D01*
X132718257Y-126897395D02*
X132718257Y-127040252D01*
X132718257Y-127040252D02*
X132765876Y-127135490D01*
X132765876Y-127135490D02*
X132813495Y-127183109D01*
X132813495Y-127183109D02*
X132908733Y-127230728D01*
X132908733Y-127230728D02*
X133289685Y-127230728D01*
X131861114Y-126706919D02*
X132051590Y-126706919D01*
X132051590Y-126706919D02*
X132146828Y-126754538D01*
X132146828Y-126754538D02*
X132194447Y-126802157D01*
X132194447Y-126802157D02*
X132289685Y-126945014D01*
X132289685Y-126945014D02*
X132337304Y-127135490D01*
X132337304Y-127135490D02*
X132337304Y-127516442D01*
X132337304Y-127516442D02*
X132289685Y-127611680D01*
X132289685Y-127611680D02*
X132242066Y-127659300D01*
X132242066Y-127659300D02*
X132146828Y-127706919D01*
X132146828Y-127706919D02*
X131956352Y-127706919D01*
X131956352Y-127706919D02*
X131861114Y-127659300D01*
X131861114Y-127659300D02*
X131813495Y-127611680D01*
X131813495Y-127611680D02*
X131765876Y-127516442D01*
X131765876Y-127516442D02*
X131765876Y-127278347D01*
X131765876Y-127278347D02*
X131813495Y-127183109D01*
X131813495Y-127183109D02*
X131861114Y-127135490D01*
X131861114Y-127135490D02*
X131956352Y-127087871D01*
X131956352Y-127087871D02*
X132146828Y-127087871D01*
X132146828Y-127087871D02*
X132242066Y-127135490D01*
X132242066Y-127135490D02*
X132289685Y-127183109D01*
X132289685Y-127183109D02*
X132337304Y-127278347D01*
X130861114Y-126706919D02*
X131337304Y-126706919D01*
X131337304Y-126706919D02*
X131384923Y-127183109D01*
X131384923Y-127183109D02*
X131337304Y-127135490D01*
X131337304Y-127135490D02*
X131242066Y-127087871D01*
X131242066Y-127087871D02*
X131003971Y-127087871D01*
X131003971Y-127087871D02*
X130908733Y-127135490D01*
X130908733Y-127135490D02*
X130861114Y-127183109D01*
X130861114Y-127183109D02*
X130813495Y-127278347D01*
X130813495Y-127278347D02*
X130813495Y-127516442D01*
X130813495Y-127516442D02*
X130861114Y-127611680D01*
X130861114Y-127611680D02*
X130908733Y-127659300D01*
X130908733Y-127659300D02*
X131003971Y-127706919D01*
X131003971Y-127706919D02*
X131242066Y-127706919D01*
X131242066Y-127706919D02*
X131337304Y-127659300D01*
X131337304Y-127659300D02*
X131384923Y-127611680D01*
X129390857Y-75681519D02*
X129724190Y-75205328D01*
X129962285Y-75681519D02*
X129962285Y-74681519D01*
X129962285Y-74681519D02*
X129581333Y-74681519D01*
X129581333Y-74681519D02*
X129486095Y-74729138D01*
X129486095Y-74729138D02*
X129438476Y-74776757D01*
X129438476Y-74776757D02*
X129390857Y-74871995D01*
X129390857Y-74871995D02*
X129390857Y-75014852D01*
X129390857Y-75014852D02*
X129438476Y-75110090D01*
X129438476Y-75110090D02*
X129486095Y-75157709D01*
X129486095Y-75157709D02*
X129581333Y-75205328D01*
X129581333Y-75205328D02*
X129962285Y-75205328D01*
X129057523Y-74681519D02*
X128438476Y-74681519D01*
X128438476Y-74681519D02*
X128771809Y-75062471D01*
X128771809Y-75062471D02*
X128628952Y-75062471D01*
X128628952Y-75062471D02*
X128533714Y-75110090D01*
X128533714Y-75110090D02*
X128486095Y-75157709D01*
X128486095Y-75157709D02*
X128438476Y-75252947D01*
X128438476Y-75252947D02*
X128438476Y-75491042D01*
X128438476Y-75491042D02*
X128486095Y-75586280D01*
X128486095Y-75586280D02*
X128533714Y-75633900D01*
X128533714Y-75633900D02*
X128628952Y-75681519D01*
X128628952Y-75681519D02*
X128914666Y-75681519D01*
X128914666Y-75681519D02*
X129009904Y-75633900D01*
X129009904Y-75633900D02*
X129057523Y-75586280D01*
X127819428Y-74681519D02*
X127724190Y-74681519D01*
X127724190Y-74681519D02*
X127628952Y-74729138D01*
X127628952Y-74729138D02*
X127581333Y-74776757D01*
X127581333Y-74776757D02*
X127533714Y-74871995D01*
X127533714Y-74871995D02*
X127486095Y-75062471D01*
X127486095Y-75062471D02*
X127486095Y-75300566D01*
X127486095Y-75300566D02*
X127533714Y-75491042D01*
X127533714Y-75491042D02*
X127581333Y-75586280D01*
X127581333Y-75586280D02*
X127628952Y-75633900D01*
X127628952Y-75633900D02*
X127724190Y-75681519D01*
X127724190Y-75681519D02*
X127819428Y-75681519D01*
X127819428Y-75681519D02*
X127914666Y-75633900D01*
X127914666Y-75633900D02*
X127962285Y-75586280D01*
X127962285Y-75586280D02*
X128009904Y-75491042D01*
X128009904Y-75491042D02*
X128057523Y-75300566D01*
X128057523Y-75300566D02*
X128057523Y-75062471D01*
X128057523Y-75062471D02*
X128009904Y-74871995D01*
X128009904Y-74871995D02*
X127962285Y-74776757D01*
X127962285Y-74776757D02*
X127914666Y-74729138D01*
X127914666Y-74729138D02*
X127819428Y-74681519D01*
X157023957Y-74296419D02*
X157357290Y-73820228D01*
X157595385Y-74296419D02*
X157595385Y-73296419D01*
X157595385Y-73296419D02*
X157214433Y-73296419D01*
X157214433Y-73296419D02*
X157119195Y-73344038D01*
X157119195Y-73344038D02*
X157071576Y-73391657D01*
X157071576Y-73391657D02*
X157023957Y-73486895D01*
X157023957Y-73486895D02*
X157023957Y-73629752D01*
X157023957Y-73629752D02*
X157071576Y-73724990D01*
X157071576Y-73724990D02*
X157119195Y-73772609D01*
X157119195Y-73772609D02*
X157214433Y-73820228D01*
X157214433Y-73820228D02*
X157595385Y-73820228D01*
X156643004Y-73391657D02*
X156595385Y-73344038D01*
X156595385Y-73344038D02*
X156500147Y-73296419D01*
X156500147Y-73296419D02*
X156262052Y-73296419D01*
X156262052Y-73296419D02*
X156166814Y-73344038D01*
X156166814Y-73344038D02*
X156119195Y-73391657D01*
X156119195Y-73391657D02*
X156071576Y-73486895D01*
X156071576Y-73486895D02*
X156071576Y-73582133D01*
X156071576Y-73582133D02*
X156119195Y-73724990D01*
X156119195Y-73724990D02*
X156690623Y-74296419D01*
X156690623Y-74296419D02*
X156071576Y-74296419D01*
X155500147Y-73724990D02*
X155595385Y-73677371D01*
X155595385Y-73677371D02*
X155643004Y-73629752D01*
X155643004Y-73629752D02*
X155690623Y-73534514D01*
X155690623Y-73534514D02*
X155690623Y-73486895D01*
X155690623Y-73486895D02*
X155643004Y-73391657D01*
X155643004Y-73391657D02*
X155595385Y-73344038D01*
X155595385Y-73344038D02*
X155500147Y-73296419D01*
X155500147Y-73296419D02*
X155309671Y-73296419D01*
X155309671Y-73296419D02*
X155214433Y-73344038D01*
X155214433Y-73344038D02*
X155166814Y-73391657D01*
X155166814Y-73391657D02*
X155119195Y-73486895D01*
X155119195Y-73486895D02*
X155119195Y-73534514D01*
X155119195Y-73534514D02*
X155166814Y-73629752D01*
X155166814Y-73629752D02*
X155214433Y-73677371D01*
X155214433Y-73677371D02*
X155309671Y-73724990D01*
X155309671Y-73724990D02*
X155500147Y-73724990D01*
X155500147Y-73724990D02*
X155595385Y-73772609D01*
X155595385Y-73772609D02*
X155643004Y-73820228D01*
X155643004Y-73820228D02*
X155690623Y-73915466D01*
X155690623Y-73915466D02*
X155690623Y-74105942D01*
X155690623Y-74105942D02*
X155643004Y-74201180D01*
X155643004Y-74201180D02*
X155595385Y-74248800D01*
X155595385Y-74248800D02*
X155500147Y-74296419D01*
X155500147Y-74296419D02*
X155309671Y-74296419D01*
X155309671Y-74296419D02*
X155214433Y-74248800D01*
X155214433Y-74248800D02*
X155166814Y-74201180D01*
X155166814Y-74201180D02*
X155119195Y-74105942D01*
X155119195Y-74105942D02*
X155119195Y-73915466D01*
X155119195Y-73915466D02*
X155166814Y-73820228D01*
X155166814Y-73820228D02*
X155214433Y-73772609D01*
X155214433Y-73772609D02*
X155309671Y-73724990D01*
X85324557Y-85104419D02*
X85657890Y-84628228D01*
X85895985Y-85104419D02*
X85895985Y-84104419D01*
X85895985Y-84104419D02*
X85515033Y-84104419D01*
X85515033Y-84104419D02*
X85419795Y-84152038D01*
X85419795Y-84152038D02*
X85372176Y-84199657D01*
X85372176Y-84199657D02*
X85324557Y-84294895D01*
X85324557Y-84294895D02*
X85324557Y-84437752D01*
X85324557Y-84437752D02*
X85372176Y-84532990D01*
X85372176Y-84532990D02*
X85419795Y-84580609D01*
X85419795Y-84580609D02*
X85515033Y-84628228D01*
X85515033Y-84628228D02*
X85895985Y-84628228D01*
X84991223Y-84104419D02*
X84372176Y-84104419D01*
X84372176Y-84104419D02*
X84705509Y-84485371D01*
X84705509Y-84485371D02*
X84562652Y-84485371D01*
X84562652Y-84485371D02*
X84467414Y-84532990D01*
X84467414Y-84532990D02*
X84419795Y-84580609D01*
X84419795Y-84580609D02*
X84372176Y-84675847D01*
X84372176Y-84675847D02*
X84372176Y-84913942D01*
X84372176Y-84913942D02*
X84419795Y-85009180D01*
X84419795Y-85009180D02*
X84467414Y-85056800D01*
X84467414Y-85056800D02*
X84562652Y-85104419D01*
X84562652Y-85104419D02*
X84848366Y-85104419D01*
X84848366Y-85104419D02*
X84943604Y-85056800D01*
X84943604Y-85056800D02*
X84991223Y-85009180D01*
X83515033Y-84104419D02*
X83705509Y-84104419D01*
X83705509Y-84104419D02*
X83800747Y-84152038D01*
X83800747Y-84152038D02*
X83848366Y-84199657D01*
X83848366Y-84199657D02*
X83943604Y-84342514D01*
X83943604Y-84342514D02*
X83991223Y-84532990D01*
X83991223Y-84532990D02*
X83991223Y-84913942D01*
X83991223Y-84913942D02*
X83943604Y-85009180D01*
X83943604Y-85009180D02*
X83895985Y-85056800D01*
X83895985Y-85056800D02*
X83800747Y-85104419D01*
X83800747Y-85104419D02*
X83610271Y-85104419D01*
X83610271Y-85104419D02*
X83515033Y-85056800D01*
X83515033Y-85056800D02*
X83467414Y-85009180D01*
X83467414Y-85009180D02*
X83419795Y-84913942D01*
X83419795Y-84913942D02*
X83419795Y-84675847D01*
X83419795Y-84675847D02*
X83467414Y-84580609D01*
X83467414Y-84580609D02*
X83515033Y-84532990D01*
X83515033Y-84532990D02*
X83610271Y-84485371D01*
X83610271Y-84485371D02*
X83800747Y-84485371D01*
X83800747Y-84485371D02*
X83895985Y-84532990D01*
X83895985Y-84532990D02*
X83943604Y-84580609D01*
X83943604Y-84580609D02*
X83991223Y-84675847D01*
X157023957Y-87296419D02*
X157357290Y-86820228D01*
X157595385Y-87296419D02*
X157595385Y-86296419D01*
X157595385Y-86296419D02*
X157214433Y-86296419D01*
X157214433Y-86296419D02*
X157119195Y-86344038D01*
X157119195Y-86344038D02*
X157071576Y-86391657D01*
X157071576Y-86391657D02*
X157023957Y-86486895D01*
X157023957Y-86486895D02*
X157023957Y-86629752D01*
X157023957Y-86629752D02*
X157071576Y-86724990D01*
X157071576Y-86724990D02*
X157119195Y-86772609D01*
X157119195Y-86772609D02*
X157214433Y-86820228D01*
X157214433Y-86820228D02*
X157595385Y-86820228D01*
X156690623Y-86296419D02*
X156071576Y-86296419D01*
X156071576Y-86296419D02*
X156404909Y-86677371D01*
X156404909Y-86677371D02*
X156262052Y-86677371D01*
X156262052Y-86677371D02*
X156166814Y-86724990D01*
X156166814Y-86724990D02*
X156119195Y-86772609D01*
X156119195Y-86772609D02*
X156071576Y-86867847D01*
X156071576Y-86867847D02*
X156071576Y-87105942D01*
X156071576Y-87105942D02*
X156119195Y-87201180D01*
X156119195Y-87201180D02*
X156166814Y-87248800D01*
X156166814Y-87248800D02*
X156262052Y-87296419D01*
X156262052Y-87296419D02*
X156547766Y-87296419D01*
X156547766Y-87296419D02*
X156643004Y-87248800D01*
X156643004Y-87248800D02*
X156690623Y-87201180D01*
X155738242Y-86296419D02*
X155071576Y-86296419D01*
X155071576Y-86296419D02*
X155500147Y-87296419D01*
X94724557Y-124101419D02*
X95057890Y-123625228D01*
X95295985Y-124101419D02*
X95295985Y-123101419D01*
X95295985Y-123101419D02*
X94915033Y-123101419D01*
X94915033Y-123101419D02*
X94819795Y-123149038D01*
X94819795Y-123149038D02*
X94772176Y-123196657D01*
X94772176Y-123196657D02*
X94724557Y-123291895D01*
X94724557Y-123291895D02*
X94724557Y-123434752D01*
X94724557Y-123434752D02*
X94772176Y-123529990D01*
X94772176Y-123529990D02*
X94819795Y-123577609D01*
X94819795Y-123577609D02*
X94915033Y-123625228D01*
X94915033Y-123625228D02*
X95295985Y-123625228D01*
X93867414Y-123101419D02*
X94057890Y-123101419D01*
X94057890Y-123101419D02*
X94153128Y-123149038D01*
X94153128Y-123149038D02*
X94200747Y-123196657D01*
X94200747Y-123196657D02*
X94295985Y-123339514D01*
X94295985Y-123339514D02*
X94343604Y-123529990D01*
X94343604Y-123529990D02*
X94343604Y-123910942D01*
X94343604Y-123910942D02*
X94295985Y-124006180D01*
X94295985Y-124006180D02*
X94248366Y-124053800D01*
X94248366Y-124053800D02*
X94153128Y-124101419D01*
X94153128Y-124101419D02*
X93962652Y-124101419D01*
X93962652Y-124101419D02*
X93867414Y-124053800D01*
X93867414Y-124053800D02*
X93819795Y-124006180D01*
X93819795Y-124006180D02*
X93772176Y-123910942D01*
X93772176Y-123910942D02*
X93772176Y-123672847D01*
X93772176Y-123672847D02*
X93819795Y-123577609D01*
X93819795Y-123577609D02*
X93867414Y-123529990D01*
X93867414Y-123529990D02*
X93962652Y-123482371D01*
X93962652Y-123482371D02*
X94153128Y-123482371D01*
X94153128Y-123482371D02*
X94248366Y-123529990D01*
X94248366Y-123529990D02*
X94295985Y-123577609D01*
X94295985Y-123577609D02*
X94343604Y-123672847D01*
X93391223Y-123196657D02*
X93343604Y-123149038D01*
X93343604Y-123149038D02*
X93248366Y-123101419D01*
X93248366Y-123101419D02*
X93010271Y-123101419D01*
X93010271Y-123101419D02*
X92915033Y-123149038D01*
X92915033Y-123149038D02*
X92867414Y-123196657D01*
X92867414Y-123196657D02*
X92819795Y-123291895D01*
X92819795Y-123291895D02*
X92819795Y-123387133D01*
X92819795Y-123387133D02*
X92867414Y-123529990D01*
X92867414Y-123529990D02*
X93438842Y-124101419D01*
X93438842Y-124101419D02*
X92819795Y-124101419D01*
X112254557Y-72114419D02*
X112587890Y-71638228D01*
X112825985Y-72114419D02*
X112825985Y-71114419D01*
X112825985Y-71114419D02*
X112445033Y-71114419D01*
X112445033Y-71114419D02*
X112349795Y-71162038D01*
X112349795Y-71162038D02*
X112302176Y-71209657D01*
X112302176Y-71209657D02*
X112254557Y-71304895D01*
X112254557Y-71304895D02*
X112254557Y-71447752D01*
X112254557Y-71447752D02*
X112302176Y-71542990D01*
X112302176Y-71542990D02*
X112349795Y-71590609D01*
X112349795Y-71590609D02*
X112445033Y-71638228D01*
X112445033Y-71638228D02*
X112825985Y-71638228D01*
X111873604Y-71209657D02*
X111825985Y-71162038D01*
X111825985Y-71162038D02*
X111730747Y-71114419D01*
X111730747Y-71114419D02*
X111492652Y-71114419D01*
X111492652Y-71114419D02*
X111397414Y-71162038D01*
X111397414Y-71162038D02*
X111349795Y-71209657D01*
X111349795Y-71209657D02*
X111302176Y-71304895D01*
X111302176Y-71304895D02*
X111302176Y-71400133D01*
X111302176Y-71400133D02*
X111349795Y-71542990D01*
X111349795Y-71542990D02*
X111921223Y-72114419D01*
X111921223Y-72114419D02*
X111302176Y-72114419D01*
X110397414Y-71114419D02*
X110873604Y-71114419D01*
X110873604Y-71114419D02*
X110921223Y-71590609D01*
X110921223Y-71590609D02*
X110873604Y-71542990D01*
X110873604Y-71542990D02*
X110778366Y-71495371D01*
X110778366Y-71495371D02*
X110540271Y-71495371D01*
X110540271Y-71495371D02*
X110445033Y-71542990D01*
X110445033Y-71542990D02*
X110397414Y-71590609D01*
X110397414Y-71590609D02*
X110349795Y-71685847D01*
X110349795Y-71685847D02*
X110349795Y-71923942D01*
X110349795Y-71923942D02*
X110397414Y-72019180D01*
X110397414Y-72019180D02*
X110445033Y-72066800D01*
X110445033Y-72066800D02*
X110540271Y-72114419D01*
X110540271Y-72114419D02*
X110778366Y-72114419D01*
X110778366Y-72114419D02*
X110873604Y-72066800D01*
X110873604Y-72066800D02*
X110921223Y-72019180D01*
X85324557Y-124104419D02*
X85657890Y-123628228D01*
X85895985Y-124104419D02*
X85895985Y-123104419D01*
X85895985Y-123104419D02*
X85515033Y-123104419D01*
X85515033Y-123104419D02*
X85419795Y-123152038D01*
X85419795Y-123152038D02*
X85372176Y-123199657D01*
X85372176Y-123199657D02*
X85324557Y-123294895D01*
X85324557Y-123294895D02*
X85324557Y-123437752D01*
X85324557Y-123437752D02*
X85372176Y-123532990D01*
X85372176Y-123532990D02*
X85419795Y-123580609D01*
X85419795Y-123580609D02*
X85515033Y-123628228D01*
X85515033Y-123628228D02*
X85895985Y-123628228D01*
X84467414Y-123104419D02*
X84657890Y-123104419D01*
X84657890Y-123104419D02*
X84753128Y-123152038D01*
X84753128Y-123152038D02*
X84800747Y-123199657D01*
X84800747Y-123199657D02*
X84895985Y-123342514D01*
X84895985Y-123342514D02*
X84943604Y-123532990D01*
X84943604Y-123532990D02*
X84943604Y-123913942D01*
X84943604Y-123913942D02*
X84895985Y-124009180D01*
X84895985Y-124009180D02*
X84848366Y-124056800D01*
X84848366Y-124056800D02*
X84753128Y-124104419D01*
X84753128Y-124104419D02*
X84562652Y-124104419D01*
X84562652Y-124104419D02*
X84467414Y-124056800D01*
X84467414Y-124056800D02*
X84419795Y-124009180D01*
X84419795Y-124009180D02*
X84372176Y-123913942D01*
X84372176Y-123913942D02*
X84372176Y-123675847D01*
X84372176Y-123675847D02*
X84419795Y-123580609D01*
X84419795Y-123580609D02*
X84467414Y-123532990D01*
X84467414Y-123532990D02*
X84562652Y-123485371D01*
X84562652Y-123485371D02*
X84753128Y-123485371D01*
X84753128Y-123485371D02*
X84848366Y-123532990D01*
X84848366Y-123532990D02*
X84895985Y-123580609D01*
X84895985Y-123580609D02*
X84943604Y-123675847D01*
X84038842Y-123104419D02*
X83419795Y-123104419D01*
X83419795Y-123104419D02*
X83753128Y-123485371D01*
X83753128Y-123485371D02*
X83610271Y-123485371D01*
X83610271Y-123485371D02*
X83515033Y-123532990D01*
X83515033Y-123532990D02*
X83467414Y-123580609D01*
X83467414Y-123580609D02*
X83419795Y-123675847D01*
X83419795Y-123675847D02*
X83419795Y-123913942D01*
X83419795Y-123913942D02*
X83467414Y-124009180D01*
X83467414Y-124009180D02*
X83515033Y-124056800D01*
X83515033Y-124056800D02*
X83610271Y-124104419D01*
X83610271Y-124104419D02*
X83895985Y-124104419D01*
X83895985Y-124104419D02*
X83991223Y-124056800D01*
X83991223Y-124056800D02*
X84038842Y-124009180D01*
X129390857Y-84355919D02*
X129724190Y-83879728D01*
X129962285Y-84355919D02*
X129962285Y-83355919D01*
X129962285Y-83355919D02*
X129581333Y-83355919D01*
X129581333Y-83355919D02*
X129486095Y-83403538D01*
X129486095Y-83403538D02*
X129438476Y-83451157D01*
X129438476Y-83451157D02*
X129390857Y-83546395D01*
X129390857Y-83546395D02*
X129390857Y-83689252D01*
X129390857Y-83689252D02*
X129438476Y-83784490D01*
X129438476Y-83784490D02*
X129486095Y-83832109D01*
X129486095Y-83832109D02*
X129581333Y-83879728D01*
X129581333Y-83879728D02*
X129962285Y-83879728D01*
X129057523Y-83355919D02*
X128438476Y-83355919D01*
X128438476Y-83355919D02*
X128771809Y-83736871D01*
X128771809Y-83736871D02*
X128628952Y-83736871D01*
X128628952Y-83736871D02*
X128533714Y-83784490D01*
X128533714Y-83784490D02*
X128486095Y-83832109D01*
X128486095Y-83832109D02*
X128438476Y-83927347D01*
X128438476Y-83927347D02*
X128438476Y-84165442D01*
X128438476Y-84165442D02*
X128486095Y-84260680D01*
X128486095Y-84260680D02*
X128533714Y-84308300D01*
X128533714Y-84308300D02*
X128628952Y-84355919D01*
X128628952Y-84355919D02*
X128914666Y-84355919D01*
X128914666Y-84355919D02*
X129009904Y-84308300D01*
X129009904Y-84308300D02*
X129057523Y-84260680D01*
X128105142Y-83355919D02*
X127486095Y-83355919D01*
X127486095Y-83355919D02*
X127819428Y-83736871D01*
X127819428Y-83736871D02*
X127676571Y-83736871D01*
X127676571Y-83736871D02*
X127581333Y-83784490D01*
X127581333Y-83784490D02*
X127533714Y-83832109D01*
X127533714Y-83832109D02*
X127486095Y-83927347D01*
X127486095Y-83927347D02*
X127486095Y-84165442D01*
X127486095Y-84165442D02*
X127533714Y-84260680D01*
X127533714Y-84260680D02*
X127581333Y-84308300D01*
X127581333Y-84308300D02*
X127676571Y-84355919D01*
X127676571Y-84355919D02*
X127962285Y-84355919D01*
X127962285Y-84355919D02*
X128057523Y-84308300D01*
X128057523Y-84308300D02*
X128105142Y-84260680D01*
X112254557Y-124114419D02*
X112587890Y-123638228D01*
X112825985Y-124114419D02*
X112825985Y-123114419D01*
X112825985Y-123114419D02*
X112445033Y-123114419D01*
X112445033Y-123114419D02*
X112349795Y-123162038D01*
X112349795Y-123162038D02*
X112302176Y-123209657D01*
X112302176Y-123209657D02*
X112254557Y-123304895D01*
X112254557Y-123304895D02*
X112254557Y-123447752D01*
X112254557Y-123447752D02*
X112302176Y-123542990D01*
X112302176Y-123542990D02*
X112349795Y-123590609D01*
X112349795Y-123590609D02*
X112445033Y-123638228D01*
X112445033Y-123638228D02*
X112825985Y-123638228D01*
X111397414Y-123114419D02*
X111587890Y-123114419D01*
X111587890Y-123114419D02*
X111683128Y-123162038D01*
X111683128Y-123162038D02*
X111730747Y-123209657D01*
X111730747Y-123209657D02*
X111825985Y-123352514D01*
X111825985Y-123352514D02*
X111873604Y-123542990D01*
X111873604Y-123542990D02*
X111873604Y-123923942D01*
X111873604Y-123923942D02*
X111825985Y-124019180D01*
X111825985Y-124019180D02*
X111778366Y-124066800D01*
X111778366Y-124066800D02*
X111683128Y-124114419D01*
X111683128Y-124114419D02*
X111492652Y-124114419D01*
X111492652Y-124114419D02*
X111397414Y-124066800D01*
X111397414Y-124066800D02*
X111349795Y-124019180D01*
X111349795Y-124019180D02*
X111302176Y-123923942D01*
X111302176Y-123923942D02*
X111302176Y-123685847D01*
X111302176Y-123685847D02*
X111349795Y-123590609D01*
X111349795Y-123590609D02*
X111397414Y-123542990D01*
X111397414Y-123542990D02*
X111492652Y-123495371D01*
X111492652Y-123495371D02*
X111683128Y-123495371D01*
X111683128Y-123495371D02*
X111778366Y-123542990D01*
X111778366Y-123542990D02*
X111825985Y-123590609D01*
X111825985Y-123590609D02*
X111873604Y-123685847D01*
X110349795Y-124114419D02*
X110921223Y-124114419D01*
X110635509Y-124114419D02*
X110635509Y-123114419D01*
X110635509Y-123114419D02*
X110730747Y-123257276D01*
X110730747Y-123257276D02*
X110825985Y-123352514D01*
X110825985Y-123352514D02*
X110921223Y-123400133D01*
X85324557Y-72104419D02*
X85657890Y-71628228D01*
X85895985Y-72104419D02*
X85895985Y-71104419D01*
X85895985Y-71104419D02*
X85515033Y-71104419D01*
X85515033Y-71104419D02*
X85419795Y-71152038D01*
X85419795Y-71152038D02*
X85372176Y-71199657D01*
X85372176Y-71199657D02*
X85324557Y-71294895D01*
X85324557Y-71294895D02*
X85324557Y-71437752D01*
X85324557Y-71437752D02*
X85372176Y-71532990D01*
X85372176Y-71532990D02*
X85419795Y-71580609D01*
X85419795Y-71580609D02*
X85515033Y-71628228D01*
X85515033Y-71628228D02*
X85895985Y-71628228D01*
X84943604Y-71199657D02*
X84895985Y-71152038D01*
X84895985Y-71152038D02*
X84800747Y-71104419D01*
X84800747Y-71104419D02*
X84562652Y-71104419D01*
X84562652Y-71104419D02*
X84467414Y-71152038D01*
X84467414Y-71152038D02*
X84419795Y-71199657D01*
X84419795Y-71199657D02*
X84372176Y-71294895D01*
X84372176Y-71294895D02*
X84372176Y-71390133D01*
X84372176Y-71390133D02*
X84419795Y-71532990D01*
X84419795Y-71532990D02*
X84991223Y-72104419D01*
X84991223Y-72104419D02*
X84372176Y-72104419D01*
X84038842Y-71104419D02*
X83372176Y-71104419D01*
X83372176Y-71104419D02*
X83800747Y-72104419D01*
X112254557Y-111114419D02*
X112587890Y-110638228D01*
X112825985Y-111114419D02*
X112825985Y-110114419D01*
X112825985Y-110114419D02*
X112445033Y-110114419D01*
X112445033Y-110114419D02*
X112349795Y-110162038D01*
X112349795Y-110162038D02*
X112302176Y-110209657D01*
X112302176Y-110209657D02*
X112254557Y-110304895D01*
X112254557Y-110304895D02*
X112254557Y-110447752D01*
X112254557Y-110447752D02*
X112302176Y-110542990D01*
X112302176Y-110542990D02*
X112349795Y-110590609D01*
X112349795Y-110590609D02*
X112445033Y-110638228D01*
X112445033Y-110638228D02*
X112825985Y-110638228D01*
X111349795Y-110114419D02*
X111825985Y-110114419D01*
X111825985Y-110114419D02*
X111873604Y-110590609D01*
X111873604Y-110590609D02*
X111825985Y-110542990D01*
X111825985Y-110542990D02*
X111730747Y-110495371D01*
X111730747Y-110495371D02*
X111492652Y-110495371D01*
X111492652Y-110495371D02*
X111397414Y-110542990D01*
X111397414Y-110542990D02*
X111349795Y-110590609D01*
X111349795Y-110590609D02*
X111302176Y-110685847D01*
X111302176Y-110685847D02*
X111302176Y-110923942D01*
X111302176Y-110923942D02*
X111349795Y-111019180D01*
X111349795Y-111019180D02*
X111397414Y-111066800D01*
X111397414Y-111066800D02*
X111492652Y-111114419D01*
X111492652Y-111114419D02*
X111730747Y-111114419D01*
X111730747Y-111114419D02*
X111825985Y-111066800D01*
X111825985Y-111066800D02*
X111873604Y-111019180D01*
X110921223Y-110209657D02*
X110873604Y-110162038D01*
X110873604Y-110162038D02*
X110778366Y-110114419D01*
X110778366Y-110114419D02*
X110540271Y-110114419D01*
X110540271Y-110114419D02*
X110445033Y-110162038D01*
X110445033Y-110162038D02*
X110397414Y-110209657D01*
X110397414Y-110209657D02*
X110349795Y-110304895D01*
X110349795Y-110304895D02*
X110349795Y-110400133D01*
X110349795Y-110400133D02*
X110397414Y-110542990D01*
X110397414Y-110542990D02*
X110968842Y-111114419D01*
X110968842Y-111114419D02*
X110349795Y-111114419D01*
X194682857Y-99274819D02*
X195016190Y-98798628D01*
X195254285Y-99274819D02*
X195254285Y-98274819D01*
X195254285Y-98274819D02*
X194873333Y-98274819D01*
X194873333Y-98274819D02*
X194778095Y-98322438D01*
X194778095Y-98322438D02*
X194730476Y-98370057D01*
X194730476Y-98370057D02*
X194682857Y-98465295D01*
X194682857Y-98465295D02*
X194682857Y-98608152D01*
X194682857Y-98608152D02*
X194730476Y-98703390D01*
X194730476Y-98703390D02*
X194778095Y-98751009D01*
X194778095Y-98751009D02*
X194873333Y-98798628D01*
X194873333Y-98798628D02*
X195254285Y-98798628D01*
X194111428Y-98703390D02*
X194206666Y-98655771D01*
X194206666Y-98655771D02*
X194254285Y-98608152D01*
X194254285Y-98608152D02*
X194301904Y-98512914D01*
X194301904Y-98512914D02*
X194301904Y-98465295D01*
X194301904Y-98465295D02*
X194254285Y-98370057D01*
X194254285Y-98370057D02*
X194206666Y-98322438D01*
X194206666Y-98322438D02*
X194111428Y-98274819D01*
X194111428Y-98274819D02*
X193920952Y-98274819D01*
X193920952Y-98274819D02*
X193825714Y-98322438D01*
X193825714Y-98322438D02*
X193778095Y-98370057D01*
X193778095Y-98370057D02*
X193730476Y-98465295D01*
X193730476Y-98465295D02*
X193730476Y-98512914D01*
X193730476Y-98512914D02*
X193778095Y-98608152D01*
X193778095Y-98608152D02*
X193825714Y-98655771D01*
X193825714Y-98655771D02*
X193920952Y-98703390D01*
X193920952Y-98703390D02*
X194111428Y-98703390D01*
X194111428Y-98703390D02*
X194206666Y-98751009D01*
X194206666Y-98751009D02*
X194254285Y-98798628D01*
X194254285Y-98798628D02*
X194301904Y-98893866D01*
X194301904Y-98893866D02*
X194301904Y-99084342D01*
X194301904Y-99084342D02*
X194254285Y-99179580D01*
X194254285Y-99179580D02*
X194206666Y-99227200D01*
X194206666Y-99227200D02*
X194111428Y-99274819D01*
X194111428Y-99274819D02*
X193920952Y-99274819D01*
X193920952Y-99274819D02*
X193825714Y-99227200D01*
X193825714Y-99227200D02*
X193778095Y-99179580D01*
X193778095Y-99179580D02*
X193730476Y-99084342D01*
X193730476Y-99084342D02*
X193730476Y-98893866D01*
X193730476Y-98893866D02*
X193778095Y-98798628D01*
X193778095Y-98798628D02*
X193825714Y-98751009D01*
X193825714Y-98751009D02*
X193920952Y-98703390D01*
X192873333Y-98274819D02*
X193063809Y-98274819D01*
X193063809Y-98274819D02*
X193159047Y-98322438D01*
X193159047Y-98322438D02*
X193206666Y-98370057D01*
X193206666Y-98370057D02*
X193301904Y-98512914D01*
X193301904Y-98512914D02*
X193349523Y-98703390D01*
X193349523Y-98703390D02*
X193349523Y-99084342D01*
X193349523Y-99084342D02*
X193301904Y-99179580D01*
X193301904Y-99179580D02*
X193254285Y-99227200D01*
X193254285Y-99227200D02*
X193159047Y-99274819D01*
X193159047Y-99274819D02*
X192968571Y-99274819D01*
X192968571Y-99274819D02*
X192873333Y-99227200D01*
X192873333Y-99227200D02*
X192825714Y-99179580D01*
X192825714Y-99179580D02*
X192778095Y-99084342D01*
X192778095Y-99084342D02*
X192778095Y-98846247D01*
X192778095Y-98846247D02*
X192825714Y-98751009D01*
X192825714Y-98751009D02*
X192873333Y-98703390D01*
X192873333Y-98703390D02*
X192968571Y-98655771D01*
X192968571Y-98655771D02*
X193159047Y-98655771D01*
X193159047Y-98655771D02*
X193254285Y-98703390D01*
X193254285Y-98703390D02*
X193301904Y-98751009D01*
X193301904Y-98751009D02*
X193349523Y-98846247D01*
X157023957Y-137772419D02*
X157357290Y-137296228D01*
X157595385Y-137772419D02*
X157595385Y-136772419D01*
X157595385Y-136772419D02*
X157214433Y-136772419D01*
X157214433Y-136772419D02*
X157119195Y-136820038D01*
X157119195Y-136820038D02*
X157071576Y-136867657D01*
X157071576Y-136867657D02*
X157023957Y-136962895D01*
X157023957Y-136962895D02*
X157023957Y-137105752D01*
X157023957Y-137105752D02*
X157071576Y-137200990D01*
X157071576Y-137200990D02*
X157119195Y-137248609D01*
X157119195Y-137248609D02*
X157214433Y-137296228D01*
X157214433Y-137296228D02*
X157595385Y-137296228D01*
X156166814Y-136772419D02*
X156357290Y-136772419D01*
X156357290Y-136772419D02*
X156452528Y-136820038D01*
X156452528Y-136820038D02*
X156500147Y-136867657D01*
X156500147Y-136867657D02*
X156595385Y-137010514D01*
X156595385Y-137010514D02*
X156643004Y-137200990D01*
X156643004Y-137200990D02*
X156643004Y-137581942D01*
X156643004Y-137581942D02*
X156595385Y-137677180D01*
X156595385Y-137677180D02*
X156547766Y-137724800D01*
X156547766Y-137724800D02*
X156452528Y-137772419D01*
X156452528Y-137772419D02*
X156262052Y-137772419D01*
X156262052Y-137772419D02*
X156166814Y-137724800D01*
X156166814Y-137724800D02*
X156119195Y-137677180D01*
X156119195Y-137677180D02*
X156071576Y-137581942D01*
X156071576Y-137581942D02*
X156071576Y-137343847D01*
X156071576Y-137343847D02*
X156119195Y-137248609D01*
X156119195Y-137248609D02*
X156166814Y-137200990D01*
X156166814Y-137200990D02*
X156262052Y-137153371D01*
X156262052Y-137153371D02*
X156452528Y-137153371D01*
X156452528Y-137153371D02*
X156547766Y-137200990D01*
X156547766Y-137200990D02*
X156595385Y-137248609D01*
X156595385Y-137248609D02*
X156643004Y-137343847D01*
X155738242Y-136772419D02*
X155071576Y-136772419D01*
X155071576Y-136772419D02*
X155500147Y-137772419D01*
X85324557Y-111104419D02*
X85657890Y-110628228D01*
X85895985Y-111104419D02*
X85895985Y-110104419D01*
X85895985Y-110104419D02*
X85515033Y-110104419D01*
X85515033Y-110104419D02*
X85419795Y-110152038D01*
X85419795Y-110152038D02*
X85372176Y-110199657D01*
X85372176Y-110199657D02*
X85324557Y-110294895D01*
X85324557Y-110294895D02*
X85324557Y-110437752D01*
X85324557Y-110437752D02*
X85372176Y-110532990D01*
X85372176Y-110532990D02*
X85419795Y-110580609D01*
X85419795Y-110580609D02*
X85515033Y-110628228D01*
X85515033Y-110628228D02*
X85895985Y-110628228D01*
X84419795Y-110104419D02*
X84895985Y-110104419D01*
X84895985Y-110104419D02*
X84943604Y-110580609D01*
X84943604Y-110580609D02*
X84895985Y-110532990D01*
X84895985Y-110532990D02*
X84800747Y-110485371D01*
X84800747Y-110485371D02*
X84562652Y-110485371D01*
X84562652Y-110485371D02*
X84467414Y-110532990D01*
X84467414Y-110532990D02*
X84419795Y-110580609D01*
X84419795Y-110580609D02*
X84372176Y-110675847D01*
X84372176Y-110675847D02*
X84372176Y-110913942D01*
X84372176Y-110913942D02*
X84419795Y-111009180D01*
X84419795Y-111009180D02*
X84467414Y-111056800D01*
X84467414Y-111056800D02*
X84562652Y-111104419D01*
X84562652Y-111104419D02*
X84800747Y-111104419D01*
X84800747Y-111104419D02*
X84895985Y-111056800D01*
X84895985Y-111056800D02*
X84943604Y-111009180D01*
X83515033Y-110437752D02*
X83515033Y-111104419D01*
X83753128Y-110056800D02*
X83991223Y-110771085D01*
X83991223Y-110771085D02*
X83372176Y-110771085D01*
X112254557Y-98114419D02*
X112587890Y-97638228D01*
X112825985Y-98114419D02*
X112825985Y-97114419D01*
X112825985Y-97114419D02*
X112445033Y-97114419D01*
X112445033Y-97114419D02*
X112349795Y-97162038D01*
X112349795Y-97162038D02*
X112302176Y-97209657D01*
X112302176Y-97209657D02*
X112254557Y-97304895D01*
X112254557Y-97304895D02*
X112254557Y-97447752D01*
X112254557Y-97447752D02*
X112302176Y-97542990D01*
X112302176Y-97542990D02*
X112349795Y-97590609D01*
X112349795Y-97590609D02*
X112445033Y-97638228D01*
X112445033Y-97638228D02*
X112825985Y-97638228D01*
X111397414Y-97447752D02*
X111397414Y-98114419D01*
X111635509Y-97066800D02*
X111873604Y-97781085D01*
X111873604Y-97781085D02*
X111254557Y-97781085D01*
X110968842Y-97114419D02*
X110349795Y-97114419D01*
X110349795Y-97114419D02*
X110683128Y-97495371D01*
X110683128Y-97495371D02*
X110540271Y-97495371D01*
X110540271Y-97495371D02*
X110445033Y-97542990D01*
X110445033Y-97542990D02*
X110397414Y-97590609D01*
X110397414Y-97590609D02*
X110349795Y-97685847D01*
X110349795Y-97685847D02*
X110349795Y-97923942D01*
X110349795Y-97923942D02*
X110397414Y-98019180D01*
X110397414Y-98019180D02*
X110445033Y-98066800D01*
X110445033Y-98066800D02*
X110540271Y-98114419D01*
X110540271Y-98114419D02*
X110825985Y-98114419D01*
X110825985Y-98114419D02*
X110921223Y-98066800D01*
X110921223Y-98066800D02*
X110968842Y-98019180D01*
X129390857Y-110355919D02*
X129724190Y-109879728D01*
X129962285Y-110355919D02*
X129962285Y-109355919D01*
X129962285Y-109355919D02*
X129581333Y-109355919D01*
X129581333Y-109355919D02*
X129486095Y-109403538D01*
X129486095Y-109403538D02*
X129438476Y-109451157D01*
X129438476Y-109451157D02*
X129390857Y-109546395D01*
X129390857Y-109546395D02*
X129390857Y-109689252D01*
X129390857Y-109689252D02*
X129438476Y-109784490D01*
X129438476Y-109784490D02*
X129486095Y-109832109D01*
X129486095Y-109832109D02*
X129581333Y-109879728D01*
X129581333Y-109879728D02*
X129962285Y-109879728D01*
X128486095Y-109355919D02*
X128962285Y-109355919D01*
X128962285Y-109355919D02*
X129009904Y-109832109D01*
X129009904Y-109832109D02*
X128962285Y-109784490D01*
X128962285Y-109784490D02*
X128867047Y-109736871D01*
X128867047Y-109736871D02*
X128628952Y-109736871D01*
X128628952Y-109736871D02*
X128533714Y-109784490D01*
X128533714Y-109784490D02*
X128486095Y-109832109D01*
X128486095Y-109832109D02*
X128438476Y-109927347D01*
X128438476Y-109927347D02*
X128438476Y-110165442D01*
X128438476Y-110165442D02*
X128486095Y-110260680D01*
X128486095Y-110260680D02*
X128533714Y-110308300D01*
X128533714Y-110308300D02*
X128628952Y-110355919D01*
X128628952Y-110355919D02*
X128867047Y-110355919D01*
X128867047Y-110355919D02*
X128962285Y-110308300D01*
X128962285Y-110308300D02*
X129009904Y-110260680D01*
X127486095Y-110355919D02*
X128057523Y-110355919D01*
X127771809Y-110355919D02*
X127771809Y-109355919D01*
X127771809Y-109355919D02*
X127867047Y-109498776D01*
X127867047Y-109498776D02*
X127962285Y-109594014D01*
X127962285Y-109594014D02*
X128057523Y-109641633D01*
X132718257Y-136355919D02*
X133051590Y-135879728D01*
X133289685Y-136355919D02*
X133289685Y-135355919D01*
X133289685Y-135355919D02*
X132908733Y-135355919D01*
X132908733Y-135355919D02*
X132813495Y-135403538D01*
X132813495Y-135403538D02*
X132765876Y-135451157D01*
X132765876Y-135451157D02*
X132718257Y-135546395D01*
X132718257Y-135546395D02*
X132718257Y-135689252D01*
X132718257Y-135689252D02*
X132765876Y-135784490D01*
X132765876Y-135784490D02*
X132813495Y-135832109D01*
X132813495Y-135832109D02*
X132908733Y-135879728D01*
X132908733Y-135879728D02*
X133289685Y-135879728D01*
X131861114Y-135355919D02*
X132051590Y-135355919D01*
X132051590Y-135355919D02*
X132146828Y-135403538D01*
X132146828Y-135403538D02*
X132194447Y-135451157D01*
X132194447Y-135451157D02*
X132289685Y-135594014D01*
X132289685Y-135594014D02*
X132337304Y-135784490D01*
X132337304Y-135784490D02*
X132337304Y-136165442D01*
X132337304Y-136165442D02*
X132289685Y-136260680D01*
X132289685Y-136260680D02*
X132242066Y-136308300D01*
X132242066Y-136308300D02*
X132146828Y-136355919D01*
X132146828Y-136355919D02*
X131956352Y-136355919D01*
X131956352Y-136355919D02*
X131861114Y-136308300D01*
X131861114Y-136308300D02*
X131813495Y-136260680D01*
X131813495Y-136260680D02*
X131765876Y-136165442D01*
X131765876Y-136165442D02*
X131765876Y-135927347D01*
X131765876Y-135927347D02*
X131813495Y-135832109D01*
X131813495Y-135832109D02*
X131861114Y-135784490D01*
X131861114Y-135784490D02*
X131956352Y-135736871D01*
X131956352Y-135736871D02*
X132146828Y-135736871D01*
X132146828Y-135736871D02*
X132242066Y-135784490D01*
X132242066Y-135784490D02*
X132289685Y-135832109D01*
X132289685Y-135832109D02*
X132337304Y-135927347D01*
X131194447Y-135784490D02*
X131289685Y-135736871D01*
X131289685Y-135736871D02*
X131337304Y-135689252D01*
X131337304Y-135689252D02*
X131384923Y-135594014D01*
X131384923Y-135594014D02*
X131384923Y-135546395D01*
X131384923Y-135546395D02*
X131337304Y-135451157D01*
X131337304Y-135451157D02*
X131289685Y-135403538D01*
X131289685Y-135403538D02*
X131194447Y-135355919D01*
X131194447Y-135355919D02*
X131003971Y-135355919D01*
X131003971Y-135355919D02*
X130908733Y-135403538D01*
X130908733Y-135403538D02*
X130861114Y-135451157D01*
X130861114Y-135451157D02*
X130813495Y-135546395D01*
X130813495Y-135546395D02*
X130813495Y-135594014D01*
X130813495Y-135594014D02*
X130861114Y-135689252D01*
X130861114Y-135689252D02*
X130908733Y-135736871D01*
X130908733Y-135736871D02*
X131003971Y-135784490D01*
X131003971Y-135784490D02*
X131194447Y-135784490D01*
X131194447Y-135784490D02*
X131289685Y-135832109D01*
X131289685Y-135832109D02*
X131337304Y-135879728D01*
X131337304Y-135879728D02*
X131384923Y-135974966D01*
X131384923Y-135974966D02*
X131384923Y-136165442D01*
X131384923Y-136165442D02*
X131337304Y-136260680D01*
X131337304Y-136260680D02*
X131289685Y-136308300D01*
X131289685Y-136308300D02*
X131194447Y-136355919D01*
X131194447Y-136355919D02*
X131003971Y-136355919D01*
X131003971Y-136355919D02*
X130908733Y-136308300D01*
X130908733Y-136308300D02*
X130861114Y-136260680D01*
X130861114Y-136260680D02*
X130813495Y-136165442D01*
X130813495Y-136165442D02*
X130813495Y-135974966D01*
X130813495Y-135974966D02*
X130861114Y-135879728D01*
X130861114Y-135879728D02*
X130908733Y-135832109D01*
X130908733Y-135832109D02*
X131003971Y-135784490D01*
X157023957Y-111772419D02*
X157357290Y-111296228D01*
X157595385Y-111772419D02*
X157595385Y-110772419D01*
X157595385Y-110772419D02*
X157214433Y-110772419D01*
X157214433Y-110772419D02*
X157119195Y-110820038D01*
X157119195Y-110820038D02*
X157071576Y-110867657D01*
X157071576Y-110867657D02*
X157023957Y-110962895D01*
X157023957Y-110962895D02*
X157023957Y-111105752D01*
X157023957Y-111105752D02*
X157071576Y-111200990D01*
X157071576Y-111200990D02*
X157119195Y-111248609D01*
X157119195Y-111248609D02*
X157214433Y-111296228D01*
X157214433Y-111296228D02*
X157595385Y-111296228D01*
X156166814Y-111105752D02*
X156166814Y-111772419D01*
X156404909Y-110724800D02*
X156643004Y-111439085D01*
X156643004Y-111439085D02*
X156023957Y-111439085D01*
X155595385Y-111772419D02*
X155404909Y-111772419D01*
X155404909Y-111772419D02*
X155309671Y-111724800D01*
X155309671Y-111724800D02*
X155262052Y-111677180D01*
X155262052Y-111677180D02*
X155166814Y-111534323D01*
X155166814Y-111534323D02*
X155119195Y-111343847D01*
X155119195Y-111343847D02*
X155119195Y-110962895D01*
X155119195Y-110962895D02*
X155166814Y-110867657D01*
X155166814Y-110867657D02*
X155214433Y-110820038D01*
X155214433Y-110820038D02*
X155309671Y-110772419D01*
X155309671Y-110772419D02*
X155500147Y-110772419D01*
X155500147Y-110772419D02*
X155595385Y-110820038D01*
X155595385Y-110820038D02*
X155643004Y-110867657D01*
X155643004Y-110867657D02*
X155690623Y-110962895D01*
X155690623Y-110962895D02*
X155690623Y-111200990D01*
X155690623Y-111200990D02*
X155643004Y-111296228D01*
X155643004Y-111296228D02*
X155595385Y-111343847D01*
X155595385Y-111343847D02*
X155500147Y-111391466D01*
X155500147Y-111391466D02*
X155309671Y-111391466D01*
X155309671Y-111391466D02*
X155214433Y-111343847D01*
X155214433Y-111343847D02*
X155166814Y-111296228D01*
X155166814Y-111296228D02*
X155119195Y-111200990D01*
X157023957Y-72772419D02*
X157357290Y-72296228D01*
X157595385Y-72772419D02*
X157595385Y-71772419D01*
X157595385Y-71772419D02*
X157214433Y-71772419D01*
X157214433Y-71772419D02*
X157119195Y-71820038D01*
X157119195Y-71820038D02*
X157071576Y-71867657D01*
X157071576Y-71867657D02*
X157023957Y-71962895D01*
X157023957Y-71962895D02*
X157023957Y-72105752D01*
X157023957Y-72105752D02*
X157071576Y-72200990D01*
X157071576Y-72200990D02*
X157119195Y-72248609D01*
X157119195Y-72248609D02*
X157214433Y-72296228D01*
X157214433Y-72296228D02*
X157595385Y-72296228D01*
X156643004Y-71867657D02*
X156595385Y-71820038D01*
X156595385Y-71820038D02*
X156500147Y-71772419D01*
X156500147Y-71772419D02*
X156262052Y-71772419D01*
X156262052Y-71772419D02*
X156166814Y-71820038D01*
X156166814Y-71820038D02*
X156119195Y-71867657D01*
X156119195Y-71867657D02*
X156071576Y-71962895D01*
X156071576Y-71962895D02*
X156071576Y-72058133D01*
X156071576Y-72058133D02*
X156119195Y-72200990D01*
X156119195Y-72200990D02*
X156690623Y-72772419D01*
X156690623Y-72772419D02*
X156071576Y-72772419D01*
X155690623Y-71867657D02*
X155643004Y-71820038D01*
X155643004Y-71820038D02*
X155547766Y-71772419D01*
X155547766Y-71772419D02*
X155309671Y-71772419D01*
X155309671Y-71772419D02*
X155214433Y-71820038D01*
X155214433Y-71820038D02*
X155166814Y-71867657D01*
X155166814Y-71867657D02*
X155119195Y-71962895D01*
X155119195Y-71962895D02*
X155119195Y-72058133D01*
X155119195Y-72058133D02*
X155166814Y-72200990D01*
X155166814Y-72200990D02*
X155738242Y-72772419D01*
X155738242Y-72772419D02*
X155119195Y-72772419D01*
X208802857Y-121499580D02*
X208850476Y-121547200D01*
X208850476Y-121547200D02*
X208993333Y-121594819D01*
X208993333Y-121594819D02*
X209088571Y-121594819D01*
X209088571Y-121594819D02*
X209231428Y-121547200D01*
X209231428Y-121547200D02*
X209326666Y-121451961D01*
X209326666Y-121451961D02*
X209374285Y-121356723D01*
X209374285Y-121356723D02*
X209421904Y-121166247D01*
X209421904Y-121166247D02*
X209421904Y-121023390D01*
X209421904Y-121023390D02*
X209374285Y-120832914D01*
X209374285Y-120832914D02*
X209326666Y-120737676D01*
X209326666Y-120737676D02*
X209231428Y-120642438D01*
X209231428Y-120642438D02*
X209088571Y-120594819D01*
X209088571Y-120594819D02*
X208993333Y-120594819D01*
X208993333Y-120594819D02*
X208850476Y-120642438D01*
X208850476Y-120642438D02*
X208802857Y-120690057D01*
X207850476Y-121594819D02*
X208421904Y-121594819D01*
X208136190Y-121594819D02*
X208136190Y-120594819D01*
X208136190Y-120594819D02*
X208231428Y-120737676D01*
X208231428Y-120737676D02*
X208326666Y-120832914D01*
X208326666Y-120832914D02*
X208421904Y-120880533D01*
X206993333Y-120928152D02*
X206993333Y-121594819D01*
X207231428Y-120547200D02*
X207469523Y-121261485D01*
X207469523Y-121261485D02*
X206850476Y-121261485D01*
X132718257Y-97355919D02*
X133051590Y-96879728D01*
X133289685Y-97355919D02*
X133289685Y-96355919D01*
X133289685Y-96355919D02*
X132908733Y-96355919D01*
X132908733Y-96355919D02*
X132813495Y-96403538D01*
X132813495Y-96403538D02*
X132765876Y-96451157D01*
X132765876Y-96451157D02*
X132718257Y-96546395D01*
X132718257Y-96546395D02*
X132718257Y-96689252D01*
X132718257Y-96689252D02*
X132765876Y-96784490D01*
X132765876Y-96784490D02*
X132813495Y-96832109D01*
X132813495Y-96832109D02*
X132908733Y-96879728D01*
X132908733Y-96879728D02*
X133289685Y-96879728D01*
X131861114Y-96689252D02*
X131861114Y-97355919D01*
X132099209Y-96308300D02*
X132337304Y-97022585D01*
X132337304Y-97022585D02*
X131718257Y-97022585D01*
X130813495Y-97355919D02*
X131384923Y-97355919D01*
X131099209Y-97355919D02*
X131099209Y-96355919D01*
X131099209Y-96355919D02*
X131194447Y-96498776D01*
X131194447Y-96498776D02*
X131289685Y-96594014D01*
X131289685Y-96594014D02*
X131384923Y-96641633D01*
D13*
%TO.C,R48*%
X129002724Y-99307200D02*
X128493276Y-99307200D01*
X129002724Y-100352200D02*
X128493276Y-100352200D01*
%TO.C,R26*%
X94336424Y-72554100D02*
X93826976Y-72554100D01*
X94336424Y-73599100D02*
X93826976Y-73599100D01*
%TO.C,R29*%
X132330124Y-73307200D02*
X131820676Y-73307200D01*
X132330124Y-74352200D02*
X131820676Y-74352200D01*
%TO.C,R73*%
X160166424Y-138319100D02*
X159656976Y-138319100D01*
X160166424Y-139364100D02*
X159656976Y-139364100D01*
%TO.C,R75*%
X129002724Y-138307200D02*
X128493276Y-138307200D01*
X129002724Y-139352200D02*
X128493276Y-139352200D01*
%TO.C,R32*%
X132330124Y-84808600D02*
X131820676Y-84808600D01*
X132330124Y-85853600D02*
X131820676Y-85853600D01*
%TO.C,R46*%
X160166424Y-99319100D02*
X159656976Y-99319100D01*
X160166424Y-100364100D02*
X159656976Y-100364100D01*
%TO.C,R60*%
X129002724Y-123808600D02*
X128493276Y-123808600D01*
X129002724Y-124853600D02*
X128493276Y-124853600D01*
%TO.C,R64*%
X160166424Y-125319100D02*
X159656976Y-125319100D01*
X160166424Y-126364100D02*
X159656976Y-126364100D01*
%TO.C,R57*%
X129002724Y-112307200D02*
X128493276Y-112307200D01*
X129002724Y-113352200D02*
X128493276Y-113352200D01*
%TO.C,R80*%
X207850277Y-114037679D02*
X208087329Y-114274731D01*
X208387679Y-113500277D02*
X208624731Y-113737329D01*
%TO.C,R50*%
X132330124Y-110808600D02*
X131820676Y-110808600D01*
X132330124Y-111853600D02*
X131820676Y-111853600D01*
%TO.C,R40*%
X160166424Y-97803373D02*
X159656976Y-97803373D01*
X160166424Y-98848373D02*
X159656976Y-98848373D01*
%TO.C,R59*%
X132330124Y-123808600D02*
X131820676Y-123808600D01*
X132330124Y-124853600D02*
X131820676Y-124853600D01*
%TO.C,R72*%
X84944724Y-136657500D02*
X84435276Y-136657500D01*
X84944724Y-137702500D02*
X84435276Y-137702500D01*
%TO.C,R44*%
X94336424Y-98554100D02*
X93826976Y-98554100D01*
X94336424Y-99599100D02*
X93826976Y-99599100D01*
%TO.C,R34*%
X111866424Y-85567100D02*
X111356976Y-85567100D01*
X111866424Y-86612100D02*
X111356976Y-86612100D01*
%TO.C,R47*%
X132330124Y-99307200D02*
X131820676Y-99307200D01*
X132330124Y-100352200D02*
X131820676Y-100352200D01*
%TO.C,R56*%
X132330124Y-112307200D02*
X131820676Y-112307200D01*
X132330124Y-113352200D02*
X131820676Y-113352200D01*
%TO.C,R35*%
X94336424Y-85554100D02*
X93826976Y-85554100D01*
X94336424Y-86599100D02*
X93826976Y-86599100D01*
%TO.C,R24*%
X129002724Y-71808600D02*
X128493276Y-71808600D01*
X129002724Y-72853600D02*
X128493276Y-72853600D01*
%TO.C,R55*%
X160166424Y-112319100D02*
X159656976Y-112319100D01*
X160166424Y-113364100D02*
X159656976Y-113364100D01*
%TO.C,C13*%
X204205989Y-119281598D02*
X204412842Y-119488451D01*
X204927238Y-118560349D02*
X205134091Y-118767202D01*
%TO.C,R90*%
X197157500Y-87325276D02*
X197157500Y-87834724D01*
X198202500Y-87325276D02*
X198202500Y-87834724D01*
%TO.C,R91*%
X195257500Y-87834724D02*
X195257500Y-87325276D01*
X196302500Y-87834724D02*
X196302500Y-87325276D01*
%TO.C,R23*%
X132330124Y-71808600D02*
X131820676Y-71808600D01*
X132330124Y-72853600D02*
X131820676Y-72853600D01*
%TO.C,C3*%
X221240000Y-139093752D02*
X221240000Y-137671248D01*
X223060000Y-139093752D02*
X223060000Y-137671248D01*
%TO.C,R58*%
X160166424Y-123803373D02*
X159656976Y-123803373D01*
X160166424Y-124848373D02*
X159656976Y-124848373D01*
%TO.C,R70*%
X111866424Y-137567100D02*
X111356976Y-137567100D01*
X111866424Y-138612100D02*
X111356976Y-138612100D01*
%TO.C,R45*%
X84936424Y-98557100D02*
X84426976Y-98557100D01*
X84936424Y-99602100D02*
X84426976Y-99602100D01*
%TO.C,R84*%
X212775276Y-82977500D02*
X213284724Y-82977500D01*
X212775276Y-84022500D02*
X213284724Y-84022500D01*
%TO.C,R31*%
X160166424Y-84803373D02*
X159656976Y-84803373D01*
X160166424Y-85848373D02*
X159656976Y-85848373D01*
%TO.C,R71*%
X94337624Y-136305900D02*
X93828176Y-136305900D01*
X94337624Y-137350900D02*
X93828176Y-137350900D01*
%TO.C,R85*%
X214715276Y-84527500D02*
X215224724Y-84527500D01*
X214715276Y-85572500D02*
X215224724Y-85572500D01*
%TO.C,R38*%
X132330124Y-86307200D02*
X131820676Y-86307200D01*
X132330124Y-87352200D02*
X131820676Y-87352200D01*
%TO.C,C17*%
X201339442Y-120109749D02*
X201132589Y-120316602D01*
X202060691Y-120830998D02*
X201853838Y-121037851D01*
%TO.C,R66*%
X129002724Y-125307200D02*
X128493276Y-125307200D01*
X129002724Y-126352200D02*
X128493276Y-126352200D01*
%TO.C,R42*%
X129002724Y-97808600D02*
X128493276Y-97808600D01*
X129002724Y-98853600D02*
X128493276Y-98853600D01*
%TO.C,C16*%
X202685642Y-120897149D02*
X202478789Y-121104002D01*
X203406891Y-121618398D02*
X203200038Y-121825251D01*
%TO.C,R53*%
X94336424Y-111554100D02*
X93826976Y-111554100D01*
X94336424Y-112599100D02*
X93826976Y-112599100D01*
D14*
%TO.C,D15*%
X220740000Y-102775000D02*
X220740000Y-102825000D01*
X220740000Y-102825000D02*
X223640000Y-102825000D01*
X223640000Y-102775000D02*
X220740000Y-102775000D01*
X223640000Y-102825000D02*
X223640000Y-102775000D01*
X223690000Y-104425000D02*
X223690000Y-103175000D01*
D13*
%TO.C,R74*%
X132330124Y-138307200D02*
X131820676Y-138307200D01*
X132330124Y-139352200D02*
X131820676Y-139352200D01*
%TO.C,C12*%
X200272922Y-119068069D02*
X200066069Y-119274922D01*
X200994171Y-119789318D02*
X200787318Y-119996171D01*
%TO.C,R39*%
X129002724Y-86307200D02*
X128493276Y-86307200D01*
X129002724Y-87352200D02*
X128493276Y-87352200D01*
%TO.C,F1*%
X215277936Y-67330000D02*
X216482064Y-67330000D01*
X215277936Y-69150000D02*
X216482064Y-69150000D01*
%TO.C,R87*%
X193785276Y-95357500D02*
X194294724Y-95357500D01*
X193785276Y-96402500D02*
X194294724Y-96402500D01*
%TO.C,R69*%
X129002724Y-136808600D02*
X128493276Y-136808600D01*
X129002724Y-137853600D02*
X128493276Y-137853600D01*
%TO.C,C11*%
X208195606Y-117600000D02*
X207903072Y-117600000D01*
X208195606Y-118620000D02*
X207903072Y-118620000D01*
%TO.C,C39*%
X215390000Y-82756267D02*
X215390000Y-82463733D01*
X216410000Y-82756267D02*
X216410000Y-82463733D01*
%TO.C,R65*%
X132330124Y-125307200D02*
X131820676Y-125307200D01*
X132330124Y-126352200D02*
X131820676Y-126352200D01*
%TO.C,R30*%
X129002724Y-73307200D02*
X128493276Y-73307200D01*
X129002724Y-74352200D02*
X128493276Y-74352200D01*
%TO.C,R28*%
X160166424Y-73319100D02*
X159656976Y-73319100D01*
X160166424Y-74364100D02*
X159656976Y-74364100D01*
%TO.C,R36*%
X84936424Y-85557100D02*
X84426976Y-85557100D01*
X84936424Y-86602100D02*
X84426976Y-86602100D01*
%TO.C,R37*%
X160166424Y-86319100D02*
X159656976Y-86319100D01*
X160166424Y-87364100D02*
X159656976Y-87364100D01*
%TO.C,R62*%
X94336424Y-124554100D02*
X93826976Y-124554100D01*
X94336424Y-125599100D02*
X93826976Y-125599100D01*
%TO.C,R25*%
X111866424Y-72567100D02*
X111356976Y-72567100D01*
X111866424Y-73612100D02*
X111356976Y-73612100D01*
%TO.C,R63*%
X84936424Y-124557100D02*
X84426976Y-124557100D01*
X84936424Y-125602100D02*
X84426976Y-125602100D01*
%TO.C,R33*%
X129002724Y-84808600D02*
X128493276Y-84808600D01*
X129002724Y-85853600D02*
X128493276Y-85853600D01*
%TO.C,R61*%
X111866424Y-124567100D02*
X111356976Y-124567100D01*
X111866424Y-125612100D02*
X111356976Y-125612100D01*
%TO.C,R27*%
X84936424Y-72557100D02*
X84426976Y-72557100D01*
X84936424Y-73602100D02*
X84426976Y-73602100D01*
%TO.C,R52*%
X111866424Y-111567100D02*
X111356976Y-111567100D01*
X111866424Y-112612100D02*
X111356976Y-112612100D01*
%TO.C,R86*%
X193785276Y-96867500D02*
X194294724Y-96867500D01*
X193785276Y-97912500D02*
X194294724Y-97912500D01*
%TO.C,R67*%
X160166424Y-136803373D02*
X159656976Y-136803373D01*
X160166424Y-137848373D02*
X159656976Y-137848373D01*
%TO.C,R54*%
X84936424Y-111557100D02*
X84426976Y-111557100D01*
X84936424Y-112602100D02*
X84426976Y-112602100D01*
%TO.C,R43*%
X111866424Y-98567100D02*
X111356976Y-98567100D01*
X111866424Y-99612100D02*
X111356976Y-99612100D01*
%TO.C,R51*%
X129002724Y-110808600D02*
X128493276Y-110808600D01*
X129002724Y-111853600D02*
X128493276Y-111853600D01*
%TO.C,R68*%
X132330124Y-136808600D02*
X131820676Y-136808600D01*
X132330124Y-137853600D02*
X131820676Y-137853600D01*
%TO.C,R49*%
X160166424Y-110803373D02*
X159656976Y-110803373D01*
X160166424Y-111848373D02*
X159656976Y-111848373D01*
%TO.C,R22*%
X160166424Y-71803373D02*
X159656976Y-71803373D01*
X160166424Y-72848373D02*
X159656976Y-72848373D01*
%TO.C,C14*%
X208194507Y-119124000D02*
X207901973Y-119124000D01*
X208194507Y-120144000D02*
X207901973Y-120144000D01*
%TO.C,R41*%
X132330124Y-97808600D02*
X131820676Y-97808600D01*
X132330124Y-98853600D02*
X131820676Y-98853600D01*
%TD*%
%LPC*%
D15*
%TO.C,K17*%
X144891700Y-95266600D03*
X144891700Y-102886600D03*
X139811700Y-102886600D03*
X137271700Y-102886600D03*
X142351700Y-102886600D03*
X139811700Y-95266600D03*
X137271700Y-95266600D03*
X142351700Y-95266600D03*
X134731700Y-102886600D03*
X134731700Y-95266600D03*
%TD*%
D16*
%TO.C,J1*%
X227270000Y-55540000D03*
X227270000Y-144440000D03*
D17*
X224730000Y-60620000D03*
D18*
X224730000Y-63160000D03*
X224730000Y-65700000D03*
X224730000Y-68240000D03*
X224730000Y-70780000D03*
X224730000Y-73320000D03*
X224730000Y-75860000D03*
X224730000Y-78400000D03*
X224730000Y-80940000D03*
X224730000Y-83480000D03*
X224730000Y-86020000D03*
X224730000Y-88560000D03*
X224730000Y-91100000D03*
X224730000Y-93640000D03*
X224730000Y-96180000D03*
X224730000Y-98720000D03*
X224730000Y-101260000D03*
X224730000Y-103800000D03*
X224730000Y-106340000D03*
X224730000Y-108880000D03*
X224730000Y-111420000D03*
X224730000Y-113960000D03*
X224730000Y-116500000D03*
X224730000Y-119040000D03*
X224730000Y-121580000D03*
X224730000Y-124120000D03*
X224730000Y-126660000D03*
X224730000Y-129200000D03*
X224730000Y-131740000D03*
X224730000Y-134280000D03*
X224730000Y-136820000D03*
X224730000Y-139360000D03*
X219650000Y-60620000D03*
X219650000Y-63160000D03*
X219650000Y-65700000D03*
X219650000Y-68240000D03*
X219650000Y-70780000D03*
X219650000Y-73320000D03*
X219650000Y-75860000D03*
X219650000Y-78400000D03*
X219650000Y-80940000D03*
X219650000Y-83480000D03*
X219650000Y-86020000D03*
X219650000Y-88560000D03*
X219650000Y-91100000D03*
X219650000Y-93640000D03*
X219650000Y-96180000D03*
X219650000Y-98720000D03*
X219650000Y-101260000D03*
X219650000Y-103800000D03*
X219650000Y-106340000D03*
X219650000Y-108880000D03*
X219650000Y-111420000D03*
X219650000Y-113960000D03*
X219650000Y-116500000D03*
X219650000Y-119040000D03*
X219650000Y-121580000D03*
X219650000Y-124120000D03*
X219650000Y-126660000D03*
X219650000Y-129200000D03*
X219650000Y-131740000D03*
X219650000Y-134280000D03*
X219650000Y-136820000D03*
X219650000Y-139360000D03*
%TD*%
D15*
%TO.C,K36*%
X126091700Y-134269600D03*
X126091700Y-141889600D03*
X121011700Y-141889600D03*
X118471700Y-141889600D03*
X123551700Y-141889600D03*
X121011700Y-134269600D03*
X118471700Y-134269600D03*
X123551700Y-134269600D03*
X115931700Y-141889600D03*
X115931700Y-134269600D03*
%TD*%
%TO.C,K23*%
X144891700Y-108266600D03*
X144891700Y-115886600D03*
X139811700Y-115886600D03*
X137271700Y-115886600D03*
X142351700Y-115886600D03*
X139811700Y-108266600D03*
X137271700Y-108266600D03*
X142351700Y-108266600D03*
X134731700Y-115886600D03*
X134731700Y-108266600D03*
%TD*%
%TO.C,K38*%
X88510000Y-131750000D03*
X88510000Y-139370000D03*
X83430000Y-139370000D03*
X80890000Y-139370000D03*
X85970000Y-139370000D03*
X83430000Y-131750000D03*
X80890000Y-131750000D03*
X85970000Y-131750000D03*
X78350000Y-139370000D03*
X78350000Y-131750000D03*
%TD*%
%TO.C,K18*%
X126091700Y-95269600D03*
X126091700Y-102889600D03*
X121011700Y-102889600D03*
X118471700Y-102889600D03*
X123551700Y-102889600D03*
X121011700Y-95269600D03*
X118471700Y-95269600D03*
X123551700Y-95269600D03*
X115931700Y-102889600D03*
X115931700Y-95269600D03*
%TD*%
D19*
%TO.C,J7*%
X95350000Y-63140010D03*
D20*
X102360000Y-63140010D03*
D19*
X95350000Y-58140010D03*
X102360000Y-58140010D03*
%TD*%
D15*
%TO.C,K34*%
X163691700Y-134269600D03*
X163691700Y-141889600D03*
X158611700Y-141889600D03*
X156071700Y-141889600D03*
X161151700Y-141889600D03*
X158611700Y-134269600D03*
X156071700Y-134269600D03*
X161151700Y-134269600D03*
X153531700Y-141889600D03*
X153531700Y-134269600D03*
%TD*%
D21*
%TO.C,H2*%
X73610000Y-144440000D03*
%TD*%
D15*
%TO.C,K16*%
X163691700Y-95269600D03*
X163691700Y-102889600D03*
X158611700Y-102889600D03*
X156071700Y-102889600D03*
X161151700Y-102889600D03*
X158611700Y-95269600D03*
X156071700Y-95269600D03*
X161151700Y-95269600D03*
X153531700Y-102889600D03*
X153531700Y-95269600D03*
%TD*%
%TO.C,K1*%
X154740000Y-64480000D03*
X154740000Y-56860000D03*
X159820000Y-56860000D03*
X162360000Y-56860000D03*
X157280000Y-56860000D03*
X159820000Y-64480000D03*
X162360000Y-64480000D03*
X157280000Y-64480000D03*
X164900000Y-56860000D03*
X164900000Y-64480000D03*
%TD*%
%TO.C,K2*%
X121940000Y-56830000D03*
X121940000Y-64450000D03*
X116860000Y-64450000D03*
X114320000Y-64450000D03*
X119400000Y-64450000D03*
X116860000Y-56830000D03*
X114320000Y-56830000D03*
X119400000Y-56830000D03*
X111780000Y-64450000D03*
X111780000Y-56830000D03*
%TD*%
D19*
%TO.C,J5*%
X126744500Y-63160010D03*
D20*
X133754500Y-63160010D03*
D19*
X126744500Y-58160010D03*
X133754500Y-58160010D03*
%TD*%
D15*
%TO.C,K5*%
X144891700Y-69266600D03*
X144891700Y-76886600D03*
X139811700Y-76886600D03*
X137271700Y-76886600D03*
X142351700Y-76886600D03*
X139811700Y-69266600D03*
X137271700Y-69266600D03*
X142351700Y-69266600D03*
X134731700Y-76886600D03*
X134731700Y-69266600D03*
%TD*%
%TO.C,K21*%
X182491700Y-108266600D03*
X182491700Y-115886600D03*
X177411700Y-115886600D03*
X174871700Y-115886600D03*
X179951700Y-115886600D03*
X177411700Y-108266600D03*
X174871700Y-108266600D03*
X179951700Y-108266600D03*
X172331700Y-115886600D03*
X172331700Y-108266600D03*
%TD*%
%TO.C,K29*%
X144891700Y-121266600D03*
X144891700Y-128886600D03*
X139811700Y-128886600D03*
X137271700Y-128886600D03*
X142351700Y-128886600D03*
X139811700Y-121266600D03*
X137271700Y-121266600D03*
X142351700Y-121266600D03*
X134731700Y-128886600D03*
X134731700Y-121266600D03*
%TD*%
%TO.C,K12*%
X126091700Y-82269600D03*
X126091700Y-89889600D03*
X121011700Y-89889600D03*
X118471700Y-89889600D03*
X123551700Y-89889600D03*
X121011700Y-82269600D03*
X118471700Y-82269600D03*
X123551700Y-82269600D03*
X115931700Y-89889600D03*
X115931700Y-82269600D03*
%TD*%
%TO.C,K9*%
X182491700Y-82266600D03*
X182491700Y-89886600D03*
X177411700Y-89886600D03*
X174871700Y-89886600D03*
X179951700Y-89886600D03*
X177411700Y-82266600D03*
X174871700Y-82266600D03*
X179951700Y-82266600D03*
X172331700Y-89886600D03*
X172331700Y-82266600D03*
%TD*%
%TO.C,K30*%
X126091700Y-121269600D03*
X126091700Y-128889600D03*
X121011700Y-128889600D03*
X118471700Y-128889600D03*
X123551700Y-128889600D03*
X121011700Y-121269600D03*
X118471700Y-121269600D03*
X123551700Y-121269600D03*
X115931700Y-128889600D03*
X115931700Y-121269600D03*
%TD*%
%TO.C,K3*%
X182491700Y-69266600D03*
X182491700Y-76886600D03*
X177411700Y-76886600D03*
X174871700Y-76886600D03*
X179951700Y-76886600D03*
X177411700Y-69266600D03*
X174871700Y-69266600D03*
X179951700Y-69266600D03*
X172331700Y-76886600D03*
X172331700Y-69266600D03*
%TD*%
%TO.C,K20*%
X88491700Y-95269600D03*
X88491700Y-102889600D03*
X83411700Y-102889600D03*
X80871700Y-102889600D03*
X85951700Y-102889600D03*
X83411700Y-95269600D03*
X80871700Y-95269600D03*
X85951700Y-95269600D03*
X78331700Y-102889600D03*
X78331700Y-95269600D03*
%TD*%
%TO.C,K19*%
X107291700Y-95266600D03*
X107291700Y-102886600D03*
X102211700Y-102886600D03*
X99671700Y-102886600D03*
X104751700Y-102886600D03*
X102211700Y-95266600D03*
X99671700Y-95266600D03*
X104751700Y-95266600D03*
X97131700Y-102886600D03*
X97131700Y-95266600D03*
%TD*%
%TO.C,K6*%
X126091700Y-69269600D03*
X126091700Y-76889600D03*
X121011700Y-76889600D03*
X118471700Y-76889600D03*
X123551700Y-76889600D03*
X121011700Y-69269600D03*
X118471700Y-69269600D03*
X123551700Y-69269600D03*
X115931700Y-76889600D03*
X115931700Y-69269600D03*
%TD*%
%TO.C,K35*%
X144891700Y-134266600D03*
X144891700Y-141886600D03*
X139811700Y-141886600D03*
X137271700Y-141886600D03*
X142351700Y-141886600D03*
X139811700Y-134266600D03*
X137271700Y-134266600D03*
X142351700Y-134266600D03*
X134731700Y-141886600D03*
X134731700Y-134266600D03*
%TD*%
%TO.C,K33*%
X182491700Y-134266600D03*
X182491700Y-141886600D03*
X177411700Y-141886600D03*
X174871700Y-141886600D03*
X179951700Y-141886600D03*
X177411700Y-134266600D03*
X174871700Y-134266600D03*
X179951700Y-134266600D03*
X172331700Y-141886600D03*
X172331700Y-134266600D03*
%TD*%
%TO.C,K7*%
X107291700Y-69266600D03*
X107291700Y-76886600D03*
X102211700Y-76886600D03*
X99671700Y-76886600D03*
X104751700Y-76886600D03*
X102211700Y-69266600D03*
X99671700Y-69266600D03*
X104751700Y-69266600D03*
X97131700Y-76886600D03*
X97131700Y-69266600D03*
%TD*%
%TO.C,K37*%
X107291700Y-134266600D03*
X107291700Y-141886600D03*
X102211700Y-141886600D03*
X99671700Y-141886600D03*
X104751700Y-141886600D03*
X102211700Y-134266600D03*
X99671700Y-134266600D03*
X104751700Y-134266600D03*
X97131700Y-141886600D03*
X97131700Y-134266600D03*
%TD*%
%TO.C,K39*%
X179860000Y-64480000D03*
X179860000Y-56860000D03*
X184940000Y-56860000D03*
X187480000Y-56860000D03*
X182400000Y-56860000D03*
X184940000Y-64480000D03*
X187480000Y-64480000D03*
X182400000Y-64480000D03*
X190020000Y-56860000D03*
X190020000Y-64480000D03*
%TD*%
%TO.C,K24*%
X126091700Y-108269600D03*
X126091700Y-115889600D03*
X121011700Y-115889600D03*
X118471700Y-115889600D03*
X123551700Y-115889600D03*
X121011700Y-108269600D03*
X118471700Y-108269600D03*
X123551700Y-108269600D03*
X115931700Y-115889600D03*
X115931700Y-108269600D03*
%TD*%
%TO.C,K13*%
X107291700Y-82266600D03*
X107291700Y-89886600D03*
X102211700Y-89886600D03*
X99671700Y-89886600D03*
X104751700Y-89886600D03*
X102211700Y-82266600D03*
X99671700Y-82266600D03*
X104751700Y-82266600D03*
X97131700Y-89886600D03*
X97131700Y-82266600D03*
%TD*%
%TO.C,K31*%
X107291700Y-121266600D03*
X107291700Y-128886600D03*
X102211700Y-128886600D03*
X99671700Y-128886600D03*
X104751700Y-128886600D03*
X102211700Y-121266600D03*
X99671700Y-121266600D03*
X104751700Y-121266600D03*
X97131700Y-128886600D03*
X97131700Y-121266600D03*
%TD*%
%TO.C,K27*%
X182491700Y-121266600D03*
X182491700Y-128886600D03*
X177411700Y-128886600D03*
X174871700Y-128886600D03*
X179951700Y-128886600D03*
X177411700Y-121266600D03*
X174871700Y-121266600D03*
X179951700Y-121266600D03*
X172331700Y-128886600D03*
X172331700Y-121266600D03*
%TD*%
D21*
%TO.C,H1*%
X73610000Y-55540000D03*
%TD*%
D15*
%TO.C,K15*%
X182491700Y-95266600D03*
X182491700Y-102886600D03*
X177411700Y-102886600D03*
X174871700Y-102886600D03*
X179951700Y-102886600D03*
X177411700Y-95266600D03*
X174871700Y-95266600D03*
X179951700Y-95266600D03*
X172331700Y-102886600D03*
X172331700Y-95266600D03*
%TD*%
D22*
%TO.C,J3*%
X211861400Y-92667200D03*
D23*
X211861400Y-93667200D03*
%TD*%
D15*
%TO.C,K11*%
X144891700Y-82266600D03*
X144891700Y-89886600D03*
X139811700Y-89886600D03*
X137271700Y-89886600D03*
X142351700Y-89886600D03*
X139811700Y-82266600D03*
X137271700Y-82266600D03*
X142351700Y-82266600D03*
X134731700Y-89886600D03*
X134731700Y-82266600D03*
%TD*%
%TO.C,K8*%
X88491700Y-69269600D03*
X88491700Y-76889600D03*
X83411700Y-76889600D03*
X80871700Y-76889600D03*
X85951700Y-76889600D03*
X83411700Y-69269600D03*
X80871700Y-69269600D03*
X85951700Y-69269600D03*
X78331700Y-76889600D03*
X78331700Y-69269600D03*
%TD*%
D19*
%TO.C,J4*%
X138654500Y-63160010D03*
D20*
X145664500Y-63160010D03*
D19*
X138654500Y-58160010D03*
X145664500Y-58160010D03*
%TD*%
%TO.C,J6*%
X83415500Y-63140010D03*
D20*
X90425500Y-63140010D03*
D19*
X83415500Y-58140010D03*
X90425500Y-58140010D03*
%TD*%
D15*
%TO.C,K32*%
X88491700Y-119860000D03*
X88491700Y-127480000D03*
X83411700Y-127480000D03*
X80871700Y-127480000D03*
X85951700Y-127480000D03*
X83411700Y-119860000D03*
X80871700Y-119860000D03*
X85951700Y-119860000D03*
X78331700Y-127480000D03*
X78331700Y-119860000D03*
%TD*%
%TO.C,K28*%
X163691700Y-121269600D03*
X163691700Y-128889600D03*
X158611700Y-128889600D03*
X156071700Y-128889600D03*
X161151700Y-128889600D03*
X158611700Y-121269600D03*
X156071700Y-121269600D03*
X161151700Y-121269600D03*
X153531700Y-128889600D03*
X153531700Y-121269600D03*
%TD*%
%TO.C,K26*%
X88491700Y-108269600D03*
X88491700Y-115889600D03*
X83411700Y-115889600D03*
X80871700Y-115889600D03*
X85951700Y-115889600D03*
X83411700Y-108269600D03*
X80871700Y-108269600D03*
X85951700Y-108269600D03*
X78331700Y-115889600D03*
X78331700Y-108269600D03*
%TD*%
%TO.C,K25*%
X107291700Y-108266600D03*
X107291700Y-115886600D03*
X102211700Y-115886600D03*
X99671700Y-115886600D03*
X104751700Y-115886600D03*
X102211700Y-108266600D03*
X99671700Y-108266600D03*
X104751700Y-108266600D03*
X97131700Y-115886600D03*
X97131700Y-108266600D03*
%TD*%
%TO.C,K22*%
X163691700Y-108269600D03*
X163691700Y-115889600D03*
X158611700Y-115889600D03*
X156071700Y-115889600D03*
X161151700Y-115889600D03*
X158611700Y-108269600D03*
X156071700Y-108269600D03*
X161151700Y-108269600D03*
X153531700Y-115889600D03*
X153531700Y-108269600D03*
%TD*%
%TO.C,K10*%
X163691700Y-82269600D03*
X163691700Y-89889600D03*
X158611700Y-89889600D03*
X156071700Y-89889600D03*
X161151700Y-89889600D03*
X158611700Y-82269600D03*
X156071700Y-82269600D03*
X161151700Y-82269600D03*
X153531700Y-89889600D03*
X153531700Y-82269600D03*
%TD*%
%TO.C,K14*%
X88491700Y-82269600D03*
X88491700Y-89889600D03*
X83411700Y-89889600D03*
X80871700Y-89889600D03*
X85951700Y-89889600D03*
X83411700Y-82269600D03*
X80871700Y-82269600D03*
X85951700Y-82269600D03*
X78331700Y-89889600D03*
X78331700Y-82269600D03*
%TD*%
%TO.C,K4*%
X163691700Y-69269600D03*
X163691700Y-76889600D03*
X158611700Y-76889600D03*
X156071700Y-76889600D03*
X161151700Y-76889600D03*
X158611700Y-69269600D03*
X156071700Y-69269600D03*
X161151700Y-69269600D03*
X153531700Y-76889600D03*
X153531700Y-69269600D03*
%TD*%
D24*
%TO.C,J2*%
X213156800Y-102971600D03*
X212140800Y-97891600D03*
X214172800Y-97891600D03*
%TD*%
D25*
%TO.C,R48*%
X129660500Y-99829700D03*
X127835500Y-99829700D03*
%TD*%
%TO.C,R26*%
X94994200Y-73076600D03*
X93169200Y-73076600D03*
%TD*%
%TO.C,R29*%
X132987900Y-73829700D03*
X131162900Y-73829700D03*
%TD*%
%TO.C,R73*%
X160824200Y-138841600D03*
X158999200Y-138841600D03*
%TD*%
%TO.C,R75*%
X129660500Y-138829700D03*
X127835500Y-138829700D03*
%TD*%
%TO.C,R32*%
X132987900Y-85331100D03*
X131162900Y-85331100D03*
%TD*%
%TO.C,R46*%
X160824200Y-99841600D03*
X158999200Y-99841600D03*
%TD*%
%TO.C,R60*%
X129660500Y-124331100D03*
X127835500Y-124331100D03*
%TD*%
%TO.C,R64*%
X160824200Y-125841600D03*
X158999200Y-125841600D03*
%TD*%
%TO.C,R57*%
X129660500Y-112829700D03*
X127835500Y-112829700D03*
%TD*%
D26*
%TO.C,R80*%
X207815008Y-113465008D03*
X208660000Y-114310000D03*
%TD*%
D25*
%TO.C,R50*%
X132987900Y-111331100D03*
X131162900Y-111331100D03*
%TD*%
%TO.C,R40*%
X160824200Y-98325873D03*
X158999200Y-98325873D03*
%TD*%
%TO.C,R59*%
X132987900Y-124331100D03*
X131162900Y-124331100D03*
%TD*%
%TO.C,R72*%
X85602500Y-137180000D03*
X83777500Y-137180000D03*
%TD*%
%TO.C,R44*%
X94994200Y-99076600D03*
X93169200Y-99076600D03*
%TD*%
%TO.C,R34*%
X112524200Y-86089600D03*
X110699200Y-86089600D03*
%TD*%
%TO.C,R47*%
X132987900Y-99829700D03*
X131162900Y-99829700D03*
%TD*%
%TO.C,R56*%
X132987900Y-112829700D03*
X131162900Y-112829700D03*
%TD*%
%TO.C,R35*%
X94994200Y-86076600D03*
X93169200Y-86076600D03*
%TD*%
%TO.C,R24*%
X129660500Y-72331100D03*
X127835500Y-72331100D03*
%TD*%
%TO.C,R55*%
X160824200Y-112841600D03*
X158999200Y-112841600D03*
%TD*%
D27*
%TO.C,C13*%
X204060160Y-118414520D03*
X205279920Y-119634280D03*
%TD*%
D28*
%TO.C,R90*%
X197680000Y-86667500D03*
X197680000Y-88492500D03*
%TD*%
D29*
%TO.C,R91*%
X195780000Y-88492500D03*
X195780000Y-86667500D03*
%TD*%
D25*
%TO.C,R23*%
X132987900Y-72331100D03*
X131162900Y-72331100D03*
%TD*%
D30*
%TO.C,C3*%
X222150000Y-139945000D03*
X222150000Y-136820000D03*
%TD*%
D25*
%TO.C,R58*%
X160824200Y-124325873D03*
X158999200Y-124325873D03*
%TD*%
%TO.C,R70*%
X112524200Y-138089600D03*
X110699200Y-138089600D03*
%TD*%
%TO.C,R45*%
X85594200Y-99079600D03*
X83769200Y-99079600D03*
%TD*%
D31*
%TO.C,R84*%
X212117500Y-83500000D03*
X213942500Y-83500000D03*
%TD*%
D25*
%TO.C,R31*%
X160824200Y-85325873D03*
X158999200Y-85325873D03*
%TD*%
%TO.C,R71*%
X94995400Y-136828400D03*
X93170400Y-136828400D03*
%TD*%
D31*
%TO.C,R85*%
X214057500Y-85050000D03*
X215882500Y-85050000D03*
%TD*%
D25*
%TO.C,R38*%
X132987900Y-86829700D03*
X131162900Y-86829700D03*
%TD*%
D32*
%TO.C,C17*%
X202206520Y-119963920D03*
X200986760Y-121183680D03*
%TD*%
D25*
%TO.C,R66*%
X129660500Y-125829700D03*
X127835500Y-125829700D03*
%TD*%
%TO.C,R42*%
X129660500Y-98331100D03*
X127835500Y-98331100D03*
%TD*%
D32*
%TO.C,C16*%
X203552720Y-120751320D03*
X202332960Y-121971080D03*
%TD*%
D25*
%TO.C,R53*%
X94994200Y-112076600D03*
X93169200Y-112076600D03*
%TD*%
D33*
%TO.C,D15*%
X223140000Y-103800000D03*
X221240000Y-103800000D03*
X222190000Y-101800000D03*
%TD*%
D25*
%TO.C,R74*%
X132987900Y-138829700D03*
X131162900Y-138829700D03*
%TD*%
D32*
%TO.C,C12*%
X201140000Y-118922240D03*
X199920240Y-120142000D03*
%TD*%
D25*
%TO.C,R39*%
X129660500Y-86829700D03*
X127835500Y-86829700D03*
%TD*%
D34*
%TO.C,F1*%
X214392500Y-68240000D03*
X217367500Y-68240000D03*
%TD*%
D31*
%TO.C,R87*%
X193127500Y-95880000D03*
X194952500Y-95880000D03*
%TD*%
D25*
%TO.C,R69*%
X129660500Y-137331100D03*
X127835500Y-137331100D03*
%TD*%
D35*
%TO.C,C11*%
X208911840Y-118110000D03*
X207186838Y-118110000D03*
%TD*%
D36*
%TO.C,C39*%
X215900000Y-83472500D03*
X215900000Y-81747500D03*
%TD*%
D25*
%TO.C,R65*%
X132987900Y-125829700D03*
X131162900Y-125829700D03*
%TD*%
%TO.C,R30*%
X129660500Y-73829700D03*
X127835500Y-73829700D03*
%TD*%
%TO.C,R28*%
X160824200Y-73841600D03*
X158999200Y-73841600D03*
%TD*%
%TO.C,R36*%
X85594200Y-86079600D03*
X83769200Y-86079600D03*
%TD*%
%TO.C,R37*%
X160824200Y-86841600D03*
X158999200Y-86841600D03*
%TD*%
%TO.C,R62*%
X94994200Y-125076600D03*
X93169200Y-125076600D03*
%TD*%
%TO.C,R25*%
X112524200Y-73089600D03*
X110699200Y-73089600D03*
%TD*%
%TO.C,R63*%
X85594200Y-125079600D03*
X83769200Y-125079600D03*
%TD*%
%TO.C,R33*%
X129660500Y-85331100D03*
X127835500Y-85331100D03*
%TD*%
%TO.C,R61*%
X112524200Y-125089600D03*
X110699200Y-125089600D03*
%TD*%
%TO.C,R27*%
X85594200Y-73079600D03*
X83769200Y-73079600D03*
%TD*%
%TO.C,R52*%
X112524200Y-112089600D03*
X110699200Y-112089600D03*
%TD*%
D31*
%TO.C,R86*%
X193127500Y-97390000D03*
X194952500Y-97390000D03*
%TD*%
D25*
%TO.C,R67*%
X160824200Y-137325873D03*
X158999200Y-137325873D03*
%TD*%
%TO.C,R54*%
X85594200Y-112079600D03*
X83769200Y-112079600D03*
%TD*%
%TO.C,R43*%
X112524200Y-99089600D03*
X110699200Y-99089600D03*
%TD*%
%TO.C,R51*%
X129660500Y-111331100D03*
X127835500Y-111331100D03*
%TD*%
%TO.C,R68*%
X132987900Y-137331100D03*
X131162900Y-137331100D03*
%TD*%
%TO.C,R49*%
X160824200Y-111325873D03*
X158999200Y-111325873D03*
%TD*%
%TO.C,R22*%
X160824200Y-72325873D03*
X158999200Y-72325873D03*
%TD*%
D35*
%TO.C,C14*%
X208910740Y-119634000D03*
X207185740Y-119634000D03*
%TD*%
D25*
%TO.C,R41*%
X132987900Y-98331100D03*
X131162900Y-98331100D03*
%TD*%
G36*
X230028835Y-147201860D02*
G01*
X230030007Y-147204681D01*
X230035000Y-149975994D01*
X230033834Y-149978824D01*
X230031007Y-149980001D01*
X230031000Y-149980001D01*
X70044000Y-149989999D01*
X70041172Y-149988828D01*
X70040000Y-149985999D01*
X70040000Y-147204688D01*
X70041172Y-147201860D01*
X70044000Y-147200688D01*
X230026007Y-147200688D01*
X230028835Y-147201860D01*
G37*
G36*
X230028835Y-49991172D02*
G01*
X230030007Y-49993993D01*
X230035000Y-52765306D01*
X230033834Y-52768136D01*
X230031007Y-52769313D01*
X230031000Y-52769313D01*
X70044000Y-52779311D01*
X70041172Y-52778140D01*
X70040000Y-52775311D01*
X70040000Y-49994000D01*
X70041172Y-49991172D01*
X70044000Y-49990000D01*
X230026007Y-49990000D01*
X230028835Y-49991172D01*
G37*
%LPD*%
M02*
