M48
; DRILL file {KiCad 9.0.4} date 2026-02-11T17:36:45+0100
; FORMAT={-:-/ absolute / inch / decimal}
; #@! TF.CreationDate,2026-02-11T17:36:45+01:00
; #@! TF.GenerationSoftware,Kicad,Pcbnew,9.0.4
; #@! TF.FileFunction,Plated,1,2,PTH
FMAT,2
INCH
; #@! TA.AperFunction,Plated,PTH,ViaDrill
T1C0.0118
; #@! TA.AperFunction,Plated,PTH,ViaDrill
T2C0.0157
; #@! TA.AperFunction,Plated,PTH,ComponentDrill
T3C0.0197
; #@! TA.AperFunction,Plated,PTH,ComponentDrill
T4C0.0394
; #@! TA.AperFunction,Plated,PTH,ComponentDrill
T5C0.0433
; #@! TA.AperFunction,Plated,PTH,ComponentDrill
T6C0.0728
%
G90
G05
T1
X6.7008Y-2.1976
X7.1456Y-4.425
X7.146Y-4.3146
X7.1468Y-3.9132
X7.1468Y-5.3383
X7.1472Y-3.8028
X7.1476Y-5.4486
X7.1479Y-2.7829
X7.148Y-4.8265
X7.1484Y-3.2914
X7.1495Y-4.9368
X7.1641Y-2.8933
X7.1646Y-3.4173
X7.2146Y-2.6437
X7.2157Y-3.4185
X7.218Y-3.2914
X7.2188Y-3.8028
X7.2192Y-2.9075
X7.22Y-3.9132
X7.2208Y-5.3383
X7.2208Y-5.4486
X7.2243Y-4.8265
X7.2243Y-4.9368
X7.2255Y-4.3146
X7.2255Y-4.425
X7.229Y-2.7823
X7.2591Y-5.5094
X7.2598Y-4.1181
X7.261Y-5.0047
X7.2618Y-3.4815
X7.2622Y-2.9646
X7.2634Y-3.1862
X7.2634Y-4.4933
X7.2638Y-3.0315
X7.2638Y-3.0906
X7.2638Y-3.9756
X7.2673Y-3.7913
X7.2673Y-4.8134
X7.2677Y-2.7598
X7.2681Y-5.3311
X7.2689Y-4.3004
X7.2705Y-3.2846
X7.2835Y-4.2362
X7.3046Y-5.6683
X7.3247Y-5.0896
X7.3247Y-5.6026
X7.3255Y-3.0483
X7.3255Y-4.5798
X7.3259Y-3.5554
X7.3259Y-4.066
X7.3534Y-2.3635
X7.3543Y-2.6195
X7.3545Y-5.6646
X7.3559Y-2.8933
X7.3566Y-4.1178
X7.3571Y-3.0752
X7.358Y-2.4156
X7.359Y-2.4637
X7.3592Y-2.3148
X7.3618Y-4.4287
X7.3685Y-3.4063
X7.3898Y-5.461
X7.3953Y-3.5776
X7.3957Y-2.8878
X7.3984Y-4.6047
X7.4035Y-5.6694
X7.4036Y-3.9161
X7.404Y-2.4207
X7.4042Y-2.3658
X7.4042Y-2.3177
X7.4042Y-4.967
X7.4079Y-4.1149
X7.4091Y-2.464
X7.4094Y-2.6165
X7.4134Y-3.3858
X7.4134Y-3.4252
X7.4272Y-2.9402
X7.4531Y-3.5565
X7.4531Y-5.092
X7.4531Y-5.6042
X7.4535Y-3.0471
X7.4535Y-4.0684
X7.4535Y-4.5802
X7.4561Y-2.4194
X7.4567Y-2.6175
X7.4576Y-2.4643
X7.4594Y-2.3149
X7.4595Y-5.6678
X7.46Y-2.3705
X7.4693Y-2.8764
X7.4791Y-2.9472
X7.5034Y-2.3672
X7.5041Y-5.4147
X7.5052Y-5.6145
X7.5062Y-5.4667
X7.5078Y-5.6678
X7.5081Y-2.6141
X7.5083Y-2.4194
X7.5303Y-2.9791
X7.5307Y-2.8091
X7.5433Y-3.8031
X7.5512Y-3.3409
X7.5516Y-3.0823
X7.5531Y-4.6664
X7.5531Y-5.0193
X7.5533Y-4.52
X7.5535Y-2.37
X7.5536Y-4.5694
X7.5539Y-2.2145
X7.5543Y-4.2677
X7.5543Y-5.1678
X7.5544Y-5.5663
X7.5546Y-4.0149
X7.5547Y-4.9185
X7.5547Y-5.2142
X7.555Y-4.3146
X7.5551Y-4.3703
X7.5554Y-3.7168
X7.5556Y-4.7143
X7.5556Y-4.7692
X7.5558Y-4.4199
X7.5558Y-3.6667
X7.556Y-4.9672
X7.5563Y-4.0652
X7.5563Y-4.6183
X7.5564Y-3.2662
X7.5568Y-3.415
X7.5568Y-3.9701
X7.5569Y-4.87
X7.5571Y-5.6148
X7.5573Y-5.0706
X7.5573Y-5.5172
X7.5579Y-2.5648
X7.5579Y-4.1153
X7.558Y-3.4678
X7.558Y-3.5138
X7.5581Y-3.6187
X7.5583Y-5.6687
X7.5583Y-4.468
X7.5583Y-5.1164
X7.5584Y-4.8141
X7.5585Y-4.2143
X7.559Y-3.9146
X7.559Y-3.1641
X7.5591Y-4.1647
X7.5592Y-5.2705
X7.5593Y-3.5672
X7.5594Y-5.3191
X7.5597Y-3.2187
X7.5598Y-2.4173
X7.5614Y-2.9307
X7.5705Y-3.7752
X7.5705Y-3.8343
X7.6031Y-5.1668
X7.6037Y-4.0641
X7.6038Y-4.4686
X7.6044Y-3.7138
X7.6046Y-5.6206
X7.605Y-5.5166
X7.6052Y-4.1197
X7.606Y-4.7144
X7.6061Y-4.8705
X7.6062Y-4.1662
X7.6062Y-4.9162
X7.6063Y-5.2166
X7.6064Y-2.7156
X7.6067Y-5.2679
X7.6068Y-5.1183
X7.6074Y-5.3178
X7.6074Y-3.9157
X7.6075Y-4.3181
X7.6075Y-4.4163
X7.6075Y-4.9653
X7.6076Y-4.0166
X7.6078Y-4.8193
X7.6081Y-5.5677
X7.6083Y-4.3706
X7.6083Y-5.0195
X7.6088Y-4.2141
X7.6094Y-5.0648
X7.6095Y-4.7682
X7.6096Y-3.9671
X7.6096Y-4.2657
X7.6099Y-5.6676
X7.61Y-2.7693
X7.6146Y-3.0215
X7.6272Y-5.3976
X7.639Y-2.224
X7.6484Y-3.048
X7.6532Y-4.0152
X7.6533Y-3.9191
X7.6535Y-4.267
X7.6548Y-4.4672
X7.6548Y-2.9182
X7.655Y-4.119
X7.6558Y-4.4154
X7.6559Y-3.9648
X7.6566Y-2.4138
X7.6571Y-5.67
X7.6572Y-4.1679
X7.6576Y-5.6198
X7.6584Y-4.066
X7.6588Y-4.3174
X7.6592Y-4.3669
X7.66Y-2.9686
X7.6601Y-4.2193
X7.6733Y-5.126
X7.6921Y-2.2823
X7.7032Y-4.1175
X7.7043Y-4.1641
X7.7047Y-3.1148
X7.7049Y-4.2196
X7.7057Y-4.3651
X7.7067Y-5.126
X7.7076Y-5.3896
X7.7076Y-3.9644
X7.7078Y-4.0166
X7.7088Y-4.0645
X7.7095Y-4.2664
X7.7095Y-5.6659
X7.7096Y-4.3154
X7.7096Y-4.4183
X7.7098Y-5.6169
X7.7276Y-3.5153
X7.7283Y-3.3819
X7.7315Y-2.6437
X7.7378Y-2.5378
X7.7529Y-3.2152
X7.7531Y-4.2147
X7.7534Y-3.2652
X7.7541Y-4.3189
X7.755Y-5.6204
X7.7553Y-5.6656
X7.7556Y-4.1687
X7.7556Y-2.9696
X7.7559Y-4.8618
X7.7569Y-3.0678
X7.7569Y-3.0157
X7.7583Y-4.3694
X7.7588Y-5.1155
X7.7596Y-3.1661
X7.7597Y-4.2681
X7.7599Y-3.1192
X7.775Y-5.5293
X7.775Y-5.5627
X7.7764Y-2.3984
X7.7795Y-4.8855
X7.7823Y-3.5185
X7.785Y-3.6516
X7.8034Y-2.8151
X7.8037Y-3.0199
X7.804Y-3.0636
X7.8046Y-5.6655
X7.8047Y-5.4169
X7.8053Y-5.3177
X7.8061Y-5.4695
X7.8061Y-3.1183
X7.8075Y-2.9644
X7.8079Y-5.3673
X7.8082Y-2.7669
X7.8083Y-2.9206
X7.8089Y-3.1666
X7.8096Y-5.6203
X7.8099Y-2.8651
X7.819Y-5.041
X7.8228Y-2.3457
X7.8294Y-4.1777
X7.831Y-3.892
X7.8449Y-2.5705
X7.8459Y-4.752
X7.853Y-2.9683
X7.853Y-5.5645
X7.8533Y-5.6668
X7.8541Y-5.6207
X7.8545Y-3.1179
X7.8555Y-3.0687
X7.8569Y-2.9167
X7.8576Y-2.6677
X7.8577Y-2.8189
X7.8579Y-3.019
X7.8583Y-3.3858
X7.8587Y-3.1687
X7.8601Y-2.8701
X7.874Y-4.038
X7.8858Y-3.3425
X7.8902Y-2.4283
X7.9024Y-3.4803
X7.9029Y-4.808
X7.9037Y-2.8176
X7.9045Y-2.8682
X7.9063Y-4.9667
X7.9067Y-5.6197
X7.907Y-2.9202
X7.9076Y-5.6675
X7.9077Y-2.9667
X7.9081Y-5.319
X7.9081Y-4.1675
X7.9086Y-4.6146
X7.9091Y-5.5637
X7.9091Y-5.0225
X7.9193Y-2.2169
X7.92Y-5.061
X7.9226Y-4.3479
X7.929Y-3.937
X7.9327Y-4.2457
X7.94Y-5.161
X7.945Y-5.391
X7.9462Y-4.2827
X7.9462Y-4.3715
X7.9549Y-3.814
X7.9559Y-3.4201
X7.9582Y-2.7705
X7.9588Y-3.7664
X7.959Y-3.5693
X7.9591Y-5.6662
X7.9592Y-4.6168
X7.9595Y-2.8657
X7.9599Y-2.8193
X7.9649Y-4.838
X7.9811Y-2.3091
X7.9811Y-4.2098
X8.003Y-3.8182
X8.0036Y-5.668
X8.0043Y-2.8174
X8.0045Y-3.9167
X8.0058Y-3.8686
X8.0084Y-2.6658
X8.0086Y-2.8706
X8.0087Y-4.6362
X8.01Y-5.221
X8.01Y-5.321
X8.01Y-5.471
X8.01Y-5.571
X8.013Y-4.198
X8.0197Y-4.2937
X8.021Y-5.111
X8.0219Y-4.808
X8.0249Y-4.2529
X8.033Y-3.746
X8.0371Y-4.1184
X8.0532Y-5.6684
X8.0557Y-3.8145
X8.0562Y-2.866
X8.0569Y-3.8671
X8.0573Y-2.6668
X8.0579Y-2.8178
X8.0588Y-3.9181
X8.059Y-5.6164
X8.0633Y-5.1155
X8.0789Y-4.752
X8.0829Y-4.667
X8.0967Y-5.1155
X8.1032Y-3.8174
X8.1045Y-3.9144
X8.1048Y-2.615
X8.1052Y-4.9666
X8.107Y-2.6705
X8.108Y-3.8668
X8.1081Y-5.6669
X8.143Y-4.068
X8.1543Y-3.4138
X8.1547Y-3.5659
X8.156Y-5.115
X8.1562Y-5.6689
X8.1567Y-2.6189
X8.1579Y-3.9201
X8.1586Y-2.6671
X8.1591Y-4.9685
X8.1595Y-2.5647
X8.1597Y-2.5169
X8.1598Y-5.0636
X8.1599Y-5.0147
X8.1823Y-4.0159
X8.2031Y-5.0146
X8.2033Y-5.1169
X8.2038Y-3.516
X8.2039Y-3.3155
X8.2044Y-5.0701
X8.2048Y-3.266
X8.2055Y-3.2184
X8.2064Y-2.47
X8.2067Y-5.6669
X8.207Y-2.9191
X8.2087Y-2.9682
X8.2089Y-2.5189
X8.2095Y-4.3169
X8.215Y-4.5004
X8.222Y-3.6953
X8.2441Y-3.4488
X8.2529Y-2.5146
X8.253Y-5.1142
X8.2542Y-3.3672
X8.2543Y-4.317
X8.2543Y-5.6679
X8.2547Y-3.5687
X8.2549Y-3.3177
X8.2557Y-5.0702
X8.256Y-3.2664
X8.2564Y-3.5206
X8.2566Y-2.9163
X8.2575Y-2.4673
X8.2577Y-3.214
X8.2582Y-4.1674
X8.2594Y-2.4168
X8.2638Y-3.7402
X8.2642Y-3.8768
X8.2677Y-3.4252
X8.2704Y-3.8459
X8.2717Y-4.7504
X8.2769Y-3.957
X8.2937Y-3.7996
X8.3021Y-3.9107
X8.303Y-5.6671
X8.3031Y-3.3898
X8.3032Y-3.2688
X8.3032Y-2.5145
X8.3049Y-2.4651
X8.305Y-5.068
X8.305Y-4.5145
X8.3051Y-4.5668
X8.3059Y-3.5988
X8.3062Y-2.9191
X8.3064Y-5.1143
X8.3066Y-3.2207
X8.3073Y-2.4201
X8.3077Y-3.3171
X8.3085Y-4.1145
X8.313Y-2.7142
X8.3319Y-3.5315
X8.3476Y-2.7138
X8.3512Y-3.4035
X8.353Y-2.4662
X8.3531Y-4.2641
X8.3542Y-2.9171
X8.3545Y-2.4147
X8.3554Y-3.2146
X8.3555Y-3.0672
X8.3585Y-2.5147
X8.359Y-5.6639
X8.3594Y-4.6136
X8.3807Y-2.622
X8.3807Y-2.6524
X8.3807Y-2.6839
X8.3807Y-2.7134
X8.392Y-3.82
X8.3984Y-3.4712
X8.3996Y-3.4071
X8.403Y-4.6674
X8.4042Y-3.064
X8.4057Y-5.6658
X8.4059Y-5.6176
X8.4061Y-2.5175
X8.4082Y-2.4662
X8.4086Y-4.7196
X8.4097Y-2.4151
X8.41Y-3.2199
X8.4126Y-2.6217
X8.4173Y-3.6142
X8.43Y-4.276
X8.4331Y-3.7992
X8.437Y-3.7126
X8.4445Y-3.5577
X8.4445Y-3.5911
X8.4476Y-2.6303
X8.45Y-5.221
X8.45Y-5.321
X8.45Y-5.471
X8.45Y-5.571
X8.4549Y-2.4663
X8.455Y-3.2158
X8.456Y-2.519
X8.4562Y-2.4187
X8.4565Y-5.67
X8.457Y-4.765
X8.4584Y-4.7138
X8.4596Y-2.8149
X8.46Y-3.0688
X8.4724Y-4.0433
X8.473Y-3.904
X8.473Y-3.954
X8.5008Y-3.4712
X8.5039Y-4.7186
X8.5056Y-2.4675
X8.5063Y-5.4174
X8.5068Y-5.6681
X8.5079Y-3.878
X8.5081Y-4.2198
X8.5082Y-4.7669
X8.5085Y-5.2165
X8.5087Y-4.0689
X8.5091Y-4.0195
X8.5098Y-3.8169
X8.5101Y-4.8141
X8.5189Y-3.187
X8.5228Y-3.3177
X8.525Y-4.133
X8.5433Y-3.9291
X8.5529Y-2.4661
X8.5535Y-3.4181
X8.5535Y-3.57
X8.5548Y-5.0193
X8.5548Y-3.1204
X8.5549Y-3.5157
X8.5551Y-5.1823
X8.5562Y-3.365
X8.5565Y-2.6147
X8.5569Y-4.8139
X8.557Y-5.6667
X8.5576Y-4.9188
X8.5576Y-3.2687
X8.5579Y-4.9677
X8.56Y-3.4674
X8.5601Y-4.8702
X8.5669Y-3.1772
X8.6094Y-5.6693
X8.654Y-2.2689
X8.6555Y-5.6679
X8.6556Y-2.3206
X8.7031Y-5.3204
X8.7032Y-4.8696
X8.7035Y-3.7203
X8.7036Y-3.3683
X8.7036Y-5.0167
X8.7038Y-3.1691
X8.7038Y-3.8163
X8.7039Y-2.3185
X8.7041Y-3.2147
X8.7042Y-3.3169
X8.7042Y-3.4151
X8.7047Y-3.4656
X8.7049Y-5.664
X8.7051Y-2.9671
X8.7051Y-2.3678
X8.7051Y-3.9682
X8.7053Y-3.6689
X8.7054Y-4.9194
X8.7054Y-2.2188
X8.7055Y-4.4669
X8.7058Y-3.6205
X8.706Y-3.266
X8.706Y-3.1157
X8.7061Y-3.0159
X8.7061Y-4.9688
X8.7063Y-2.8666
X8.7064Y-2.9198
X8.7065Y-5.0703
X8.7068Y-2.267
X8.7069Y-4.4176
X8.7069Y-3.7697
X8.7074Y-4.5644
X8.7076Y-4.7695
X8.7079Y-3.5141
X8.7082Y-3.0639
X8.7083Y-5.2687
X8.7088Y-2.4193
X8.7089Y-4.6687
X8.7089Y-4.167
X8.7094Y-4.7171
X8.7098Y-3.5694
X8.71Y-4.8187
X8.748Y-2.5354
X8.748Y-2.6339
X8.748Y-2.7402
X8.7529Y-4.9201
X8.753Y-4.6659
X8.7531Y-4.4689
X8.7532Y-3.0151
X8.7537Y-3.1687
X8.7539Y-4.3669
X8.754Y-4.7651
X8.7543Y-5.2649
X8.7544Y-4.3207
X8.7544Y-2.317
X8.7546Y-5.2202
X8.7547Y-5.0194
X8.7547Y-3.116
X8.7552Y-3.3653
X8.7552Y-3.2684
X8.7553Y-4.4169
X8.7555Y-4.7199
X8.7557Y-2.4192
X8.7557Y-3.7137
X8.7559Y-4.2204
X8.7559Y-3.8672
X8.756Y-3.7672
X8.756Y-2.2684
X8.7561Y-3.4194
X8.7563Y-5.1687
X8.7565Y-3.5204
X8.7567Y-5.3174
X8.7567Y-3.8206
X8.757Y-2.9694
X8.7571Y-3.6184
X8.7579Y-3.0658
X8.7579Y-2.9207
X8.7579Y-4.9667
X8.758Y-2.8676
X8.7582Y-4.8652
X8.7586Y-3.3161
X8.7587Y-3.2136
X8.7587Y-3.6685
X8.7588Y-4.8193
X8.7589Y-3.4675
X8.759Y-4.5666
X8.759Y-3.566
X8.759Y-2.3644
X8.759Y-4.1706
X8.76Y-4.2665
X8.8043Y-2.3169
X8.8043Y-5.6665
X8.8057Y-5.5647
X8.8061Y-5.6157
X8.8573Y-5.6677
X8.8577Y-5.5643
X8.86Y-5.6176
X8.903Y-3.2169
X8.903Y-3.4142
X8.9033Y-3.7667
X8.9035Y-4.6198
X8.9035Y-3.5662
X8.9036Y-4.9649
X8.9037Y-3.6698
X8.904Y-3.468
X8.9041Y-3.018
X8.9041Y-5.3186
X8.9044Y-3.2701
X8.9044Y-2.8182
X8.9044Y-4.4143
X8.9045Y-2.9197
X8.9046Y-4.1194
X8.9048Y-3.6194
X8.9049Y-3.7169
X8.9049Y-5.2143
X8.9051Y-4.0145
X8.9052Y-4.7673
X8.9052Y-5.2664
X8.9052Y-4.5701
X8.9053Y-2.9654
X8.9054Y-3.8164
X8.9057Y-4.8666
X8.906Y-5.5643
X8.906Y-4.4688
X8.9061Y-3.9684
X8.9064Y-4.5164
X8.9064Y-5.114
X8.9065Y-4.7192
X8.9067Y-3.9136
X8.9068Y-4.8145
X8.9069Y-2.5692
X8.907Y-5.3667
X8.9072Y-4.2203
X8.9074Y-2.7655
X8.9076Y-5.0142
X8.9077Y-3.1671
X8.9078Y-3.3148
X8.9078Y-3.5201
X8.9079Y-2.4644
X8.9079Y-4.1694
X8.9079Y-3.1141
X8.9081Y-4.3196
X8.9081Y-2.6149
X8.9082Y-3.3689
X8.9083Y-3.0681
X8.9084Y-5.4148
X8.9085Y-2.8653
X8.9089Y-5.1694
X8.909Y-2.7149
X8.9091Y-2.5159
X8.9091Y-4.6691
X8.9091Y-4.9198
X8.9093Y-5.0666
X8.9094Y-3.8688
X8.9094Y-2.417
X8.9097Y-4.0636
X8.9098Y-4.2647
X8.9098Y-4.3652
X8.9099Y-2.6657
X8.9571Y-5.5698
X9.0046Y-5.5688
X9.0071Y-5.6149
X9.0078Y-2.2644
T2
X7.6319Y-4.571
X8.0209Y-3.2555
X8.7547Y-5.8142
X8.7654Y-2.0579
T3
X8.341Y-3.6483
X8.341Y-3.6877
T4
X8.6476Y-2.3866
X8.6476Y-2.4866
X8.6476Y-2.5866
X8.6476Y-2.6866
X8.6476Y-2.7866
X8.6476Y-2.8866
X8.6476Y-2.9866
X8.6476Y-3.0866
X8.6476Y-3.1866
X8.6476Y-3.2866
X8.6476Y-3.3866
X8.6476Y-3.4866
X8.6476Y-3.5866
X8.6476Y-3.6866
X8.6476Y-3.7866
X8.6476Y-3.8866
X8.6476Y-3.9866
X8.6476Y-4.0866
X8.6476Y-4.1866
X8.6476Y-4.2866
X8.6476Y-4.3866
X8.6476Y-4.4866
X8.6476Y-4.5866
X8.6476Y-4.6866
X8.6476Y-4.7866
X8.6476Y-4.8866
X8.6476Y-4.9866
X8.6476Y-5.0866
X8.6476Y-5.1866
X8.6476Y-5.2866
X8.6476Y-5.3866
X8.6476Y-5.4866
X8.8476Y-2.3866
X8.8476Y-2.4866
X8.8476Y-2.5866
X8.8476Y-2.6866
X8.8476Y-2.7866
X8.8476Y-2.8866
X8.8476Y-2.9866
X8.8476Y-3.0866
X8.8476Y-3.1866
X8.8476Y-3.2866
X8.8476Y-3.3866
X8.8476Y-3.4866
X8.8476Y-3.5866
X8.8476Y-3.6866
X8.8476Y-3.7866
X8.8476Y-3.8866
X8.8476Y-3.9866
X8.8476Y-4.0866
X8.8476Y-4.1866
X8.8476Y-4.2866
X8.8476Y-4.3866
X8.8476Y-4.4866
X8.8476Y-4.5866
X8.8476Y-4.6866
X8.8476Y-4.7866
X8.8476Y-4.8866
X8.8476Y-4.9866
X8.8476Y-5.0866
X8.8476Y-5.1866
X8.8476Y-5.2866
X8.8476Y-5.3866
X8.8476Y-5.4866
T5
X3.0839Y-2.7271
X3.0839Y-3.0271
X3.0839Y-3.239
X3.0839Y-3.539
X3.0839Y-3.7508
X3.0839Y-4.0508
X3.0839Y-4.2626
X3.0839Y-4.5626
X3.0839Y-4.7189
X3.0839Y-5.0189
X3.0846Y-5.187
X3.0846Y-5.487
X3.1839Y-2.7271
X3.1839Y-3.0271
X3.1839Y-3.239
X3.1839Y-3.539
X3.1839Y-3.7508
X3.1839Y-4.0508
X3.1839Y-4.2626
X3.1839Y-4.5626
X3.1839Y-4.7189
X3.1839Y-5.0189
X3.1846Y-5.187
X3.1846Y-5.487
X3.2839Y-2.7271
X3.2839Y-3.0271
X3.2839Y-3.239
X3.2839Y-3.539
X3.2839Y-3.7508
X3.2839Y-4.0508
X3.2839Y-4.2626
X3.2839Y-4.5626
X3.2839Y-4.7189
X3.2839Y-5.0189
X3.2846Y-5.187
X3.2846Y-5.487
X3.3839Y-2.7271
X3.3839Y-3.0271
X3.3839Y-3.239
X3.3839Y-3.539
X3.3839Y-3.7508
X3.3839Y-4.0508
X3.3839Y-4.2626
X3.3839Y-4.5626
X3.3839Y-4.7189
X3.3839Y-5.0189
X3.3846Y-5.187
X3.3846Y-5.487
X3.4839Y-2.7271
X3.4839Y-3.0271
X3.4839Y-3.239
X3.4839Y-3.539
X3.4839Y-3.7508
X3.4839Y-4.0508
X3.4839Y-4.2626
X3.4839Y-4.5626
X3.4839Y-4.7189
X3.4839Y-5.0189
X3.4846Y-5.187
X3.4846Y-5.487
X3.8241Y-2.727
X3.8241Y-3.027
X3.8241Y-3.2388
X3.8241Y-3.5388
X3.8241Y-3.7507
X3.8241Y-4.0507
X3.8241Y-4.2625
X3.8241Y-4.5625
X3.8241Y-4.7743
X3.8241Y-5.0743
X3.8241Y-5.2861
X3.8241Y-5.5861
X3.9241Y-2.727
X3.9241Y-3.027
X3.9241Y-3.2388
X3.9241Y-3.5388
X3.9241Y-3.7507
X3.9241Y-4.0507
X3.9241Y-4.2625
X3.9241Y-4.5625
X3.9241Y-4.7743
X3.9241Y-5.0743
X3.9241Y-5.2861
X3.9241Y-5.5861
X4.0241Y-2.727
X4.0241Y-3.027
X4.0241Y-3.2388
X4.0241Y-3.5388
X4.0241Y-3.7507
X4.0241Y-4.0507
X4.0241Y-4.2625
X4.0241Y-4.5625
X4.0241Y-4.7743
X4.0241Y-5.0743
X4.0241Y-5.2861
X4.0241Y-5.5861
X4.1241Y-2.727
X4.1241Y-3.027
X4.1241Y-3.2388
X4.1241Y-3.5388
X4.1241Y-3.7507
X4.1241Y-4.0507
X4.1241Y-4.2625
X4.1241Y-4.5625
X4.1241Y-4.7743
X4.1241Y-5.0743
X4.1241Y-5.2861
X4.1241Y-5.5861
X4.2241Y-2.727
X4.2241Y-3.027
X4.2241Y-3.2388
X4.2241Y-3.5388
X4.2241Y-3.7507
X4.2241Y-4.0507
X4.2241Y-4.2625
X4.2241Y-4.5625
X4.2241Y-4.7743
X4.2241Y-5.0743
X4.2241Y-5.2861
X4.2241Y-5.5861
X4.4008Y-2.2374
X4.4008Y-2.5374
X4.5008Y-2.2374
X4.5008Y-2.5374
X4.5642Y-2.7271
X4.5642Y-3.0271
X4.5642Y-3.239
X4.5642Y-3.539
X4.5642Y-3.7508
X4.5642Y-4.0508
X4.5642Y-4.2626
X4.5642Y-4.5626
X4.5642Y-4.7744
X4.5642Y-5.0744
X4.5642Y-5.2862
X4.5642Y-5.5862
X4.6008Y-2.2374
X4.6008Y-2.5374
X4.6642Y-2.7271
X4.6642Y-3.0271
X4.6642Y-3.239
X4.6642Y-3.539
X4.6642Y-3.7508
X4.6642Y-4.0508
X4.6642Y-4.2626
X4.6642Y-4.5626
X4.6642Y-4.7744
X4.6642Y-5.0744
X4.6642Y-5.2862
X4.6642Y-5.5862
X4.7008Y-2.2374
X4.7008Y-2.5374
X4.7642Y-2.7271
X4.7642Y-3.0271
X4.7642Y-3.239
X4.7642Y-3.539
X4.7642Y-3.7508
X4.7642Y-4.0508
X4.7642Y-4.2626
X4.7642Y-4.5626
X4.7642Y-4.7744
X4.7642Y-5.0744
X4.7642Y-5.2862
X4.7642Y-5.5862
X4.8008Y-2.2374
X4.8008Y-2.5374
X4.8642Y-2.7271
X4.8642Y-3.0271
X4.8642Y-3.239
X4.8642Y-3.539
X4.8642Y-3.7508
X4.8642Y-4.0508
X4.8642Y-4.2626
X4.8642Y-4.5626
X4.8642Y-4.7744
X4.8642Y-5.0744
X4.8642Y-5.2862
X4.8642Y-5.5862
X4.9642Y-2.7271
X4.9642Y-3.0271
X4.9642Y-3.239
X4.9642Y-3.539
X4.9642Y-3.7508
X4.9642Y-4.0508
X4.9642Y-4.2626
X4.9642Y-4.5626
X4.9642Y-4.7744
X4.9642Y-5.0744
X4.9642Y-5.2862
X4.9642Y-5.5862
X5.3044Y-2.727
X5.3044Y-3.027
X5.3044Y-3.2388
X5.3044Y-3.5388
X5.3044Y-3.7507
X5.3044Y-4.0507
X5.3044Y-4.2625
X5.3044Y-4.5625
X5.3044Y-4.7743
X5.3044Y-5.0743
X5.3044Y-5.2861
X5.3044Y-5.5861
X5.4044Y-2.727
X5.4044Y-3.027
X5.4044Y-3.2388
X5.4044Y-3.5388
X5.4044Y-3.7507
X5.4044Y-4.0507
X5.4044Y-4.2625
X5.4044Y-4.5625
X5.4044Y-4.7743
X5.4044Y-5.0743
X5.4044Y-5.2861
X5.4044Y-5.5861
X5.5044Y-2.727
X5.5044Y-3.027
X5.5044Y-3.2388
X5.5044Y-3.5388
X5.5044Y-3.7507
X5.5044Y-4.0507
X5.5044Y-4.2625
X5.5044Y-4.5625
X5.5044Y-4.7743
X5.5044Y-5.0743
X5.5044Y-5.2861
X5.5044Y-5.5861
X5.6044Y-2.727
X5.6044Y-3.027
X5.6044Y-3.2388
X5.6044Y-3.5388
X5.6044Y-3.7507
X5.6044Y-4.0507
X5.6044Y-4.2625
X5.6044Y-4.5625
X5.6044Y-4.7743
X5.6044Y-5.0743
X5.6044Y-5.2861
X5.6044Y-5.5861
X5.7044Y-2.727
X5.7044Y-3.027
X5.7044Y-3.2388
X5.7044Y-3.5388
X5.7044Y-3.7507
X5.7044Y-4.0507
X5.7044Y-4.2625
X5.7044Y-4.5625
X5.7044Y-4.7743
X5.7044Y-5.0743
X5.7044Y-5.2861
X5.7044Y-5.5861
X6.0446Y-2.7271
X6.0446Y-3.0271
X6.0446Y-3.239
X6.0446Y-3.539
X6.0446Y-3.7508
X6.0446Y-4.0508
X6.0446Y-4.2626
X6.0446Y-4.5626
X6.0446Y-4.7744
X6.0446Y-5.0744
X6.0446Y-5.2862
X6.0446Y-5.5862
X6.0921Y-2.2386
X6.0921Y-2.5386
X6.1446Y-2.7271
X6.1446Y-3.0271
X6.1446Y-3.239
X6.1446Y-3.539
X6.1446Y-3.7508
X6.1446Y-4.0508
X6.1446Y-4.2626
X6.1446Y-4.5626
X6.1446Y-4.7744
X6.1446Y-5.0744
X6.1446Y-5.2862
X6.1446Y-5.5862
X6.1921Y-2.2386
X6.1921Y-2.5386
X6.2446Y-2.7271
X6.2446Y-3.0271
X6.2446Y-3.239
X6.2446Y-3.539
X6.2446Y-3.7508
X6.2446Y-4.0508
X6.2446Y-4.2626
X6.2446Y-4.5626
X6.2446Y-4.7744
X6.2446Y-5.0744
X6.2446Y-5.2862
X6.2446Y-5.5862
X6.2921Y-2.2386
X6.2921Y-2.5386
X6.3446Y-2.7271
X6.3446Y-3.0271
X6.3446Y-3.239
X6.3446Y-3.539
X6.3446Y-3.7508
X6.3446Y-4.0508
X6.3446Y-4.2626
X6.3446Y-4.5626
X6.3446Y-4.7744
X6.3446Y-5.0744
X6.3446Y-5.2862
X6.3446Y-5.5862
X6.3921Y-2.2386
X6.3921Y-2.5386
X6.4446Y-2.7271
X6.4446Y-3.0271
X6.4446Y-3.239
X6.4446Y-3.539
X6.4446Y-3.7508
X6.4446Y-4.0508
X6.4446Y-4.2626
X6.4446Y-4.5626
X6.4446Y-4.7744
X6.4446Y-5.0744
X6.4446Y-5.2862
X6.4446Y-5.5862
X6.4921Y-2.2386
X6.4921Y-2.5386
X6.7847Y-2.727
X6.7847Y-3.027
X6.7847Y-3.2388
X6.7847Y-3.5388
X6.7847Y-3.7507
X6.7847Y-4.0507
X6.7847Y-4.2625
X6.7847Y-4.5625
X6.7847Y-4.7743
X6.7847Y-5.0743
X6.7847Y-5.2861
X6.7847Y-5.5861
X6.8847Y-2.727
X6.8847Y-3.027
X6.8847Y-3.2388
X6.8847Y-3.5388
X6.8847Y-3.7507
X6.8847Y-4.0507
X6.8847Y-4.2625
X6.8847Y-4.5625
X6.8847Y-4.7743
X6.8847Y-5.0743
X6.8847Y-5.2861
X6.8847Y-5.5861
X6.9847Y-2.727
X6.9847Y-3.027
X6.9847Y-3.2388
X6.9847Y-3.5388
X6.9847Y-3.7507
X6.9847Y-4.0507
X6.9847Y-4.2625
X6.9847Y-4.5625
X6.9847Y-4.7743
X6.9847Y-5.0743
X6.9847Y-5.2861
X6.9847Y-5.5861
X7.0811Y-2.2386
X7.0811Y-2.5386
X7.0847Y-2.727
X7.0847Y-3.027
X7.0847Y-3.2388
X7.0847Y-3.5388
X7.0847Y-3.7507
X7.0847Y-4.0507
X7.0847Y-4.2625
X7.0847Y-4.5625
X7.0847Y-4.7743
X7.0847Y-5.0743
X7.0847Y-5.2861
X7.0847Y-5.5861
X7.1811Y-2.2386
X7.1811Y-2.5386
X7.1847Y-2.727
X7.1847Y-3.027
X7.1847Y-3.2388
X7.1847Y-3.5388
X7.1847Y-3.7507
X7.1847Y-4.0507
X7.1847Y-4.2625
X7.1847Y-4.5625
X7.1847Y-4.7743
X7.1847Y-5.0743
X7.1847Y-5.2861
X7.1847Y-5.5861
X7.2811Y-2.2386
X7.2811Y-2.5386
X7.3811Y-2.2386
X7.3811Y-2.5386
X7.4811Y-2.2386
X7.4811Y-2.5386
T6
X3.2841Y-2.289
X3.2841Y-2.4858
X3.5601Y-2.289
X3.5601Y-2.4858
X3.7539Y-2.289
X3.7539Y-2.4858
X4.0299Y-2.289
X4.0299Y-2.4858
X4.9899Y-2.2898
X4.9899Y-2.4866
X5.2659Y-2.2898
X5.2659Y-2.4866
X5.4588Y-2.2898
X5.4588Y-2.4866
X5.7348Y-2.2898
X5.7348Y-2.4866
M30
